<svg xmlns="http://www.w3.org/2000/svg" xmlns:xlink="http://www.w3.org/1999/xlink" width="500" zoomAndPan="magnify" viewBox="0 0 375 374.999991" height="500" preserveAspectRatio="xMidYMid meet" version="1.0"><defs><clipPath id="cad215ca78"><path d="M 243.257812 37.5 L 306 37.5 L 306 83.25 L 243.257812 83.25 Z M 243.257812 37.5 " clip-rule="nonzero"/></clipPath></defs><g clip-path="url(#cad215ca78)"><path fill="#002ef4" d="M 303.460938 56.496094 L 298.792969 55.101562 C 297.351562 58.191406 295.589844 61.121094 293.53125 63.847656 C 290.453125 67.917969 286.773438 71.46875 282.582031 74.402344 C 275.054688 79.675781 266.246094 82.703125 257.109375 83.15625 C 256.289062 83.195312 255.460938 83.21875 254.636719 83.21875 C 254.167969 83.21875 253.695312 83.210938 253.226562 83.199219 L 247.472656 83.035156 C 246.347656 83.003906 245.464844 82.070312 245.496094 80.949219 L 245.699219 73.847656 L 245.261719 73.832031 C 244.136719 73.792969 243.261719 72.851562 243.300781 71.730469 L 243.648438 61.953125 C 243.6875 60.832031 244.632812 59.957031 245.753906 59.996094 L 249.125 60.117188 C 262.070312 59.53125 273.445312 52.1875 279.289062 40.761719 C 279.777344 39.800781 280.9375 39.390625 281.925781 39.832031 L 288.917969 42.945312 L 296.15625 38.226562 C 297.210938 37.539062 298.632812 37.964844 299.132812 39.117188 L 305.640625 54.042969 C 306.253906 55.453125 304.9375 56.9375 303.460938 56.496094 Z M 303.460938 56.496094 " fill-opacity="1" fill-rule="nonzero"/></g><path fill="#000000" d="M 301.921875 52.101562 L 297.328125 41.570312 C 297.246094 41.382812 297.085938 41.242188 296.890625 41.183594 C 296.695312 41.125 296.484375 41.15625 296.3125 41.265625 L 286.679688 47.542969 C 286.453125 47.691406 286.332031 47.957031 286.371094 48.222656 C 286.410156 48.488281 286.601562 48.710938 286.859375 48.785156 L 290.636719 49.917969 C 284.3125 64.820312 269.820312 74.113281 253.496094 73.648438 L 249.035156 73.523438 C 248.851562 73.519531 248.675781 73.585938 248.539062 73.710938 C 248.40625 73.835938 248.328125 74.011719 248.324219 74.195312 L 248.167969 79.730469 C 248.160156 79.914062 248.230469 80.09375 248.355469 80.226562 C 248.480469 80.359375 248.65625 80.4375 248.839844 80.441406 L 253.300781 80.570312 C 253.746094 80.582031 254.191406 80.589844 254.636719 80.589844 C 255.417969 80.589844 256.199219 80.570312 256.976562 80.53125 C 265.617188 80.097656 273.949219 77.234375 281.070312 72.246094 C 285.03125 69.472656 288.515625 66.113281 291.425781 62.261719 C 293.832031 59.082031 295.808594 55.601562 297.308594 51.914062 L 301.085938 53.039062 C 301.34375 53.117188 301.621094 53.039062 301.800781 52.835938 C 301.984375 52.636719 302.027344 52.347656 301.921875 52.101562 Z M 297.101562 50.402344 C 296.753906 50.300781 296.386719 50.480469 296.253906 50.816406 C 294.773438 54.605469 292.777344 58.175781 290.320312 61.425781 C 287.5 65.164062 284.117188 68.421875 280.277344 71.113281 C 273.367188 75.953125 265.289062 78.730469 256.910156 79.148438 C 255.730469 79.203125 254.527344 79.21875 253.34375 79.183594 L 249.574219 79.078125 L 249.691406 74.925781 L 253.460938 75.03125 C 261.855469 75.269531 269.960938 72.996094 276.898438 68.453125 C 283.8125 63.925781 289.109375 57.449219 292.214844 49.730469 C 292.285156 49.550781 292.28125 49.347656 292.195312 49.171875 C 292.113281 48.996094 291.957031 48.863281 291.769531 48.808594 L 288.691406 47.890625 L 296.386719 42.875 L 300.054688 51.285156 Z M 247.96875 67.78125 L 247.984375 69.765625 C 247.984375 69.945312 247.917969 70.109375 247.789062 70.238281 C 247.664062 70.367188 247.5 70.4375 247.320312 70.4375 L 247.316406 70.4375 C 247.316406 70.4375 247.3125 70.4375 247.3125 70.4375 C 247.132812 70.4375 246.96875 70.371094 246.839844 70.246094 C 246.710938 70.117188 246.640625 69.953125 246.640625 69.773438 L 246.597656 63.933594 C 246.597656 63.753906 246.664062 63.589844 246.792969 63.460938 C 246.921875 63.328125 247.082031 63.261719 247.265625 63.257812 C 247.441406 63.257812 247.609375 63.324219 247.738281 63.453125 C 247.871094 63.582031 247.941406 63.742188 247.941406 63.925781 L 247.957031 65.914062 L 250.382812 63.457031 C 250.460938 63.378906 250.535156 63.324219 250.613281 63.289062 C 250.695312 63.253906 250.785156 63.234375 250.882812 63.234375 C 250.886719 63.234375 250.886719 63.234375 250.890625 63.234375 C 251.144531 63.234375 251.296875 63.351562 251.378906 63.449219 C 251.484375 63.574219 251.535156 63.726562 251.53125 63.898438 C 251.527344 64.066406 251.464844 64.21875 251.347656 64.359375 L 251.328125 64.378906 L 249.273438 66.460938 L 251.425781 69.34375 C 251.527344 69.492188 251.574219 69.652344 251.558594 69.8125 C 251.542969 69.972656 251.476562 70.117188 251.363281 70.226562 C 251.246094 70.347656 251.09375 70.414062 250.921875 70.414062 C 250.683594 70.425781 250.488281 70.316406 250.359375 70.128906 L 248.324219 67.421875 Z M 251.699219 63.863281 C 251.671875 63.679688 251.714844 63.503906 251.820312 63.363281 C 251.925781 63.21875 252.078125 63.125 252.261719 63.097656 L 256.117188 62.507812 C 256.292969 62.480469 256.457031 62.519531 256.601562 62.613281 C 256.757812 62.71875 256.855469 62.871094 256.882812 63.0625 C 256.910156 63.238281 256.863281 63.40625 256.753906 63.550781 C 256.644531 63.695312 256.496094 63.78125 256.320312 63.808594 L 253.125 64.296875 L 253.367188 65.878906 L 255.597656 65.539062 C 255.78125 65.511719 255.957031 65.550781 256.097656 65.65625 C 256.242188 65.765625 256.335938 65.914062 256.363281 66.09375 C 256.390625 66.269531 256.347656 66.441406 256.242188 66.585938 C 256.136719 66.730469 255.980469 66.820312 255.796875 66.847656 L 253.566406 67.1875 L 253.8125 68.792969 L 257.007812 68.304688 C 257.179688 68.277344 257.351562 68.316406 257.496094 68.417969 C 257.648438 68.523438 257.742188 68.675781 257.769531 68.851562 C 257.796875 69.039062 257.753906 69.214844 257.636719 69.359375 C 257.527344 69.492188 257.378906 69.578125 257.207031 69.605469 L 253.347656 70.195312 C 253.3125 70.199219 253.273438 70.203125 253.238281 70.203125 C 253.09375 70.203125 252.960938 70.160156 252.847656 70.074219 C 252.703125 69.972656 252.613281 69.816406 252.582031 69.632812 Z M 257.035156 63 C 256.980469 62.824219 256.992188 62.644531 257.078125 62.488281 C 257.160156 62.328125 257.300781 62.214844 257.476562 62.160156 L 261.203125 61.007812 C 261.371094 60.957031 261.542969 60.964844 261.699219 61.039062 C 261.867188 61.117188 261.984375 61.253906 262.042969 61.441406 C 262.09375 61.609375 262.074219 61.785156 261.984375 61.945312 C 261.898438 62.101562 261.765625 62.210938 261.59375 62.261719 L 258.507812 63.21875 L 258.984375 64.746094 L 261.140625 64.078125 C 261.316406 64.023438 261.496094 64.039062 261.652344 64.121094 C 261.8125 64.203125 261.921875 64.339844 261.976562 64.511719 C 262.03125 64.6875 262.015625 64.859375 261.933594 65.019531 C 261.847656 65.175781 261.710938 65.289062 261.53125 65.34375 L 259.375 66.011719 L 259.859375 67.566406 L 262.945312 66.609375 C 263.113281 66.558594 263.289062 66.570312 263.449219 66.648438 C 263.613281 66.730469 263.726562 66.867188 263.777344 67.035156 C 263.835938 67.21875 263.816406 67.398438 263.722656 67.558594 C 263.636719 67.707031 263.5 67.8125 263.335938 67.867188 L 259.609375 69.019531 C 259.539062 69.039062 259.464844 69.050781 259.398438 69.050781 C 259.292969 69.050781 259.1875 69.027344 259.09375 68.976562 C 258.9375 68.894531 258.824219 68.753906 258.765625 68.578125 Z M 264.683594 66.613281 C 264.761719 66.78125 264.894531 66.90625 265.0625 66.964844 C 265.132812 66.992188 265.207031 67.003906 265.28125 67.003906 C 265.382812 67.003906 265.480469 66.980469 265.578125 66.933594 C 265.746094 66.855469 265.867188 66.722656 265.925781 66.558594 C 265.988281 66.390625 265.976562 66.210938 265.898438 66.042969 L 265.203125 64.574219 L 266.101562 64.152344 C 266.527344 63.953125 266.867188 63.675781 267.109375 63.332031 C 267.351562 62.984375 267.492188 62.59375 267.523438 62.171875 C 267.558594 61.757812 267.472656 61.332031 267.273438 60.914062 C 267.070312 60.484375 266.796875 60.144531 266.453125 59.898438 C 266.109375 59.652344 265.714844 59.511719 265.289062 59.480469 C 264.871094 59.445312 264.4375 59.53125 264.015625 59.730469 L 262.507812 60.4375 C 262.339844 60.519531 262.21875 60.648438 262.15625 60.816406 C 262.097656 60.984375 262.109375 61.160156 262.1875 61.332031 Z M 266.199219 62.070312 C 266.183594 62.261719 266.121094 62.429688 266.011719 62.585938 C 265.898438 62.742188 265.746094 62.867188 265.542969 62.964844 L 264.644531 63.386719 L 263.679688 61.34375 L 264.578125 60.921875 C 264.78125 60.828125 264.972656 60.789062 265.167969 60.804688 C 265.363281 60.820312 265.535156 60.882812 265.691406 60.992188 C 265.851562 61.109375 265.976562 61.265625 266.078125 61.476562 C 266.171875 61.679688 266.210938 61.875 266.199219 62.070312 Z M 268.496094 57.984375 C 268.390625 57.832031 268.351562 57.65625 268.382812 57.480469 C 268.417969 57.304688 268.519531 57.160156 268.671875 57.054688 C 268.824219 56.949219 269 56.910156 269.175781 56.945312 C 269.351562 56.976562 269.5 57.078125 269.605469 57.230469 L 272.894531 62.058594 C 273 62.214844 273.039062 62.386719 273.003906 62.5625 C 272.96875 62.738281 272.871094 62.886719 272.714844 62.992188 C 272.597656 63.070312 272.46875 63.113281 272.335938 63.113281 C 272.296875 63.113281 272.253906 63.109375 272.214844 63.101562 C 272.039062 63.066406 271.890625 62.96875 271.785156 62.816406 Z M 269.671875 57.289062 C 269.554688 57.148438 269.503906 56.984375 269.519531 56.816406 C 269.535156 56.644531 269.617188 56.492188 269.753906 56.378906 L 271 55.335938 L 273.285156 53.429688 C 273.421875 53.3125 273.585938 53.261719 273.753906 53.277344 C 273.925781 53.292969 274.078125 53.375 274.195312 53.511719 C 274.304688 53.644531 274.359375 53.808594 274.34375 53.976562 C 274.328125 54.148438 274.246094 54.296875 274.109375 54.414062 L 272.855469 55.460938 L 276.214844 59.472656 C 276.328125 59.605469 276.382812 59.773438 276.371094 59.949219 C 276.359375 60.132812 276.277344 60.292969 276.132812 60.414062 C 276.007812 60.519531 275.863281 60.570312 275.707031 60.570312 C 275.683594 60.570312 275.664062 60.570312 275.640625 60.566406 C 275.460938 60.550781 275.304688 60.46875 275.1875 60.332031 L 271.828125 56.320312 L 270.578125 57.363281 C 270.441406 57.476562 270.277344 57.53125 270.105469 57.515625 C 269.9375 57.503906 269.785156 57.421875 269.671875 57.289062 Z M 275.457031 51.511719 C 275.433594 51.335938 275.480469 51.164062 275.59375 51.015625 C 275.707031 50.867188 275.859375 50.777344 276.035156 50.753906 C 276.214844 50.730469 276.386719 50.78125 276.535156 50.890625 L 279.730469 53.335938 C 279.9375 53.496094 280.152344 53.582031 280.382812 53.597656 C 280.617188 53.613281 280.847656 53.566406 281.082031 53.445312 C 281.324219 53.324219 281.550781 53.132812 281.746094 52.875 C 281.9375 52.625 282.0625 52.367188 282.113281 52.105469 C 282.164062 51.851562 282.152344 51.617188 282.074219 51.394531 C 281.996094 51.175781 281.859375 50.992188 281.652344 50.835938 L 278.457031 48.390625 C 278.308594 48.273438 278.214844 48.121094 278.191406 47.945312 C 278.167969 47.769531 278.214844 47.59375 278.332031 47.449219 C 278.480469 47.253906 278.660156 47.195312 278.785156 47.183594 C 278.957031 47.164062 279.125 47.214844 279.269531 47.324219 L 282.46875 49.769531 C 282.871094 50.078125 283.15625 50.457031 283.320312 50.902344 C 283.480469 51.34375 283.515625 51.8125 283.425781 52.292969 C 283.332031 52.769531 283.117188 53.230469 282.78125 53.667969 C 282.445312 54.109375 282.050781 54.445312 281.613281 54.65625 C 281.234375 54.84375 280.84375 54.9375 280.449219 54.9375 C 280.378906 54.9375 280.304688 54.933594 280.234375 54.925781 C 279.761719 54.886719 279.320312 54.710938 278.914062 54.398438 L 275.71875 51.953125 C 275.570312 51.84375 275.480469 51.6875 275.457031 51.511719 Z M 279.546875 46.777344 L 284.683594 49.578125 C 284.785156 49.632812 284.898438 49.664062 285.007812 49.664062 C 285.070312 49.664062 285.132812 49.65625 285.195312 49.636719 C 285.363281 49.585938 285.503906 49.472656 285.589844 49.3125 L 285.589844 49.308594 C 285.679688 49.144531 285.699219 48.96875 285.652344 48.796875 C 285.601562 48.628906 285.488281 48.488281 285.324219 48.398438 L 283.898438 47.621094 L 284.371094 46.753906 C 284.597656 46.339844 284.707031 45.917969 284.699219 45.496094 C 284.691406 45.070312 284.574219 44.675781 284.351562 44.316406 C 284.132812 43.960938 283.8125 43.667969 283.40625 43.445312 C 283 43.222656 282.582031 43.109375 282.171875 43.109375 C 282.164062 43.109375 282.152344 43.109375 282.144531 43.109375 C 281.71875 43.117188 281.320312 43.230469 280.957031 43.457031 C 280.597656 43.679688 280.300781 44 280.074219 44.410156 L 279.277344 45.867188 C 279.1875 46.03125 279.167969 46.210938 279.21875 46.378906 C 279.269531 46.550781 279.382812 46.691406 279.546875 46.777344 Z M 281.640625 44.597656 C 281.808594 44.5 281.980469 44.449219 282.175781 44.445312 C 282.371094 44.441406 282.566406 44.496094 282.773438 44.609375 C 282.96875 44.71875 283.117188 44.847656 283.21875 45.015625 C 283.320312 45.175781 283.371094 45.347656 283.375 45.539062 C 283.375 45.734375 283.324219 45.925781 283.21875 46.125 L 282.742188 46.992188 L 280.757812 45.910156 L 281.234375 45.042969 C 281.339844 44.847656 281.472656 44.703125 281.640625 44.597656 Z M 281.640625 44.597656 " fill-opacity="1" fill-rule="nonzero"/></svg>