<svg xmlns="http://www.w3.org/2000/svg" xmlns:xlink="http://www.w3.org/1999/xlink" width="500" zoomAndPan="magnify" viewBox="0 0 375 374.999991" height="500" preserveAspectRatio="xMidYMid meet" version="1.0"><path fill="#ddd6fe" d="M 41.109375 347.183594 L 133.90625 254.359375 C 129.058594 259.214844 129.058594 267.074219 133.90625 271.925781 C 138.753906 276.769531 146.617188 276.769531 151.457031 271.925781 L 82.214844 341.179688 C 77.359375 346.023438 77.359375 353.882812 82.214844 358.738281 C 87.050781 363.582031 94.914062 363.582031 99.765625 358.738281 L 133.046875 325.4375 C 128.207031 330.296875 128.207031 338.152344 133.046875 342.996094 C 137.890625 347.835938 145.757812 347.847656 150.605469 342.996094 C 150.605469 342.996094 325.414062 168.140625 327.132812 166.4375 C 361.058594 132.515625 361.058594 77.5 327.132812 43.558594 C 293.488281 9.902344 239.109375 9.636719 205.121094 42.734375 C 205.050781 42.804688 204.976562 42.867188 204.902344 42.933594 L 35.34375 212.527344 C 30.492188 217.367188 30.484375 225.234375 35.328125 230.082031 C 40.179688 234.929688 48.042969 234.929688 52.886719 230.082031 L 16.917969 266.0625 C 12.058594 270.910156 12.070312 278.773438 16.917969 283.617188 C 21.761719 288.46875 29.613281 288.46875 34.464844 283.617188 L 52.050781 266.023438 C 47.195312 270.886719 47.1875 278.734375 52.050781 283.589844 C 56.886719 288.441406 64.75 288.441406 69.597656 283.578125 L 23.554688 329.632812 C 18.703125 334.476562 18.703125 342.335938 23.554688 347.183594 C 28.398438 352.03125 36.257812 352.03125 41.109375 347.183594 " fill-opacity="1" fill-rule="nonzero"/><path stroke-linecap="round" transform="matrix(0.118737, 0, 0, -0.118757, -69.510065, 442.718971)" fill="none" stroke-linejoin="round" d="M 931.630414 804.460735 L 1713.160231 1586.092017 C 1672.333556 1545.206283 1672.333556 1479.025997 1713.160231 1438.173157 C 1753.986907 1397.386102 1820.210998 1397.386102 1860.971878 1438.173157 L 1277.818251 855.016948 C 1236.925779 814.229893 1236.925779 748.049607 1277.818251 707.163873 C 1318.546232 666.376818 1384.770324 666.376818 1425.629898 707.163873 L 1705.922626 987.574877 C 1665.161746 946.656251 1665.161746 880.508857 1705.922626 839.721802 C 1746.716403 798.96764 1812.973393 798.868962 1853.800068 839.721802 C 1853.800068 839.721802 3326.027753 2312.101596 3340.502964 2326.442851 C 3626.223896 2612.083808 3626.223896 3075.34581 3340.502964 3361.15123 C 3057.150703 3644.555477 2599.174756 3646.792187 2312.927452 3368.091608 C 2312.335285 3367.499538 2311.710219 3366.973254 2311.085153 3366.414076 L 883.072659 1938.340865 C 842.213086 1897.586703 842.147289 1831.340632 882.941066 1790.520684 C 923.80064 1749.700736 990.024732 1749.700736 1030.818509 1790.520684 L 727.891814 1487.545229 C 686.966444 1446.725281 687.065139 1380.512102 727.891814 1339.725047 C 768.685592 1298.872207 834.810989 1298.872207 875.670563 1339.725047 L 1023.778293 1487.874157 C 982.885821 1446.922638 982.820024 1380.84103 1023.778293 1339.955297 C 1064.506274 1299.102456 1130.730365 1299.102456 1171.557041 1340.053975 L 783.785869 952.248024 C 742.926295 911.460969 742.926295 845.280683 783.785869 804.460735 C 824.579646 763.640788 890.77084 763.640788 931.630414 804.460735 Z M 931.630414 804.460735 " stroke="#180d0c" stroke-width="50" stroke-opacity="1" stroke-miterlimit="10"/><path stroke-linecap="round" transform="matrix(0.118737, 0, 0, -0.118757, -69.510065, 442.718971)" fill-opacity="1" fill="#e8b7cb" fill-rule="nonzero" stroke-linejoin="round" d="M 2233.280892 2683.592725 L 1201.066733 1651.41709 " stroke="#180d0c" stroke-width="50" stroke-opacity="1" stroke-miterlimit="10"/><path stroke-linecap="round" transform="matrix(0.118737, 0, 0, -0.118757, -69.510065, 442.718971)" fill-opacity="1" fill="#e8b7cb" fill-rule="nonzero" stroke-linejoin="round" d="M 2666.945063 2250.000016 L 2021.877011 1604.90669 " stroke="#180d0c" stroke-width="50" stroke-opacity="1" stroke-miterlimit="10"/><path stroke-linecap="round" transform="matrix(0.118737, 0, 0, -0.118757, -69.510065, 442.718971)" fill-opacity="1" fill="#e8b7cb" fill-rule="nonzero" stroke-linejoin="round" d="M 2515.21853 1800.289841 L 1662.233806 947.248321 " stroke="#180d0c" stroke-width="50" stroke-opacity="1" stroke-miterlimit="10"/><path fill="#e8b7cb" d="M 341.308594 106.933594 C 341.308594 149.425781 306.863281 183.878906 264.375 183.878906 C 221.886719 183.878906 187.445312 149.425781 187.445312 106.933594 C 187.445312 64.433594 221.886719 29.984375 264.375 29.984375 C 306.863281 29.984375 341.308594 64.433594 341.308594 106.933594 " fill-opacity="1" fill-rule="nonzero"/><path stroke-linecap="round" transform="matrix(0.118737, 0, 0, -0.118757, -69.510065, 442.718971)" fill="none" stroke-linejoin="round" d="M 3459.890559 2827.498665 C 3459.890559 2469.690936 3169.794165 2179.57656 2811.960362 2179.57656 C 2454.126559 2179.57656 2164.063063 2469.690936 2164.063063 2827.498665 C 2164.063063 3185.37218 2454.126559 3475.453663 2811.960362 3475.453663 C 3169.794165 3475.453663 3459.890559 3185.37218 3459.890559 2827.498665 Z M 3459.890559 2827.498665 " stroke="#180d0c" stroke-width="50" stroke-opacity="1" stroke-miterlimit="10"/><path fill="#ffffff" d="M 319.3125 85.160156 C 322.355469 92.144531 322.542969 98.796875 319.730469 100.015625 C 316.921875 101.242188 312.183594 96.574219 309.140625 89.59375 C 306.097656 82.609375 305.917969 75.957031 308.730469 74.734375 C 311.535156 73.507812 316.273438 78.179688 319.3125 85.160156 " fill-opacity="1" fill-rule="nonzero"/><path stroke-linecap="round" transform="matrix(0.118737, 0, 0, -0.118757, -69.510065, 442.718971)" fill="none" stroke-linejoin="round" d="M 3274.640753 3010.843056 C 3300.268456 2952.030754 3301.84757 2896.014339 3278.160861 2885.75179 C 3254.50705 2875.423455 3214.601524 2914.730335 3188.97382 2973.509744 C 3163.346117 3032.322046 3161.832799 3088.338461 3185.519508 3098.633903 C 3209.140421 3108.962238 3249.078845 3069.622465 3274.640753 3010.843056 Z M 3274.640753 3010.843056 " stroke="#180d0c" stroke-width="40" stroke-opacity="1" stroke-miterlimit="10"/><path fill="#6fcfc8" d="M 237.828125 93.558594 C 237.828125 102.40625 232.542969 109.578125 226.03125 109.578125 C 219.511719 109.578125 214.234375 102.40625 214.234375 93.558594 C 214.234375 84.699219 219.511719 77.53125 226.03125 77.53125 C 232.542969 77.53125 237.828125 84.699219 237.828125 93.558594 " fill-opacity="1" fill-rule="nonzero"/><path stroke-linecap="round" transform="matrix(0.118737, 0, 0, -0.118757, -69.510065, 442.718971)" fill="none" stroke-linejoin="round" d="M 2588.384144 2940.123566 C 2588.384144 2865.621405 2543.872869 2805.230249 2489.031557 2805.230249 C 2434.124449 2805.230249 2389.678971 2865.621405 2389.678971 2940.123566 C 2389.678971 3014.724405 2434.124449 3075.082668 2489.031557 3075.082668 C 2543.872869 3075.082668 2588.384144 3014.724405 2588.384144 2940.123566 Z M 2588.384144 2940.123566 " stroke="#180d0c" stroke-width="40" stroke-opacity="1" stroke-miterlimit="10"/><path fill="#ffffff" d="M 253.929688 150.117188 C 257.617188 153.46875 258.597656 158.398438 256.121094 161.109375 C 253.644531 163.832031 248.652344 163.304688 244.96875 159.949219 C 241.277344 156.585938 240.292969 151.65625 242.769531 148.949219 C 245.242188 146.222656 250.238281 146.742188 253.929688 150.117188 " fill-opacity="1" fill-rule="nonzero"/><path stroke-linecap="round" transform="matrix(0.118737, 0, 0, -0.118757, -69.510065, 442.718971)" fill="none" stroke-linejoin="round" d="M 2723.990555 2463.868912 C 2755.046463 2435.646902 2763.303913 2394.136205 2742.44645 2371.308612 C 2721.588986 2348.38234 2679.545077 2352.822866 2648.522067 2381.077769 C 2617.433261 2409.398458 2609.142913 2450.909155 2630.000376 2473.703856 C 2650.824942 2496.66302 2692.901749 2492.28828 2723.990555 2463.868912 Z M 2723.990555 2463.868912 " stroke="#180d0c" stroke-width="40" stroke-opacity="1" stroke-miterlimit="10"/><path fill="#6fcfc8" d="M 295.496094 147.558594 C 300.121094 145.691406 304.992188 146.933594 306.367188 150.339844 C 307.75 153.738281 305.121094 158.019531 300.496094 159.894531 C 295.867188 161.769531 291 160.53125 289.625 157.121094 C 288.242188 153.710938 290.871094 149.433594 295.496094 147.558594 " fill-opacity="1" fill-rule="nonzero"/><path stroke-linecap="round" transform="matrix(0.118737, 0, 0, -0.118757, -69.510065, 442.718971)" fill="none" stroke-linejoin="round" d="M 3074.060381 2485.413687 C 3113.011859 2501.136439 3154.035924 2490.676533 3165.616093 2461.994024 C 3177.262058 2433.3773 3155.121565 2397.326806 3116.170087 2381.538268 C 3077.185711 2365.749731 3036.194545 2376.176744 3024.614376 2404.892147 C 3012.96841 2433.607549 3035.108904 2469.62515 3074.060381 2485.413687 Z M 3074.060381 2485.413687 " stroke="#180d0c" stroke-width="40" stroke-opacity="1" stroke-miterlimit="10"/><path fill="#e8b7cb" d="M 287.796875 112.726562 C 287.796875 119.648438 282.195312 125.257812 275.277344 125.257812 C 268.367188 125.257812 262.761719 119.648438 262.761719 112.726562 C 262.761719 105.824219 268.367188 100.210938 275.277344 100.210938 C 282.195312 100.210938 287.796875 105.824219 287.796875 112.726562 " fill-opacity="1" fill-rule="nonzero"/><path stroke-linecap="round" transform="matrix(0.118737, 0, 0, -0.118757, -69.510065, 442.718971)" fill="none" stroke-linejoin="round" d="M 3009.218014 2778.718663 C 3009.218014 2720.432646 2962.041985 2673.198605 2903.779259 2673.198605 C 2845.58233 2673.198605 2798.373402 2720.432646 2798.373402 2778.718663 C 2798.373402 2836.840217 2845.58233 2884.10715 2903.779259 2884.10715 C 2962.041985 2884.10715 3009.218014 2836.840217 3009.218014 2778.718663 Z M 3009.218014 2778.718663 " stroke="#180d0c" stroke-width="40" stroke-opacity="1" stroke-miterlimit="10"/><path fill="#e8b7cb" d="M 269.804688 77.53125 C 269.804688 81.417969 266.652344 84.566406 262.761719 84.566406 C 258.875 84.566406 255.71875 81.417969 255.71875 77.53125 C 255.71875 73.644531 258.875 70.488281 262.761719 70.488281 C 266.652344 70.488281 269.804688 73.644531 269.804688 77.53125 " fill-opacity="1" fill-rule="nonzero"/><path stroke-linecap="round" transform="matrix(0.118737, 0, 0, -0.118757, -69.510065, 442.718971)" fill="none" stroke-linejoin="round" d="M 2857.688871 3075.082668 C 2857.688871 3042.354345 2831.140017 3015.84276 2798.373402 3015.84276 C 2765.639686 3015.84276 2739.057934 3042.354345 2739.057934 3075.082668 C 2739.057934 3107.81099 2765.639686 3134.388362 2798.373402 3134.388362 C 2831.140017 3134.388362 2857.688871 3107.81099 2857.688871 3075.082668 Z M 2857.688871 3075.082668 " stroke="#180d0c" stroke-width="40" stroke-opacity="1" stroke-miterlimit="10"/><path fill="#ffffff" d="M 314.230469 129.570312 C 314.230469 132.199219 312.097656 134.335938 309.472656 134.335938 C 306.839844 134.335938 304.710938 132.199219 304.710938 129.570312 C 304.710938 126.949219 306.839844 124.8125 309.472656 124.8125 C 312.097656 124.8125 314.230469 126.949219 314.230469 129.570312 " fill-opacity="1" fill-rule="nonzero"/><path stroke-linecap="round" transform="matrix(0.118737, 0, 0, -0.118757, -69.510065, 442.718971)" fill="none" stroke-linejoin="round" d="M 3231.840185 2636.884968 C 3231.840185 2614.748123 3213.877763 2596.755769 3191.770168 2596.755769 C 3169.596776 2596.755769 3151.667253 2614.748123 3151.667253 2636.884968 C 3151.667253 2658.956028 3169.596776 2676.948382 3191.770168 2676.948382 C 3213.877763 2676.948382 3231.840185 2658.956028 3231.840185 2636.884968 Z M 3231.840185 2636.884968 " stroke="#180d0c" stroke-width="40" stroke-opacity="1" stroke-miterlimit="10"/></svg>