<svg xmlns="http://www.w3.org/2000/svg" xmlns:xlink="http://www.w3.org/1999/xlink" width="500" zoomAndPan="magnify" viewBox="0 0 375 374.999991" height="500" preserveAspectRatio="xMidYMid meet" version="1.0"><defs><clipPath id="846aa68e19"><path d="M 213 223 L 305 223 L 305 300 L 213 300 Z M 213 223 " clip-rule="nonzero"/></clipPath><clipPath id="8657bae47a"><path d="M 208.851562 232.65625 L 301.949219 221.613281 L 309.988281 289.386719 L 216.890625 300.429688 Z M 208.851562 232.65625 " clip-rule="nonzero"/></clipPath><clipPath id="761ab7c13a"><path d="M 208.851562 232.65625 L 301.949219 221.613281 L 309.988281 289.386719 L 216.890625 300.429688 Z M 208.851562 232.65625 " clip-rule="nonzero"/></clipPath><clipPath id="ef90df4021"><path d="M 208.851562 232.65625 L 301.949219 221.613281 L 309.988281 289.386719 L 216.890625 300.429688 Z M 208.851562 232.65625 " clip-rule="nonzero"/></clipPath><clipPath id="0ded8dd9ff"><path d="M 218 228 L 299 228 L 299 296 L 218 296 Z M 218 228 " clip-rule="nonzero"/></clipPath><clipPath id="f2dbe218ab"><path d="M 208.851562 232.65625 L 301.949219 221.613281 L 309.988281 289.386719 L 216.890625 300.429688 Z M 208.851562 232.65625 " clip-rule="nonzero"/></clipPath><clipPath id="24a56f3e74"><path d="M 208.851562 232.65625 L 301.949219 221.613281 L 309.988281 289.386719 L 216.890625 300.429688 Z M 208.851562 232.65625 " clip-rule="nonzero"/></clipPath><clipPath id="f64a05c4ab"><path d="M 208.851562 232.65625 L 301.949219 221.613281 L 309.988281 289.386719 L 216.890625 300.429688 Z M 208.851562 232.65625 " clip-rule="nonzero"/></clipPath><clipPath id="b2e24b9268"><path d="M 286.523438 246 L 360 246 L 360 319.339844 L 286.523438 319.339844 Z M 286.523438 246 " clip-rule="nonzero"/></clipPath><clipPath id="9f63dcfa3e"><path d="M 218 297.324219 L 305.566406 297.324219 L 305.566406 365.574219 L 218 365.574219 Z M 218 297.324219 " clip-rule="nonzero"/></clipPath></defs><g clip-path="url(#846aa68e19)"><g clip-path="url(#8657bae47a)"><g clip-path="url(#761ab7c13a)"><g clip-path="url(#ef90df4021)"><path fill="#002ef4" d="M 301.152344 250.242188 L 294.007812 248.996094 C 292.425781 253.824219 290.335938 258.476562 287.769531 262.875 C 283.941406 269.445312 279.125 275.355469 273.449219 280.433594 C 263.253906 289.566406 250.765625 295.597656 237.34375 297.871094 C 236.140625 298.074219 234.921875 298.25 233.699219 298.394531 C 233.007812 298.476562 232.308594 298.550781 231.617188 298.613281 L 223.082031 299.382812 C 221.417969 299.53125 219.945312 298.300781 219.796875 296.632812 L 218.84375 286.078125 L 218.195312 286.132812 C 216.53125 286.269531 215.070312 285.027344 214.929688 283.363281 L 213.726562 268.8125 C 213.589844 267.144531 214.828125 265.683594 216.492188 265.542969 L 221.496094 265.132812 C 240.523438 261.996094 256.039062 249.121094 262.664062 231.167969 C 263.222656 229.65625 264.863281 228.847656 266.398438 229.328125 L 277.28125 232.714844 L 287.148438 224.453125 C 288.585938 223.253906 290.757812 223.632812 291.703125 225.253906 L 303.945312 246.222656 C 305.101562 248.207031 303.410156 250.640625 301.152344 250.242188 Z M 301.152344 250.242188 " fill-opacity="1" fill-rule="nonzero"/></g></g></g></g><g clip-path="url(#0ded8dd9ff)"><g clip-path="url(#f2dbe218ab)"><g clip-path="url(#24a56f3e74)"><g clip-path="url(#f64a05c4ab)"><path fill="#000000" d="M 298.105469 244 L 289.46875 229.203125 C 289.316406 228.9375 289.054688 228.757812 288.753906 228.707031 C 288.457031 228.652344 288.148438 228.734375 287.914062 228.929688 L 274.78125 239.921875 C 274.472656 240.175781 274.34375 240.59375 274.445312 240.980469 C 274.550781 241.367188 274.871094 241.660156 275.265625 241.730469 L 281.046875 242.742188 C 274.324219 265.929688 254.535156 282.246094 230.335938 284.417969 L 223.722656 285.011719 C 223.449219 285.039062 223.199219 285.167969 223.023438 285.378906 C 222.847656 285.585938 222.761719 285.859375 222.785156 286.132812 L 223.527344 294.363281 C 223.550781 294.636719 223.683594 294.886719 223.894531 295.0625 C 224.105469 295.238281 224.375 295.324219 224.648438 295.300781 L 231.261719 294.703125 C 231.921875 294.644531 232.578125 294.578125 233.238281 294.5 C 234.394531 294.363281 235.546875 294.195312 236.6875 294.003906 C 249.378906 291.847656 261.191406 286.144531 270.835938 277.507812 C 276.203125 272.699219 280.757812 267.113281 284.382812 260.894531 C 287.378906 255.757812 289.6875 250.257812 291.257812 244.53125 L 297.035156 245.539062 C 297.429688 245.609375 297.828125 245.441406 298.058594 245.113281 C 298.289062 244.78125 298.308594 244.347656 298.105469 244 Z M 290.683594 242.328125 C 290.152344 242.238281 289.640625 242.566406 289.507812 243.085938 C 287.984375 248.964844 285.660156 254.605469 282.605469 259.851562 C 279.089844 265.882812 274.667969 271.304688 269.460938 275.964844 C 260.105469 284.34375 248.65625 289.875 236.34375 291.964844 C 234.609375 292.257812 232.839844 292.488281 231.082031 292.644531 L 225.492188 293.148438 L 224.9375 286.976562 L 230.523438 286.472656 C 242.972656 285.355469 254.546875 280.5625 264.003906 272.613281 C 273.425781 264.695312 280.113281 254.171875 283.34375 242.191406 C 283.421875 241.910156 283.375 241.609375 283.21875 241.367188 C 283.066406 241.121094 282.8125 240.953125 282.527344 240.902344 L 277.8125 240.078125 L 288.304688 231.300781 L 295.207031 243.121094 Z M 221.132812 276.6875 L 221.507812 279.625 C 221.539062 279.894531 221.46875 280.148438 221.300781 280.363281 C 221.136719 280.578125 220.90625 280.710938 220.640625 280.746094 C 220.636719 280.746094 220.636719 280.746094 220.632812 280.746094 C 220.367188 280.777344 220.113281 280.707031 219.902344 280.539062 C 219.6875 280.375 219.554688 280.144531 219.523438 279.878906 L 218.433594 271.234375 C 218.398438 270.964844 218.46875 270.710938 218.636719 270.496094 C 218.804688 270.28125 219.03125 270.148438 219.300781 270.113281 C 219.5625 270.082031 219.820312 270.152344 220.035156 270.320312 C 220.25 270.484375 220.382812 270.714844 220.417969 270.984375 L 220.789062 273.929688 L 223.941406 269.859375 C 224.042969 269.730469 224.144531 269.636719 224.253906 269.574219 C 224.371094 269.503906 224.5 269.460938 224.644531 269.441406 C 224.644531 269.441406 224.648438 269.441406 224.652344 269.441406 C 225.03125 269.398438 225.273438 269.542969 225.414062 269.675781 C 225.589844 269.839844 225.691406 270.0625 225.71875 270.3125 C 225.738281 270.5625 225.675781 270.800781 225.527344 271.03125 L 225.503906 271.0625 L 222.832031 274.503906 L 226.519531 278.402344 C 226.695312 278.601562 226.789062 278.832031 226.796875 279.074219 C 226.800781 279.3125 226.726562 279.535156 226.582031 279.722656 C 226.425781 279.921875 226.210938 280.046875 225.960938 280.078125 C 225.613281 280.132812 225.300781 280.007812 225.082031 279.753906 L 221.597656 276.09375 Z M 225.960938 270.230469 C 225.886719 269.964844 225.917969 269.699219 226.046875 269.46875 C 226.175781 269.234375 226.386719 269.074219 226.65625 269 L 232.25 267.449219 C 232.503906 267.382812 232.753906 267.40625 232.984375 267.523438 C 233.230469 267.648438 233.402344 267.859375 233.476562 268.136719 C 233.550781 268.390625 233.511719 268.652344 233.375 268.886719 C 233.238281 269.113281 233.03125 269.273438 232.773438 269.34375 L 228.140625 270.625 L 228.777344 272.929688 L 232.015625 272.03125 C 232.28125 271.957031 232.542969 271.988281 232.777344 272.117188 C 233.007812 272.25 233.167969 272.457031 233.238281 272.71875 C 233.3125 272.976562 233.28125 273.238281 233.148438 273.46875 C 233.019531 273.699219 232.804688 273.859375 232.539062 273.9375 L 229.300781 274.832031 L 229.949219 277.167969 L 234.582031 275.882812 C 234.835938 275.8125 235.09375 275.84375 235.328125 275.964844 C 235.570312 276.097656 235.734375 276.300781 235.804688 276.558594 C 235.882812 276.832031 235.84375 277.101562 235.699219 277.335938 C 235.5625 277.554688 235.355469 277.703125 235.105469 277.773438 L 229.511719 279.324219 C 229.457031 279.339844 229.402344 279.347656 229.34375 279.355469 C 229.132812 279.378906 228.929688 279.339844 228.746094 279.234375 C 228.519531 279.105469 228.355469 278.894531 228.28125 278.628906 Z M 233.691406 268.019531 C 233.578125 267.765625 233.570312 267.5 233.664062 267.25 C 233.757812 267 233.945312 266.8125 234.199219 266.699219 L 239.503906 264.332031 C 239.742188 264.226562 239.996094 264.214844 240.238281 264.296875 C 240.5 264.382812 240.699219 264.566406 240.816406 264.828125 C 240.921875 265.070312 240.925781 265.332031 240.824219 265.585938 C 240.722656 265.832031 240.542969 266.019531 240.300781 266.125 L 235.910156 268.082031 L 236.878906 270.261719 L 239.949219 268.898438 C 240.199219 268.785156 240.464844 268.773438 240.714844 268.871094 C 240.960938 268.964844 241.152344 269.148438 241.261719 269.394531 C 241.371094 269.640625 241.378906 269.902344 241.285156 270.152344 C 241.1875 270.398438 241.003906 270.589844 240.75 270.703125 L 237.679688 272.070312 L 238.667969 274.285156 L 243.058594 272.332031 C 243.300781 272.222656 243.558594 272.210938 243.808594 272.300781 C 244.066406 272.394531 244.257812 272.574219 244.367188 272.8125 C 244.484375 273.078125 244.488281 273.347656 244.378906 273.601562 C 244.273438 273.835938 244.09375 274.015625 243.855469 274.121094 L 238.550781 276.484375 C 238.449219 276.53125 238.347656 276.558594 238.246094 276.570312 C 238.089844 276.589844 237.933594 276.570312 237.785156 276.511719 C 237.539062 276.417969 237.34375 276.234375 237.230469 275.976562 Z M 245.628906 272.035156 C 245.777344 272.269531 245.992188 272.425781 246.25 272.484375 C 246.363281 272.511719 246.472656 272.515625 246.582031 272.503906 C 246.726562 272.484375 246.871094 272.4375 247.003906 272.351562 C 247.238281 272.203125 247.398438 271.988281 247.457031 271.730469 C 247.515625 271.472656 247.46875 271.207031 247.320312 270.972656 L 246.039062 268.921875 L 247.292969 268.136719 C 247.886719 267.769531 248.339844 267.296875 248.636719 266.742188 C 248.9375 266.183594 249.074219 265.582031 249.046875 264.953125 C 249.023438 264.332031 248.820312 263.714844 248.457031 263.132812 C 248.082031 262.535156 247.613281 262.074219 247.0625 261.773438 C 246.511719 261.46875 245.90625 261.328125 245.273438 261.355469 C 244.644531 261.378906 244.023438 261.578125 243.433594 261.949219 L 241.332031 263.261719 C 241.09375 263.410156 240.9375 263.625 240.878906 263.886719 C 240.816406 264.144531 240.867188 264.40625 241.011719 264.640625 Z M 247.066406 265.035156 C 247.082031 265.320312 247.019531 265.578125 246.882812 265.828125 C 246.746094 266.085938 246.539062 266.296875 246.257812 266.472656 L 245.003906 267.257812 L 243.21875 264.398438 L 244.472656 263.617188 C 244.753906 263.441406 245.035156 263.351562 245.324219 263.339844 C 245.613281 263.328125 245.878906 263.390625 246.128906 263.527344 C 246.386719 263.667969 246.597656 263.878906 246.785156 264.179688 C 246.964844 264.460938 247.054688 264.742188 247.066406 265.035156 Z M 249.742188 258.578125 C 249.5625 258.367188 249.476562 258.117188 249.492188 257.851562 C 249.511719 257.585938 249.632812 257.351562 249.84375 257.167969 C 250.050781 256.984375 250.300781 256.898438 250.566406 256.917969 C 250.832031 256.933594 251.070312 257.058594 251.25 257.265625 L 256.960938 263.84375 C 257.144531 264.054688 257.230469 264.304688 257.210938 264.570312 C 257.195312 264.835938 257.074219 265.070312 256.863281 265.253906 C 256.703125 265.394531 256.519531 265.476562 256.324219 265.5 C 256.261719 265.507812 256.203125 265.511719 256.140625 265.507812 C 255.875 265.488281 255.636719 265.367188 255.457031 265.15625 Z M 251.363281 257.339844 C 251.167969 257.152344 251.058594 256.921875 251.050781 256.664062 C 251.046875 256.410156 251.140625 256.171875 251.324219 255.976562 L 252.984375 254.214844 L 256.019531 250.988281 C 256.207031 250.792969 256.4375 250.6875 256.691406 250.679688 C 256.949219 250.671875 257.183594 250.765625 257.378906 250.953125 C 257.570312 251.128906 257.675781 251.359375 257.683594 251.613281 C 257.691406 251.871094 257.597656 252.105469 257.410156 252.304688 L 255.746094 254.074219 L 261.414062 259.425781 C 261.605469 259.609375 261.714844 259.84375 261.730469 260.109375 C 261.746094 260.382812 261.648438 260.632812 261.457031 260.839844 C 261.292969 261.011719 261.085938 261.117188 260.855469 261.144531 C 260.824219 261.148438 260.789062 261.148438 260.757812 261.152344 C 260.492188 261.160156 260.242188 261.066406 260.046875 260.878906 L 254.375 255.527344 L 252.714844 257.289062 C 252.53125 257.488281 252.300781 257.59375 252.042969 257.601562 C 251.789062 257.609375 251.554688 257.519531 251.363281 257.339844 Z M 258.894531 247.765625 C 258.828125 247.507812 258.867188 247.246094 259.007812 247.007812 C 259.152344 246.769531 259.359375 246.609375 259.617188 246.542969 C 259.878906 246.476562 260.140625 246.519531 260.378906 246.660156 L 265.53125 249.722656 C 265.863281 249.917969 266.195312 250.007812 266.539062 249.992188 C 266.890625 249.976562 267.222656 249.863281 267.550781 249.648438 C 267.886719 249.421875 268.183594 249.101562 268.425781 248.6875 C 268.667969 248.28125 268.804688 247.875 268.835938 247.480469 C 268.867188 247.09375 268.804688 246.75 268.652344 246.429688 C 268.5 246.121094 268.261719 245.875 267.929688 245.675781 L 262.777344 242.613281 C 262.539062 242.472656 262.378906 242.257812 262.3125 242 C 262.246094 241.746094 262.285156 241.480469 262.425781 241.242188 C 262.613281 240.929688 262.867188 240.8125 263.050781 240.769531 C 263.304688 240.710938 263.558594 240.753906 263.792969 240.894531 L 268.949219 243.957031 C 269.597656 244.34375 270.089844 244.855469 270.40625 245.488281 C 270.722656 246.109375 270.855469 246.796875 270.804688 247.53125 C 270.757812 248.25 270.519531 248.972656 270.101562 249.679688 C 269.679688 250.394531 269.15625 250.953125 268.546875 251.347656 C 268.019531 251.691406 267.457031 251.894531 266.875 251.964844 C 266.769531 251.976562 266.664062 251.988281 266.554688 251.988281 C 265.851562 252.011719 265.164062 251.828125 264.511719 251.4375 L 259.359375 248.375 C 259.121094 248.234375 258.960938 248.023438 258.894531 247.765625 Z M 264.109375 240.035156 L 272.1875 243.28125 C 272.351562 243.347656 272.523438 243.371094 272.683594 243.351562 C 272.777344 243.339844 272.867188 243.316406 272.953125 243.28125 C 273.195312 243.175781 273.382812 242.984375 273.484375 242.730469 L 273.484375 242.726562 C 273.585938 242.46875 273.585938 242.203125 273.480469 241.960938 C 273.378906 241.714844 273.1875 241.53125 272.929688 241.425781 L 270.683594 240.523438 L 271.234375 239.152344 C 271.492188 238.503906 271.582031 237.855469 271.496094 237.230469 C 271.410156 236.601562 271.167969 236.035156 270.777344 235.542969 C 270.386719 235.054688 269.863281 234.679688 269.222656 234.421875 C 268.582031 234.164062 267.949219 234.070312 267.339844 234.140625 C 267.328125 234.144531 267.3125 234.144531 267.300781 234.148438 C 266.675781 234.230469 266.105469 234.46875 265.605469 234.867188 C 265.113281 235.257812 264.730469 235.789062 264.472656 236.433594 L 263.550781 238.734375 C 263.445312 238.992188 263.445312 239.257812 263.550781 239.503906 C 263.660156 239.75 263.851562 239.933594 264.109375 240.035156 Z M 266.820312 236.441406 C 267.046875 236.261719 267.296875 236.15625 267.578125 236.117188 C 267.871094 236.082031 268.167969 236.125 268.492188 236.257812 C 268.804688 236.382812 269.042969 236.550781 269.226562 236.777344 C 269.402344 237 269.507812 237.246094 269.542969 237.53125 C 269.582031 237.820312 269.542969 238.113281 269.414062 238.421875 L 268.867188 239.792969 L 265.742188 238.539062 L 266.292969 237.167969 C 266.417969 236.859375 266.589844 236.621094 266.820312 236.441406 Z M 266.820312 236.441406 " fill-opacity="1" fill-rule="nonzero"/></g></g></g></g><g clip-path="url(#b2e24b9268)"><path fill="#ffb3f7" d="M 359.382812 286.628906 C 360.023438 287.703125 359.804688 289.082031 358.863281 289.90625 L 356.496094 291.988281 C 355.777344 292.617188 355.464844 293.585938 355.675781 294.511719 L 356.371094 297.589844 C 356.644531 298.8125 356.011719 300.054688 354.863281 300.550781 L 351.964844 301.796875 C 351.089844 302.171875 350.492188 302.996094 350.40625 303.941406 L 350.113281 307.082031 C 350 308.328125 349.011719 309.316406 347.765625 309.429688 L 344.625 309.71875 C 343.679688 309.808594 342.855469 310.40625 342.480469 311.28125 L 341.234375 314.179688 C 340.738281 315.328125 339.496094 315.960938 338.273438 315.683594 L 335.195312 314.992188 C 334.269531 314.78125 333.300781 315.097656 332.671875 315.808594 L 330.589844 318.179688 C 329.765625 319.121094 328.386719 319.339844 327.3125 318.699219 L 324.601562 317.085938 C 323.78125 316.601562 322.765625 316.601562 321.945312 317.085938 L 319.234375 318.699219 C 318.160156 319.339844 316.78125 319.121094 315.957031 318.179688 L 313.875 315.808594 C 313.246094 315.09375 312.277344 314.78125 311.351562 314.992188 L 308.273438 315.683594 C 307.050781 315.960938 305.808594 315.328125 305.3125 314.179688 L 304.066406 311.28125 C 303.691406 310.40625 302.867188 309.808594 301.921875 309.71875 L 298.78125 309.429688 C 297.535156 309.316406 296.546875 308.328125 296.433594 307.082031 L 296.144531 303.941406 C 296.054688 302.996094 295.457031 302.171875 294.582031 301.796875 L 291.683594 300.550781 C 290.535156 300.054688 289.902344 298.8125 290.179688 297.589844 L 290.871094 294.511719 C 291.082031 293.585938 290.765625 292.617188 290.054688 291.988281 L 287.679688 289.90625 C 286.742188 289.082031 286.523438 287.703125 287.160156 286.628906 L 288.773438 283.917969 C 289.257812 283.097656 289.257812 282.082031 288.773438 281.261719 L 287.160156 278.550781 C 286.523438 277.472656 286.742188 276.097656 287.679688 275.269531 L 290.050781 273.1875 C 290.765625 272.5625 291.082031 271.59375 290.871094 270.664062 L 290.175781 267.585938 C 289.902344 266.367188 290.535156 265.125 291.683594 264.628906 L 294.582031 263.382812 C 295.457031 263.007812 296.054688 262.183594 296.140625 261.234375 L 296.429688 258.09375 C 296.546875 256.851562 297.53125 255.863281 298.777344 255.746094 L 301.921875 255.457031 C 302.867188 255.371094 303.691406 254.769531 304.066406 253.898438 L 305.3125 251 C 305.808594 249.851562 307.050781 249.21875 308.269531 249.492188 L 311.347656 250.1875 C 312.277344 250.394531 313.246094 250.082031 313.871094 249.367188 L 315.953125 246.996094 C 316.78125 246.058594 318.15625 245.839844 319.234375 246.476562 L 321.945312 248.089844 C 322.761719 248.574219 323.78125 248.574219 324.597656 248.089844 L 327.3125 246.476562 C 328.386719 245.839844 329.765625 246.058594 330.589844 246.996094 L 332.671875 249.367188 C 333.296875 250.082031 334.265625 250.398438 335.195312 250.1875 L 338.273438 249.492188 C 339.492188 249.214844 340.738281 249.851562 341.230469 251 L 342.476562 253.898438 C 342.851562 254.773438 343.675781 255.371094 344.625 255.457031 L 347.765625 255.746094 C 349.011719 255.863281 349.996094 256.847656 350.113281 258.09375 L 350.402344 261.234375 C 350.488281 262.183594 351.089844 263.007812 351.960938 263.382812 L 354.859375 264.628906 C 356.007812 265.125 356.640625 266.367188 356.367188 267.585938 L 355.671875 270.664062 C 355.464844 271.59375 355.777344 272.5625 356.492188 273.1875 L 358.863281 275.269531 C 359.804688 276.097656 360.019531 277.472656 359.382812 278.550781 L 357.769531 281.261719 C 357.285156 282.078125 357.285156 283.097656 357.769531 283.914062 Z M 359.382812 286.628906 " fill-opacity="1" fill-rule="nonzero"/></g><path fill="#000000" d="M 308.394531 279.496094 C 308.332031 279.839844 308.464844 280.1875 308.746094 280.394531 L 316.023438 285.824219 L 315.675781 294.898438 C 315.664062 295.246094 315.851562 295.574219 316.15625 295.738281 C 316.292969 295.8125 316.441406 295.847656 316.59375 295.847656 C 316.777344 295.847656 316.964844 295.789062 317.121094 295.679688 L 324.535156 290.433594 L 333.058594 293.566406 C 333.382812 293.6875 333.75 293.613281 334.003906 293.371094 C 334.257812 293.132812 334.351562 292.769531 334.246094 292.4375 L 331.550781 283.765625 L 337.164062 276.628906 C 337.378906 276.355469 337.421875 275.980469 337.269531 275.667969 C 337.121094 275.351562 336.804688 275.152344 336.457031 275.148438 L 327.375 275.035156 L 322.324219 267.488281 C 322.128906 267.199219 321.789062 267.046875 321.445312 267.089844 C 321.097656 267.136719 320.808594 267.375 320.699219 267.703125 L 317.78125 276.304688 L 309.046875 278.78125 C 308.707031 278.875 308.457031 279.152344 308.394531 279.496094 Z M 318.742188 277.9375 C 319.035156 277.855469 319.265625 277.632812 319.363281 277.347656 L 321.835938 270.050781 L 326.125 276.453125 C 326.292969 276.703125 326.574219 276.855469 326.875 276.859375 L 334.582031 276.957031 L 329.816406 283.015625 C 329.632812 283.25 329.574219 283.566406 329.664062 283.851562 L 331.953125 291.210938 L 324.71875 288.550781 C 324.4375 288.449219 324.121094 288.488281 323.875 288.664062 L 317.582031 293.113281 L 317.875 285.414062 C 317.886719 285.113281 317.75 284.824219 317.507812 284.644531 L 311.328125 280.035156 Z M 318.921875 280.664062 C 318.835938 280.023438 319.285156 279.4375 319.921875 279.355469 C 320.558594 279.269531 321.144531 279.71875 321.230469 280.355469 C 321.3125 280.992188 320.863281 281.578125 320.226562 281.664062 C 319.589844 281.75 319.003906 281.300781 318.921875 280.664062 Z M 325.101562 279.84375 C 325.019531 279.207031 325.464844 278.621094 326.101562 278.535156 C 326.742188 278.453125 327.328125 278.898438 327.410156 279.535156 C 327.492188 280.175781 327.046875 280.761719 326.410156 280.84375 C 325.773438 280.929688 325.1875 280.480469 325.101562 279.84375 Z M 323.273438 252.601562 C 306.738281 252.601562 293.285156 266.054688 293.285156 282.589844 C 293.285156 299.125 306.738281 312.578125 323.273438 312.578125 C 339.808594 312.578125 353.261719 299.125 353.261719 282.589844 C 353.261719 266.054688 339.808594 252.601562 323.273438 252.601562 Z M 323.273438 310.746094 C 307.746094 310.746094 295.117188 298.117188 295.117188 282.589844 C 295.117188 267.066406 307.746094 254.433594 323.273438 254.433594 C 338.796875 254.433594 351.429688 267.066406 351.429688 282.589844 C 351.429688 298.117188 338.800781 310.746094 323.273438 310.746094 Z M 322.023438 281.882812 C 322.523438 281.816406 322.984375 282.167969 323.050781 282.667969 C 323.070312 282.832031 323.167969 282.925781 323.222656 282.96875 C 323.277344 283.011719 323.394531 283.082031 323.558594 283.058594 C 323.804688 283.027344 323.980469 282.796875 323.945312 282.550781 C 323.882812 282.050781 324.234375 281.589844 324.734375 281.523438 C 325.234375 281.457031 325.695312 281.808594 325.761719 282.308594 C 325.84375 282.914062 325.683594 283.511719 325.3125 284 C 324.941406 284.480469 324.402344 284.792969 323.796875 284.875 C 323.695312 284.886719 323.59375 284.894531 323.492188 284.894531 C 322.992188 284.894531 322.511719 284.730469 322.109375 284.421875 C 321.625 284.050781 321.3125 283.515625 321.234375 282.910156 C 321.167969 282.410156 321.523438 281.949219 322.023438 281.882812 Z M 308.957031 262.195312 C 308.847656 261.988281 308.824219 261.761719 308.890625 261.550781 C 308.957031 261.339844 309.101562 261.167969 309.308594 261.058594 L 313.492188 258.863281 C 313.699219 258.753906 313.921875 258.734375 314.136719 258.800781 C 314.351562 258.867188 314.519531 259.011719 314.628906 259.21875 C 314.734375 259.421875 314.753906 259.640625 314.6875 259.855469 C 314.625 260.070312 314.476562 260.238281 314.269531 260.347656 L 312.941406 261.042969 L 315.355469 265.644531 C 315.464844 265.851562 315.488281 266.074219 315.421875 266.292969 C 315.355469 266.523438 315.207031 266.707031 314.992188 266.816406 C 314.863281 266.882812 314.730469 266.917969 314.59375 266.917969 C 314.503906 266.917969 314.414062 266.902344 314.332031 266.875 C 314.105469 266.804688 313.929688 266.660156 313.820312 266.453125 L 311.40625 261.847656 L 310.085938 262.542969 C 309.878906 262.652344 309.65625 262.671875 309.441406 262.605469 C 309.230469 262.539062 309.0625 262.398438 308.957031 262.195312 Z M 305.835938 275.484375 L 300.609375 272.527344 C 300.402344 272.410156 300.261719 272.230469 300.199219 272.003906 C 300.136719 271.777344 300.164062 271.546875 300.28125 271.34375 C 300.394531 271.140625 300.574219 271 300.804688 270.9375 C 301.03125 270.875 301.257812 270.902344 301.460938 271.015625 L 305.960938 273.5625 L 307.34375 271.121094 C 307.453125 270.925781 307.625 270.785156 307.835938 270.714844 C 307.890625 270.699219 307.945312 270.683594 308 270.679688 L 304.164062 266.746094 C 303.996094 266.574219 303.910156 266.363281 303.914062 266.128906 C 303.914062 265.898438 304.007812 265.6875 304.179688 265.519531 L 307.046875 262.722656 C 307.210938 262.566406 307.410156 262.476562 307.632812 262.46875 C 307.867188 262.460938 308.09375 262.550781 308.269531 262.730469 C 308.429688 262.898438 308.511719 263.109375 308.503906 263.347656 C 308.496094 263.578125 308.40625 263.785156 308.242188 263.945312 L 305.992188 266.136719 L 306.894531 267.058594 L 308.425781 265.566406 C 308.59375 265.402344 308.804688 265.3125 309.035156 265.3125 C 309.035156 265.3125 309.035156 265.3125 309.039062 265.3125 C 309.273438 265.316406 309.480469 265.40625 309.644531 265.574219 C 309.808594 265.742188 309.890625 265.953125 309.890625 266.183594 C 309.886719 266.414062 309.792969 266.625 309.625 266.792969 L 308.089844 268.289062 L 309.007812 269.230469 L 311.257812 267.039062 C 311.417969 266.878906 311.628906 266.792969 311.855469 266.789062 C 312.109375 266.792969 312.3125 266.878906 312.472656 267.039062 C 312.644531 267.21875 312.730469 267.4375 312.714844 267.679688 C 312.703125 267.902344 312.609375 268.101562 312.449219 268.257812 L 309.582031 271.058594 C 309.414062 271.222656 309.203125 271.308594 308.980469 271.308594 C 308.957031 271.308594 308.933594 271.308594 308.914062 271.304688 C 308.914062 271.3125 308.917969 271.316406 308.917969 271.324219 C 308.96875 271.542969 308.9375 271.757812 308.824219 271.953125 L 307.015625 275.152344 C 306.902344 275.351562 306.726562 275.492188 306.507812 275.558594 C 306.429688 275.582031 306.34375 275.597656 306.261719 275.597656 C 306.117188 275.597656 305.96875 275.558594 305.835938 275.484375 Z M 347.460938 290.820312 C 347.386719 291.042969 347.234375 291.21875 347.023438 291.320312 C 346.8125 291.425781 346.582031 291.4375 346.363281 291.363281 L 341.441406 289.6875 L 340.960938 291.097656 C 340.917969 291.21875 340.855469 291.324219 340.773438 291.414062 C 340.878906 291.464844 340.957031 291.535156 341.015625 291.59375 C 341.175781 291.769531 341.25 291.992188 341.230469 292.234375 L 341.226562 292.269531 C 341.1875 292.503906 341.070312 292.699219 340.886719 292.835938 C 340.714844 292.972656 340.507812 293.035156 340.285156 293.019531 C 340.191406 293.015625 340.074219 293.03125 339.949219 293.058594 C 339.847656 293.085938 339.742188 293.132812 339.640625 293.203125 C 339.53125 293.28125 339.417969 293.398438 339.304688 293.558594 C 339.121094 293.828125 339.027344 294.078125 339.027344 294.296875 C 339.027344 294.453125 339.09375 294.5625 339.25 294.671875 C 339.324219 294.722656 339.402344 294.75 339.496094 294.753906 C 339.582031 294.757812 339.703125 294.71875 339.847656 294.640625 C 340.027344 294.539062 340.234375 294.359375 340.46875 294.105469 C 341.03125 293.496094 341.613281 293.128906 342.191406 293.011719 C 342.808594 292.886719 343.40625 293.019531 343.964844 293.40625 C 344.285156 293.625 344.53125 293.882812 344.703125 294.175781 C 344.878906 294.472656 344.984375 294.796875 345.007812 295.136719 C 345.03125 295.460938 344.992188 295.792969 344.890625 296.128906 C 344.792969 296.449219 344.636719 296.765625 344.433594 297.0625 C 344.195312 297.40625 343.917969 297.699219 343.609375 297.929688 C 343.292969 298.167969 342.957031 298.335938 342.601562 298.429688 C 342.378906 298.492188 342.148438 298.523438 341.925781 298.523438 C 341.792969 298.523438 341.65625 298.511719 341.523438 298.488281 C 341.261719 298.453125 341.039062 298.296875 340.921875 298.058594 C 340.851562 297.914062 340.789062 297.679688 340.890625 297.378906 C 340.960938 297.175781 341.101562 297.007812 341.296875 296.902344 C 341.472656 296.808594 341.671875 296.773438 341.867188 296.800781 C 341.972656 296.816406 342.089844 296.800781 342.21875 296.761719 C 342.355469 296.71875 342.496094 296.644531 342.628906 296.539062 C 342.773438 296.425781 342.910156 296.277344 343.03125 296.097656 C 343.164062 295.910156 343.246094 295.726562 343.28125 295.550781 C 343.3125 295.398438 343.304688 295.265625 343.257812 295.140625 C 343.214844 295.027344 343.128906 294.925781 342.996094 294.835938 C 342.824219 294.71875 342.65625 294.683594 342.445312 294.726562 C 342.210938 294.773438 341.949219 294.957031 341.664062 295.277344 C 341.148438 295.859375 340.589844 296.230469 339.996094 296.378906 C 339.355469 296.535156 338.761719 296.433594 338.234375 296.070312 C 337.855469 295.808594 337.589844 295.472656 337.445312 295.066406 C 337.308594 294.679688 337.28125 294.257812 337.371094 293.816406 C 337.453125 293.398438 337.636719 292.984375 337.917969 292.578125 C 338.128906 292.265625 338.382812 292.011719 338.664062 291.820312 C 338.9375 291.632812 339.230469 291.496094 339.527344 291.414062 C 339.535156 291.414062 339.546875 291.410156 339.554688 291.40625 C 339.496094 291.347656 339.449219 291.277344 339.410156 291.203125 C 339.3125 291 339.300781 290.777344 339.375 290.558594 L 340.898438 286.085938 C 340.976562 285.867188 341.121094 285.695312 341.320312 285.597656 C 341.523438 285.5 341.746094 285.484375 341.96875 285.5625 C 342.183594 285.636719 342.351562 285.78125 342.449219 285.980469 C 342.546875 286.183594 342.558594 286.40625 342.484375 286.628906 L 342 288.046875 L 346.921875 289.722656 C 347.136719 289.796875 347.308594 289.945312 347.414062 290.144531 C 347.523438 290.355469 347.539062 290.589844 347.460938 290.820312 Z M 332.984375 266.183594 C 333.03125 266.683594 333.183594 267.167969 333.429688 267.625 C 333.679688 268.078125 334.023438 268.488281 334.460938 268.84375 C 334.894531 269.195312 335.367188 269.449219 335.863281 269.597656 C 336.230469 269.710938 336.605469 269.765625 336.980469 269.765625 C 337.109375 269.765625 337.238281 269.761719 337.363281 269.746094 C 337.867188 269.695312 338.351562 269.542969 338.804688 269.292969 C 339.253906 269.042969 339.664062 268.695312 340.019531 268.257812 C 340.371094 267.828125 340.625 267.359375 340.773438 266.867188 C 340.929688 266.371094 340.976562 265.867188 340.929688 265.363281 C 340.875 264.863281 340.726562 264.378906 340.476562 263.921875 C 340.230469 263.46875 339.882812 263.058594 339.453125 262.707031 C 339.015625 262.351562 338.542969 262.097656 338.046875 261.949219 C 337.550781 261.800781 337.046875 261.75 336.546875 261.804688 C 336.046875 261.855469 335.5625 262.011719 335.109375 262.261719 C 334.65625 262.511719 334.253906 262.855469 333.902344 263.285156 C 333.546875 263.722656 333.289062 264.191406 333.136719 264.683594 C 332.984375 265.179688 332.933594 265.679688 332.984375 266.183594 Z M 334.789062 265.175781 C 334.878906 264.894531 335.027344 264.621094 335.234375 264.367188 C 335.4375 264.117188 335.671875 263.917969 335.929688 263.777344 C 336.183594 263.632812 336.457031 263.546875 336.738281 263.515625 C 336.816406 263.503906 336.894531 263.5 336.96875 263.5 C 337.171875 263.5 337.375 263.53125 337.578125 263.589844 C 337.855469 263.671875 338.125 263.820312 338.378906 264.023438 C 338.628906 264.226562 338.824219 264.460938 338.960938 264.714844 C 339.097656 264.96875 339.179688 265.242188 339.207031 265.519531 C 339.234375 265.800781 339.203125 266.085938 339.117188 266.367188 C 339.027344 266.648438 338.882812 266.917969 338.675781 267.167969 C 338.472656 267.421875 338.234375 267.625 337.976562 267.765625 C 337.722656 267.910156 337.449219 267.996094 337.167969 268.027344 C 336.886719 268.0625 336.605469 268.035156 336.328125 267.953125 C 336.050781 267.871094 335.785156 267.726562 335.535156 267.523438 C 335.28125 267.316406 335.082031 267.082031 334.941406 266.824219 C 334.804688 266.570312 334.722656 266.300781 334.699219 266.019531 C 334.671875 265.742188 334.703125 265.457031 334.789062 265.175781 Z M 314.949219 259.367188 C 314.867188 259.097656 314.890625 258.832031 315.019531 258.601562 C 315.144531 258.375 315.34375 258.214844 315.597656 258.136719 C 315.898438 258.042969 316.207031 258.101562 316.464844 258.300781 C 316.667969 258.460938 316.820312 258.699219 316.914062 259.007812 C 316.96875 259.1875 316.992188 259.386719 316.992188 259.625 C 316.988281 259.828125 316.972656 260.035156 316.941406 260.242188 C 316.90625 260.46875 316.851562 260.664062 316.777344 260.835938 C 316.660156 261.117188 316.480469 261.296875 316.246094 261.367188 L 316.234375 261.371094 C 316.167969 261.390625 316.097656 261.398438 316.03125 261.398438 C 315.871094 261.398438 315.71875 261.347656 315.585938 261.25 C 315.363281 261.09375 315.25 260.84375 315.28125 260.5625 C 315.304688 260.34375 315.292969 260.230469 315.285156 260.183594 C 315.265625 260.066406 315.242188 260 315.226562 259.964844 C 315.195312 259.894531 315.160156 259.828125 315.125 259.769531 C 315.050781 259.652344 314.992188 259.515625 314.949219 259.367188 Z M 318.089844 259.632812 C 318.039062 259.171875 318.121094 258.753906 318.332031 258.378906 C 318.53125 258.019531 318.832031 257.726562 319.222656 257.503906 C 319.59375 257.292969 320.027344 257.160156 320.519531 257.105469 C 320.894531 257.0625 321.25 257.085938 321.578125 257.171875 C 321.902344 257.257812 322.195312 257.390625 322.449219 257.5625 C 322.703125 257.734375 322.921875 257.933594 323.09375 258.15625 C 323.289062 258.398438 323.308594 258.644531 323.289062 258.804688 C 323.261719 259.039062 323.144531 259.242188 322.945312 259.382812 L 322.914062 259.40625 C 322.714844 259.527344 322.492188 259.566406 322.269531 259.519531 C 322.054688 259.476562 321.871094 259.359375 321.738281 259.1875 C 321.671875 259.109375 321.585938 259.03125 321.484375 258.957031 C 321.402344 258.898438 321.296875 258.851562 321.171875 258.820312 C 321.042969 258.785156 320.878906 258.777344 320.6875 258.796875 C 320.359375 258.832031 320.109375 258.925781 319.945312 259.070312 C 319.824219 259.175781 319.785156 259.292969 319.808594 259.484375 C 319.816406 259.578125 319.847656 259.652344 319.90625 259.722656 C 319.945312 259.773438 320.03125 259.847656 320.222656 259.914062 C 320.417969 259.984375 320.6875 260.027344 321.035156 260.035156 C 321.863281 260.0625 322.523438 260.257812 322.992188 260.621094 C 323.488281 261.003906 323.777344 261.542969 323.851562 262.21875 C 323.894531 262.601562 323.863281 262.960938 323.753906 263.285156 C 323.644531 263.613281 323.464844 263.898438 323.226562 264.140625 C 322.996094 264.371094 322.71875 264.558594 322.398438 264.699219 C 322.09375 264.835938 321.753906 264.925781 321.394531 264.964844 C 321.246094 264.984375 321.097656 264.992188 320.949219 264.992188 C 320.691406 264.992188 320.4375 264.964844 320.199219 264.914062 C 319.816406 264.828125 319.464844 264.683594 319.164062 264.476562 C 318.851562 264.269531 318.601562 264.007812 318.414062 263.699219 C 318.269531 263.476562 318.242188 263.207031 318.34375 262.964844 C 318.40625 262.816406 318.542969 262.613281 318.835938 262.496094 C 319.039062 262.414062 319.253906 262.414062 319.460938 262.492188 C 319.648438 262.5625 319.804688 262.691406 319.914062 262.859375 C 319.972656 262.945312 320.058594 263.027344 320.171875 263.09375 C 320.292969 263.171875 320.441406 263.226562 320.609375 263.261719 C 320.789062 263.296875 320.992188 263.300781 321.207031 263.277344 C 321.433594 263.25 321.628906 263.195312 321.785156 263.105469 C 321.917969 263.027344 322.015625 262.933594 322.078125 262.820312 C 322.136719 262.710938 322.15625 262.582031 322.140625 262.421875 C 322.117188 262.21875 322.03125 262.066406 321.859375 261.933594 C 321.671875 261.789062 321.363281 261.710938 320.933594 261.707031 C 320.15625 261.699219 319.507812 261.519531 319.007812 261.164062 C 318.46875 260.785156 318.160156 260.269531 318.089844 259.632812 Z M 333.386719 301.886719 C 333.242188 301.804688 333.09375 301.742188 332.9375 301.691406 C 332.957031 301.636719 332.972656 301.582031 332.984375 301.523438 C 333.082031 301.136719 333.054688 300.742188 332.90625 300.355469 C 332.753906 299.949219 332.511719 299.621094 332.183594 299.386719 C 331.871094 299.15625 331.507812 299.011719 331.109375 298.964844 C 330.710938 298.917969 330.308594 298.96875 329.910156 299.121094 L 327.96875 299.859375 C 327.746094 299.945312 327.578125 300.101562 327.480469 300.3125 C 327.386719 300.523438 327.382812 300.753906 327.46875 300.980469 L 329.605469 306.589844 C 329.695312 306.835938 329.875 307.015625 330.113281 307.09375 C 330.207031 307.128906 330.308594 307.144531 330.410156 307.144531 C 330.527344 307.144531 330.644531 307.121094 330.761719 307.078125 L 332.796875 306.304688 C 333.253906 306.128906 333.628906 305.875 333.917969 305.539062 C 334.210938 305.199219 334.394531 304.808594 334.472656 304.371094 C 334.550781 303.9375 334.5 303.488281 334.328125 303.035156 C 334.128906 302.515625 333.8125 302.128906 333.386719 301.886719 Z M 329.769531 302.152344 L 329.386719 301.148438 L 330.519531 300.71875 C 330.722656 300.640625 330.894531 300.625 331.050781 300.675781 C 331.097656 300.691406 331.210938 300.726562 331.300781 300.964844 C 331.386719 301.195312 331.347656 301.316406 331.304688 301.398438 C 331.226562 301.542969 331.097656 301.648438 330.898438 301.722656 Z M 332.773438 304.09375 C 332.75 304.222656 332.695312 304.335938 332.601562 304.4375 C 332.5 304.550781 332.363281 304.640625 332.191406 304.707031 L 330.925781 305.1875 L 330.378906 303.75 L 331.640625 303.269531 C 331.820312 303.203125 331.984375 303.175781 332.132812 303.191406 C 332.269531 303.203125 332.386719 303.25 332.484375 303.324219 C 332.585938 303.398438 332.660156 303.507812 332.714844 303.652344 C 332.78125 303.816406 332.796875 303.960938 332.773438 304.09375 Z M 327.125 265.066406 L 328.578125 265.574219 C 329.042969 265.738281 329.511719 265.820312 329.960938 265.820312 C 330.015625 265.820312 330.070312 265.816406 330.128906 265.816406 C 330.636719 265.792969 331.117188 265.671875 331.5625 265.453125 C 332.003906 265.238281 332.394531 264.933594 332.726562 264.550781 C 333.058594 264.167969 333.320312 263.707031 333.5 263.183594 C 333.683594 262.660156 333.765625 262.140625 333.742188 261.636719 C 333.714844 261.132812 333.597656 260.652344 333.386719 260.210938 C 333.175781 259.765625 332.871094 259.371094 332.484375 259.035156 C 332.105469 258.707031 331.644531 258.445312 331.121094 258.261719 L 329.667969 257.757812 C 329.441406 257.679688 329.210938 257.691406 329.003906 257.792969 C 328.796875 257.890625 328.644531 258.066406 328.566406 258.292969 L 326.589844 263.964844 C 326.511719 264.191406 326.523438 264.417969 326.625 264.628906 C 326.726562 264.835938 326.898438 264.988281 327.125 265.066406 Z M 329.941406 259.617188 L 330.574219 259.835938 C 330.976562 259.976562 331.300781 260.191406 331.539062 260.46875 C 331.78125 260.746094 331.929688 261.0625 331.992188 261.433594 C 332.054688 261.804688 332.015625 262.203125 331.871094 262.617188 C 331.726562 263.027344 331.511719 263.367188 331.230469 263.617188 C 330.949219 263.871094 330.636719 264.027344 330.273438 264.101562 C 329.910156 264.171875 329.527344 264.140625 329.125 264 L 328.492188 263.777344 Z M 324.367188 301.777344 C 324.164062 301.371094 323.859375 301.039062 323.464844 300.789062 C 323.078125 300.546875 322.628906 300.402344 322.128906 300.367188 L 320.539062 300.253906 C 320.300781 300.234375 320.078125 300.304688 319.902344 300.457031 C 319.726562 300.609375 319.625 300.816406 319.609375 301.058594 L 319.179688 307.046875 C 319.160156 307.285156 319.230469 307.503906 319.382812 307.679688 C 319.535156 307.855469 319.742188 307.957031 319.980469 307.972656 C 320.21875 307.992188 320.4375 307.917969 320.613281 307.769531 C 320.789062 307.613281 320.890625 307.410156 320.910156 307.167969 L 321.035156 305.425781 L 321.617188 305.46875 L 322.828125 307.746094 C 322.894531 307.878906 322.980469 307.984375 323.082031 308.0625 C 323.207031 308.160156 323.363281 308.214844 323.542969 308.230469 C 323.570312 308.230469 323.597656 308.234375 323.625 308.234375 C 324.050781 308.234375 324.265625 307.992188 324.359375 307.847656 C 324.453125 307.695312 324.578125 307.378906 324.355469 306.957031 L 323.390625 305.136719 C 323.703125 304.960938 323.964844 304.722656 324.175781 304.429688 C 324.4375 304.0625 324.589844 303.632812 324.625 303.148438 C 324.660156 302.648438 324.574219 302.1875 324.367188 301.777344 Z M 322.910156 303.023438 C 322.902344 303.183594 322.851562 303.316406 322.769531 303.425781 C 322.679688 303.546875 322.566406 303.636719 322.421875 303.699219 C 322.265625 303.765625 322.089844 303.789062 321.886719 303.777344 L 321.160156 303.726562 L 321.28125 302.019531 L 322.007812 302.074219 C 322.210938 302.089844 322.378906 302.136719 322.523438 302.226562 C 322.65625 302.3125 322.757812 302.421875 322.828125 302.558594 C 322.898438 302.691406 322.925781 302.84375 322.910156 303.023438 Z M 319.171875 301.089844 L 317.613281 304.917969 C 317.402344 305.433594 317.078125 305.847656 316.65625 306.148438 C 316.234375 306.445312 315.75 306.617188 315.214844 306.660156 C 315.132812 306.664062 315.050781 306.667969 314.96875 306.667969 C 314.523438 306.667969 314.058594 306.570312 313.59375 306.382812 C 313.042969 306.15625 312.582031 305.839844 312.234375 305.441406 C 311.871094 305.035156 311.644531 304.570312 311.550781 304.0625 C 311.457031 303.550781 311.515625 303.03125 311.726562 302.515625 L 313.289062 298.6875 C 313.382812 298.464844 313.542969 298.296875 313.753906 298.210938 C 313.96875 298.121094 314.199219 298.121094 314.421875 298.210938 C 314.640625 298.300781 314.804688 298.460938 314.894531 298.675781 C 314.984375 298.890625 314.984375 299.121094 314.894531 299.34375 L 313.332031 303.167969 C 313.246094 303.386719 313.222656 303.585938 313.257812 303.78125 C 313.300781 303.988281 313.398438 304.175781 313.558594 304.351562 C 313.726562 304.539062 313.953125 304.691406 314.238281 304.808594 C 314.511719 304.917969 314.777344 304.96875 315.023438 304.949219 C 315.257812 304.933594 315.453125 304.867188 315.628906 304.75 C 315.792969 304.632812 315.917969 304.472656 316.003906 304.257812 L 317.566406 300.429688 C 317.65625 300.207031 317.820312 300.042969 318.03125 299.957031 C 318.246094 299.867188 318.476562 299.867188 318.699219 299.957031 C 318.992188 300.074219 319.125 300.285156 319.183594 300.433594 C 319.265625 300.648438 319.261719 300.875 319.171875 301.089844 Z M 341.035156 300.019531 C 341.191406 300.214844 341.25 300.445312 341.214844 300.683594 C 341.179688 300.902344 341.066406 301.09375 340.886719 301.230469 L 337.75 303.71875 C 337.589844 303.847656 337.40625 303.914062 337.210938 303.914062 C 337.179688 303.914062 337.144531 303.910156 337.109375 303.90625 C 336.878906 303.878906 336.679688 303.765625 336.53125 303.578125 L 332.800781 298.871094 C 332.648438 298.683594 332.585938 298.464844 332.613281 298.234375 C 332.636719 298.003906 332.75 297.804688 332.941406 297.652344 L 336.078125 295.164062 C 336.257812 295.023438 336.46875 294.960938 336.6875 294.976562 C 336.929688 294.992188 337.136719 295.105469 337.292969 295.296875 C 337.4375 295.480469 337.496094 295.699219 337.464844 295.9375 C 337.433594 296.164062 337.320312 296.363281 337.140625 296.503906 L 334.683594 298.453125 L 335.484375 299.460938 L 337.160156 298.132812 C 337.347656 297.984375 337.570312 297.921875 337.800781 297.945312 C 338.03125 297.972656 338.226562 298.082031 338.371094 298.265625 C 338.515625 298.449219 338.582031 298.667969 338.554688 298.898438 C 338.527344 299.128906 338.414062 299.328125 338.226562 299.476562 L 336.550781 300.808594 L 337.367188 301.839844 L 339.828125 299.886719 C 340.007812 299.746094 340.222656 299.679688 340.449219 299.703125 C 340.691406 299.730469 340.890625 299.839844 341.035156 300.019531 Z M 312.3125 298.1875 C 312.300781 297.683594 312.1875 297.1875 311.976562 296.714844 C 311.761719 296.242188 311.453125 295.808594 311.046875 295.425781 C 310.640625 295.039062 310.1875 294.746094 309.703125 294.558594 C 309.222656 294.371094 308.722656 294.285156 308.21875 294.296875 C 307.71875 294.3125 307.222656 294.429688 306.753906 294.640625 C 306.285156 294.855469 305.851562 295.167969 305.46875 295.570312 C 305.082031 295.976562 304.789062 296.429688 304.601562 296.90625 C 304.410156 297.386719 304.320312 297.886719 304.328125 298.390625 C 304.339844 298.890625 304.453125 299.386719 304.664062 299.859375 C 304.875 300.332031 305.1875 300.769531 305.597656 301.15625 C 306.003906 301.542969 306.449219 301.832031 306.933594 302.019531 C 307.386719 302.195312 307.855469 302.28125 308.324219 302.28125 C 308.359375 302.28125 308.386719 302.28125 308.421875 302.28125 C 308.925781 302.269531 309.417969 302.152344 309.890625 301.9375 C 310.359375 301.722656 310.796875 301.410156 311.183594 301.003906 C 311.566406 300.597656 311.855469 300.152344 312.046875 299.671875 C 312.238281 299.191406 312.328125 298.691406 312.3125 298.1875 Z M 310.429688 299.050781 C 310.324219 299.324219 310.15625 299.582031 309.933594 299.816406 C 309.707031 300.054688 309.457031 300.238281 309.1875 300.359375 C 308.921875 300.480469 308.644531 300.550781 308.359375 300.558594 C 308.078125 300.566406 307.800781 300.519531 307.53125 300.417969 C 307.257812 300.3125 307.003906 300.148438 306.769531 299.929688 C 306.535156 299.703125 306.355469 299.453125 306.238281 299.1875 C 306.121094 298.921875 306.058594 298.648438 306.054688 298.367188 C 306.050781 298.082031 306.101562 297.800781 306.210938 297.527344 C 306.320312 297.253906 306.488281 296.996094 306.714844 296.757812 C 306.9375 296.523438 307.1875 296.34375 307.453125 296.222656 C 307.722656 296.097656 308 296.03125 308.28125 296.023438 C 308.308594 296.023438 308.332031 296.019531 308.359375 296.019531 C 308.613281 296.019531 308.867188 296.070312 309.113281 296.164062 C 309.386719 296.269531 309.644531 296.433594 309.878906 296.660156 C 310.109375 296.878906 310.289062 297.128906 310.40625 297.394531 C 310.523438 297.65625 310.585938 297.933594 310.589844 298.214844 C 310.589844 298.496094 310.539062 298.777344 310.429688 299.050781 Z M 310.429688 299.050781 " fill-opacity="1" fill-rule="nonzero"/><g clip-path="url(#9f63dcfa3e)"><path fill="#fb3b00" d="M 305.5625 337.042969 C 305.5625 340.179688 305.199219 343.28125 304.484375 346.300781 C 303.953125 348.519531 301.621094 349.78125 299.480469 349.015625 L 292.773438 346.617188 C 288.847656 357.632812 278.351562 365.539062 266.046875 365.539062 C 250.398438 365.539062 237.671875 352.753906 237.671875 337.042969 C 237.671875 334.882812 237.910156 332.78125 238.367188 330.757812 L 236.042969 331.890625 C 235.558594 332.128906 234.984375 332.101562 234.515625 331.828125 L 227.609375 327.738281 L 218.898438 322.578125 C 217.8125 321.933594 217.84375 320.347656 218.953125 319.746094 L 222.164062 318.003906 C 221.78125 317.40625 221.488281 316.742188 221.304688 316.027344 C 220.855469 314.28125 221.113281 312.464844 222.023438 310.910156 C 222.9375 309.359375 224.394531 308.253906 226.136719 307.804688 C 226.84375 307.621094 227.566406 307.554688 228.273438 307.605469 L 228.238281 303.9375 C 228.226562 302.671875 229.59375 301.878906 230.679688 302.523438 L 239.425781 307.703125 C 246.710938 301.015625 256.09375 297.359375 266.042969 297.359375 C 276.605469 297.359375 286.535156 301.484375 293.992188 308.972656 C 301.457031 316.46875 305.5625 326.433594 305.5625 337.042969 Z M 305.5625 337.042969 " fill-opacity="1" fill-rule="nonzero"/></g><path fill="#000000" d="M 266.042969 313.144531 C 257.714844 313.144531 250.371094 317.464844 246.117188 323.992188 L 242.976562 322.132812 L 242.628906 315.476562 C 242.609375 315.132812 242.421875 314.820312 242.125 314.644531 L 234.429688 310.082031 C 234.109375 309.894531 233.714844 309.890625 233.394531 310.078125 C 233.078125 310.265625 232.878906 310.605469 232.882812 310.980469 L 232.933594 316.183594 L 228.332031 313.457031 C 227.84375 313.167969 227.21875 313.332031 226.929688 313.820312 C 226.640625 314.308594 226.804688 314.9375 227.292969 315.226562 L 231.894531 317.953125 L 227.335938 320.425781 C 227.011719 320.601562 226.804688 320.941406 226.800781 321.308594 C 226.792969 321.679688 226.984375 322.027344 227.300781 322.214844 L 235 326.777344 C 235.160156 326.871094 235.339844 326.917969 235.519531 326.917969 C 235.675781 326.917969 235.824219 326.882812 235.96875 326.816406 L 241.9375 323.902344 L 245.070312 325.757812 C 243.269531 329.121094 242.246094 332.960938 242.246094 337.039062 C 242.246094 350.21875 252.921875 360.9375 266.042969 360.9375 C 279.167969 360.9375 289.839844 350.21875 289.839844 337.039062 C 289.839844 323.863281 279.167969 313.144531 266.042969 313.144531 Z M 234.949219 312.78125 L 240.613281 316.136719 L 240.863281 320.878906 L 234.992188 317.402344 Z M 235.566406 324.722656 L 229.902344 321.367188 L 233.953125 319.171875 L 239.820312 322.648438 Z M 266.042969 358.882812 C 254.050781 358.882812 244.292969 349.082031 244.292969 337.039062 C 244.292969 333.34375 245.214844 329.859375 246.835938 326.804688 L 251.621094 329.640625 C 250.484375 331.859375 249.839844 334.375 249.839844 337.039062 C 249.839844 346.015625 257.109375 353.3125 266.042969 353.3125 C 274.980469 353.3125 282.25 346.011719 282.25 337.039062 C 282.25 328.066406 274.980469 320.765625 266.042969 320.765625 C 260.492188 320.765625 255.585938 323.585938 252.664062 327.871094 L 247.882812 325.039062 C 251.777344 319.117188 258.460938 315.203125 266.042969 315.203125 C 278.035156 315.203125 287.792969 325 287.792969 337.042969 C 287.792969 349.082031 278.035156 358.882812 266.042969 358.882812 Z M 266.796875 336.242188 L 261.007812 332.8125 C 262.214844 331.367188 264.023438 330.445312 266.046875 330.445312 C 269.667969 330.445312 272.613281 333.402344 272.613281 337.039062 C 272.613281 340.679688 269.667969 343.636719 266.046875 343.636719 C 262.425781 343.636719 259.476562 340.679688 259.476562 337.039062 C 259.476562 336.167969 259.648438 335.339844 259.953125 334.574219 L 265.757812 338.011719 C 265.921875 338.109375 266.097656 338.15625 266.277344 338.15625 C 266.628906 338.15625 266.96875 337.972656 267.160156 337.648438 C 267.445312 337.160156 267.28125 336.53125 266.796875 336.242188 Z M 266.042969 345.691406 C 270.792969 345.691406 274.660156 341.8125 274.660156 337.039062 C 274.660156 332.269531 270.792969 328.390625 266.042969 328.390625 C 263.273438 328.390625 260.804688 329.710938 259.226562 331.757812 L 254.433594 328.917969 C 256.992188 325.234375 261.242188 322.820312 266.042969 322.820312 C 273.851562 322.820312 280.203125 329.199219 280.203125 337.039062 C 280.203125 344.878906 273.851562 351.257812 266.042969 351.257812 C 258.238281 351.257812 251.886719 344.878906 251.886719 337.039062 C 251.886719 334.753906 252.429688 332.597656 253.386719 330.679688 L 258.179688 333.519531 C 257.699219 334.59375 257.429688 335.785156 257.429688 337.035156 C 257.429688 341.8125 261.292969 345.691406 266.042969 345.691406 Z M 247.3125 312.511719 C 246.6875 311.441406 246.542969 310.324219 246.878906 309.167969 C 247.210938 308.007812 247.886719 307.128906 248.90625 306.53125 C 249.699219 306.066406 250.601562 305.890625 251.609375 306.003906 C 251.871094 306.03125 252.046875 306.128906 252.140625 306.292969 C 252.238281 306.457031 252.269531 306.695312 252.242188 307 C 252.1875 307.511719 252.054688 307.828125 251.839844 307.953125 C 251.710938 308.027344 251.453125 308.054688 251.0625 308.035156 C 250.675781 308.015625 250.28125 308.121094 249.894531 308.347656 C 249.382812 308.648438 249.035156 309.09375 248.851562 309.6875 C 248.664062 310.277344 248.738281 310.867188 249.078125 311.449219 C 249.417969 312.03125 249.910156 312.410156 250.546875 312.582031 C 251.1875 312.75 251.761719 312.6875 252.269531 312.390625 C 252.640625 312.171875 252.9375 311.917969 253.160156 311.621094 L 252.519531 310.519531 L 251.726562 310.988281 C 251.515625 311.109375 251.355469 311.167969 251.238281 311.167969 C 251.117188 311.164062 251.015625 311.121094 250.929688 311.027344 C 250.839844 310.941406 250.742188 310.808594 250.640625 310.628906 C 250.535156 310.449219 250.46875 310.296875 250.4375 310.171875 C 250.402344 310.046875 250.417969 309.9375 250.472656 309.851562 C 250.558594 309.71875 250.703125 309.59375 250.902344 309.476562 L 252.671875 308.4375 C 253.042969 308.238281 253.320312 308.203125 253.503906 308.332031 C 253.644531 308.421875 253.789062 308.589844 253.933594 308.839844 L 255.226562 311.0625 C 255.351562 311.277344 255.378906 311.539062 255.304688 311.84375 C 255.082031 312.757812 254.40625 313.546875 253.28125 314.207031 C 252.28125 314.792969 251.191406 314.925781 250.011719 314.601562 C 248.835938 314.277344 247.933594 313.582031 247.3125 312.511719 Z M 257.328125 310.859375 C 258.316406 311.523438 259.386719 311.730469 260.542969 311.480469 C 261.695312 311.230469 262.578125 310.59375 263.183594 309.574219 C 263.792969 308.550781 263.964844 307.4375 263.707031 306.230469 C 263.445312 305.019531 262.816406 304.097656 261.8125 303.460938 C 260.808594 302.824219 259.746094 302.628906 258.621094 302.871094 C 258.097656 302.984375 257.613281 303.203125 257.164062 303.523438 C 256.714844 303.84375 256.34375 304.230469 256.042969 304.6875 C 255.742188 305.144531 255.539062 305.671875 255.429688 306.273438 C 255.324219 306.875 255.335938 307.492188 255.472656 308.125 C 255.71875 309.285156 256.335938 310.195312 257.328125 310.859375 Z M 257.765625 305.839844 C 258.109375 305.320312 258.546875 305.003906 259.089844 304.890625 C 259.628906 304.773438 260.160156 304.875 260.6875 305.203125 C 261.214844 305.527344 261.550781 306.035156 261.699219 306.730469 C 261.851562 307.421875 261.75 308.023438 261.40625 308.527344 C 261.0625 309.03125 260.621094 309.34375 260.082031 309.460938 C 259.542969 309.578125 259.007812 309.472656 258.480469 309.140625 C 257.953125 308.8125 257.617188 308.308594 257.472656 307.632812 C 257.328125 306.953125 257.425781 306.355469 257.765625 305.839844 Z M 264.851562 310.445312 C 265.101562 310.601562 265.304688 310.6875 265.453125 310.703125 C 265.605469 310.714844 265.734375 310.691406 265.835938 310.625 C 265.9375 310.558594 266.015625 310.492188 266.066406 310.425781 C 266.113281 310.359375 266.183594 310.253906 266.273438 310.105469 L 266.992188 308.898438 L 270.207031 309.1875 L 270.699219 310.503906 C 270.761719 310.664062 270.8125 310.785156 270.847656 310.867188 C 270.882812 310.949219 270.945312 311.03125 271.035156 311.109375 C 271.125 311.1875 271.246094 311.234375 271.398438 311.246094 C 271.550781 311.257812 271.761719 311.214844 272.039062 311.105469 C 272.507812 310.917969 272.753906 310.6875 272.777344 310.40625 C 272.789062 310.277344 272.742188 310.070312 272.636719 309.796875 L 270.085938 303.007812 C 269.917969 302.585938 269.628906 302.355469 269.210938 302.316406 C 269.015625 302.300781 268.828125 302.339844 268.644531 302.429688 C 268.460938 302.523438 268.320312 302.65625 268.21875 302.828125 L 264.5 309.058594 C 264.34375 309.3125 264.261719 309.503906 264.25 309.636719 C 264.21875 309.921875 264.421875 310.191406 264.851562 310.445312 Z M 268.890625 305.726562 L 269.523438 307.394531 L 267.980469 307.253906 Z M 273.230469 311.132812 C 273.234375 310.996094 273.285156 310.804688 273.386719 310.550781 L 275.785156 304.507812 C 275.851562 304.34375 275.90625 304.21875 275.949219 304.140625 C 275.992188 304.0625 276.066406 303.980469 276.167969 303.894531 C 276.347656 303.738281 276.667969 303.753906 277.128906 303.941406 C 277.632812 304.140625 277.878906 304.394531 277.867188 304.703125 C 277.855469 304.839844 277.796875 305.035156 277.695312 305.289062 L 275.554688 310.675781 L 278.5 311.855469 C 278.738281 311.949219 278.902344 312.046875 278.988281 312.144531 C 279.074219 312.242188 279.113281 312.355469 279.101562 312.484375 C 279.089844 312.617188 279.046875 312.777344 278.972656 312.96875 C 278.894531 313.160156 278.816406 313.308594 278.734375 313.410156 C 278.652344 313.507812 278.558594 313.566406 278.457031 313.574219 C 278.289062 313.59375 278.089844 313.554688 277.851562 313.457031 L 273.953125 311.898438 C 273.449219 311.695312 273.207031 311.441406 273.230469 311.132812 Z M 282.636719 316.371094 C 282.3125 316.027344 282.183594 315.738281 282.257812 315.507812 C 282.292969 315.386719 282.339844 315.292969 282.402344 315.21875 C 282.464844 315.148438 282.558594 315.046875 282.695312 314.917969 L 287.398438 310.460938 C 287.527344 310.339844 287.628906 310.25 287.703125 310.195312 C 287.777344 310.144531 287.878906 310.101562 288.003906 310.066406 C 288.230469 310.011719 288.511719 310.164062 288.847656 310.519531 C 288.992188 310.671875 289.097656 310.820312 289.164062 310.96875 C 289.234375 311.113281 289.261719 311.222656 289.253906 311.292969 L 289.253906 311.390625 L 288.542969 315.714844 C 290.722656 315.476562 292.164062 315.324219 292.875 315.261719 C 293.121094 315.214844 293.410156 315.371094 293.75 315.730469 C 294.085938 316.089844 294.21875 316.382812 294.140625 316.605469 C 294.097656 316.734375 294.046875 316.832031 293.984375 316.90625 C 293.925781 316.976562 293.832031 317.074219 293.703125 317.199219 L 288.996094 321.65625 C 288.609375 322.027344 288.277344 322.132812 288.007812 321.980469 C 287.871094 321.90625 287.726562 321.785156 287.574219 321.621094 C 287.417969 321.457031 287.308594 321.3125 287.246094 321.191406 C 287.1875 321.066406 287.148438 320.960938 287.140625 320.871094 C 287.132812 320.785156 287.152344 320.691406 287.199219 320.59375 C 287.269531 320.472656 287.402344 320.320312 287.601562 320.132812 L 290.4375 317.441406 C 290.128906 317.464844 289.65625 317.523438 289.019531 317.613281 C 288.382812 317.699219 287.980469 317.753906 287.816406 317.773438 C 287.652344 317.789062 287.535156 317.800781 287.472656 317.808594 C 287.410156 317.8125 287.292969 317.792969 287.125 317.742188 C 286.953125 317.695312 286.8125 317.605469 286.691406 317.480469 C 286.570312 317.351562 286.492188 317.207031 286.453125 317.046875 C 286.414062 316.882812 286.398438 316.753906 286.414062 316.65625 L 286.441406 316.5 C 286.476562 316.25 286.566406 315.742188 286.710938 314.972656 C 286.855469 314.199219 286.933594 313.785156 286.941406 313.722656 L 284.085938 316.433594 C 283.957031 316.554688 283.855469 316.644531 283.78125 316.699219 C 283.707031 316.75 283.609375 316.792969 283.488281 316.820312 C 283.257812 316.878906 282.972656 316.730469 282.636719 316.371094 Z M 292.136719 328.5625 C 291.644531 328.792969 291.296875 328.796875 291.089844 328.574219 C 290.992188 328.476562 290.886719 328.304688 290.769531 328.054688 L 288.808594 323.859375 C 288.578125 323.363281 288.574219 323.011719 288.804688 322.800781 C 288.898438 322.707031 289.066406 322.597656 289.3125 322.484375 L 295.179688 319.722656 C 295.539062 319.550781 295.8125 319.503906 296.007812 319.578125 C 296.199219 319.648438 296.382812 319.875 296.558594 320.246094 L 298.503906 324.421875 C 298.582031 324.585938 298.632812 324.710938 298.660156 324.792969 C 298.6875 324.878906 298.699219 324.988281 298.691406 325.121094 C 298.679688 325.359375 298.453125 325.585938 298.003906 325.796875 C 297.507812 326.03125 297.160156 326.035156 296.953125 325.8125 C 296.855469 325.710938 296.75 325.539062 296.632812 325.289062 L 295.113281 322.039062 L 294.046875 322.539062 L 295.027344 324.636719 C 295.105469 324.800781 295.15625 324.925781 295.183594 325.011719 C 295.210938 325.097656 295.21875 325.207031 295.214844 325.339844 C 295.203125 325.574219 294.976562 325.800781 294.523438 326.011719 C 294.03125 326.246094 293.679688 326.246094 293.472656 326.015625 C 293.375 325.917969 293.269531 325.742188 293.152344 325.496094 L 292.179688 323.417969 L 291.113281 323.921875 L 292.636719 327.183594 C 292.714844 327.347656 292.765625 327.472656 292.792969 327.554688 C 292.820312 327.644531 292.828125 327.75 292.824219 327.886719 C 292.816406 328.125 292.589844 328.351562 292.136719 328.5625 Z M 300.867188 335.730469 C 300.824219 335.855469 300.746094 335.945312 300.628906 336.003906 C 300.511719 336.058594 300.351562 336.101562 300.152344 336.132812 C 299.953125 336.160156 299.792969 336.164062 299.667969 336.144531 C 299.542969 336.125 299.449219 336.070312 299.390625 335.984375 C 299.300781 335.855469 299.234375 335.664062 299.199219 335.410156 L 298.878906 333.195312 L 293.078125 334.046875 C 292.902344 334.074219 292.769531 334.085938 292.683594 334.089844 C 292.597656 334.089844 292.492188 334.070312 292.375 334.027344 C 292.253906 333.984375 292.164062 333.894531 292.09375 333.753906 C 292.027344 333.617188 291.976562 333.425781 291.941406 333.1875 C 291.90625 332.945312 291.902344 332.753906 291.925781 332.601562 C 291.953125 332.453125 292.015625 332.339844 292.121094 332.269531 C 292.222656 332.195312 292.316406 332.144531 292.402344 332.121094 C 292.488281 332.09375 292.621094 332.070312 292.800781 332.042969 L 298.585938 331.195312 L 298.265625 328.972656 C 298.226562 328.722656 298.230469 328.539062 298.273438 328.414062 C 298.3125 328.289062 298.390625 328.199219 298.507812 328.140625 C 298.625 328.085938 298.785156 328.042969 298.984375 328.011719 C 299.183594 327.980469 299.347656 327.980469 299.472656 328 C 299.597656 328.019531 299.6875 328.074219 299.75 328.160156 C 299.839844 328.289062 299.902344 328.480469 299.9375 328.738281 L 300.875 335.175781 C 300.910156 335.421875 300.90625 335.609375 300.867188 335.730469 Z M 294.273438 338.523438 C 294.316406 338.6875 294.324219 338.941406 294.300781 339.277344 C 294.273438 339.613281 294.183594 339.855469 294.023438 339.996094 C 293.867188 340.136719 293.628906 340.195312 293.3125 340.171875 L 293.125 340.160156 C 292.9375 340.144531 292.800781 340.128906 292.714844 340.109375 C 292.625 340.09375 292.519531 340.046875 292.402344 339.976562 C 292.1875 339.835938 292.09375 339.53125 292.128906 339.0625 C 292.164062 338.589844 292.261719 338.285156 292.425781 338.144531 C 292.585938 338.003906 292.886719 337.949219 293.320312 337.980469 C 293.621094 338.003906 293.84375 338.058594 293.988281 338.148438 C 294.136719 338.234375 294.230469 338.363281 294.273438 338.523438 Z M 300.691406 339.023438 C 300.722656 339.175781 300.730469 339.375 300.710938 339.625 C 300.695312 339.871094 300.660156 340.070312 300.605469 340.214844 C 300.550781 340.359375 300.46875 340.457031 300.363281 340.507812 C 300.253906 340.558594 300.15625 340.585938 300.074219 340.59375 C 299.992188 340.597656 299.871094 340.59375 299.710938 340.582031 L 296.023438 340.3125 C 295.863281 340.300781 295.742188 340.285156 295.667969 340.269531 C 295.589844 340.253906 295.503906 340.207031 295.414062 340.140625 C 295.320312 340.070312 295.257812 339.960938 295.234375 339.808594 C 295.203125 339.660156 295.199219 339.457031 295.21875 339.207031 C 295.238281 338.960938 295.269531 338.761719 295.320312 338.617188 C 295.371094 338.472656 295.449219 338.375 295.550781 338.324219 C 295.65625 338.273438 295.75 338.242188 295.828125 338.238281 C 295.902344 338.230469 296.023438 338.234375 296.1875 338.246094 L 299.871094 338.515625 C 300.035156 338.527344 300.15625 338.539062 300.238281 338.558594 C 300.316406 338.578125 300.40625 338.621094 300.5 338.691406 C 300.59375 338.761719 300.660156 338.875 300.691406 339.023438 Z M 300.691406 339.023438 " fill-opacity="1" fill-rule="nonzero"/></svg>