<svg xmlns="http://www.w3.org/2000/svg" xmlns:xlink="http://www.w3.org/1999/xlink" width="500" zoomAndPan="magnify" viewBox="0 0 375 374.999991" height="500" preserveAspectRatio="xMidYMid meet" version="1.0"><defs><clipPath id="5fe434853a"><path d="M 246 252 L 323 252 L 323 316 L 246 316 Z M 246 252 " clip-rule="nonzero"/></clipPath><clipPath id="7dc06360aa"><path d="M 242.046875 260.164062 L 320.25 250.886719 L 326.964844 307.492188 L 248.761719 316.769531 Z M 242.046875 260.164062 " clip-rule="nonzero"/></clipPath><clipPath id="8474271c26"><path d="M 242.046875 260.164062 L 320.25 250.886719 L 326.964844 307.492188 L 248.761719 316.769531 Z M 242.046875 260.164062 " clip-rule="nonzero"/></clipPath><clipPath id="7f499f76f1"><path d="M 242.046875 260.164062 L 320.25 250.886719 L 326.964844 307.492188 L 248.761719 316.769531 Z M 242.046875 260.164062 " clip-rule="nonzero"/></clipPath><clipPath id="398a95cdd1"><path d="M 250 256 L 318 256 L 318 313 L 250 313 Z M 250 256 " clip-rule="nonzero"/></clipPath><clipPath id="522ab8af38"><path d="M 242.046875 260.164062 L 320.25 250.886719 L 326.964844 307.492188 L 248.761719 316.769531 Z M 242.046875 260.164062 " clip-rule="nonzero"/></clipPath><clipPath id="dc00cc1990"><path d="M 242.046875 260.164062 L 320.25 250.886719 L 326.964844 307.492188 L 248.761719 316.769531 Z M 242.046875 260.164062 " clip-rule="nonzero"/></clipPath><clipPath id="84af9b1f08"><path d="M 242.046875 260.164062 L 320.25 250.886719 L 326.964844 307.492188 L 248.761719 316.769531 Z M 242.046875 260.164062 " clip-rule="nonzero"/></clipPath><clipPath id="1e498296bb"><path d="M 306.328125 275.15625 L 368.578125 275.15625 L 368.578125 337.40625 L 306.328125 337.40625 Z M 306.328125 275.15625 " clip-rule="nonzero"/></clipPath><clipPath id="716dbf52ed"><path d="M 250.242188 314.773438 L 318.492188 314.773438 L 318.492188 368 L 250.242188 368 Z M 250.242188 314.773438 " clip-rule="nonzero"/></clipPath></defs><g clip-path="url(#5fe434853a)"><g clip-path="url(#7dc06360aa)"><g clip-path="url(#8474271c26)"><g clip-path="url(#7f499f76f1)"><path fill="#002ef4" d="M 319.5625 274.800781 L 313.566406 273.761719 C 312.230469 277.796875 310.472656 281.683594 308.316406 285.359375 C 305.097656 290.851562 301.046875 295.789062 296.28125 300.035156 C 287.710938 307.667969 277.21875 312.710938 265.941406 314.621094 C 264.933594 314.789062 263.910156 314.9375 262.882812 315.058594 C 262.300781 315.128906 261.714844 315.191406 261.132812 315.242188 L 253.964844 315.890625 C 252.566406 316.015625 251.328125 314.988281 251.203125 313.597656 L 250.410156 304.78125 L 249.867188 304.828125 C 248.46875 304.941406 247.242188 303.90625 247.125 302.515625 L 246.121094 290.363281 C 246.007812 288.96875 247.050781 287.746094 248.449219 287.628906 L 252.648438 287.28125 C 268.632812 284.652344 281.675781 273.886719 287.25 258.886719 C 287.71875 257.625 289.097656 256.949219 290.386719 257.351562 L 299.523438 260.171875 L 307.816406 253.269531 C 309.023438 252.261719 310.851562 252.582031 311.640625 253.933594 L 321.910156 271.441406 C 322.882812 273.097656 321.460938 275.132812 319.5625 274.800781 Z M 319.5625 274.800781 " fill-opacity="1" fill-rule="nonzero"/></g></g></g></g><g clip-path="url(#398a95cdd1)"><g clip-path="url(#522ab8af38)"><g clip-path="url(#dc00cc1990)"><g clip-path="url(#84af9b1f08)"><path fill="#000000" d="M 317.007812 269.589844 L 309.761719 257.230469 C 309.632812 257.011719 309.414062 256.863281 309.164062 256.820312 C 308.914062 256.773438 308.65625 256.84375 308.457031 257.007812 L 297.421875 266.195312 C 297.164062 266.410156 297.050781 266.753906 297.140625 267.078125 C 297.226562 267.402344 297.496094 267.648438 297.824219 267.703125 L 302.679688 268.546875 C 297.019531 287.921875 280.390625 301.558594 260.066406 303.386719 L 254.507812 303.886719 C 254.28125 303.910156 254.070312 304.015625 253.921875 304.191406 C 253.773438 304.367188 253.699219 304.597656 253.722656 304.824219 L 254.339844 311.699219 C 254.359375 311.925781 254.472656 312.136719 254.648438 312.285156 C 254.824219 312.429688 255.050781 312.5 255.28125 312.480469 L 260.835938 311.980469 C 261.390625 311.929688 261.941406 311.871094 262.496094 311.804688 C 263.464844 311.691406 264.4375 311.550781 265.390625 311.390625 C 276.054688 309.585938 285.976562 304.8125 294.085938 297.589844 C 298.597656 293.574219 302.425781 288.90625 305.472656 283.707031 C 307.992188 279.417969 309.933594 274.820312 311.257812 270.035156 L 316.109375 270.875 C 316.441406 270.933594 316.777344 270.792969 316.96875 270.519531 C 317.164062 270.242188 317.179688 269.878906 317.007812 269.589844 Z M 310.777344 268.199219 C 310.328125 268.121094 309.898438 268.398438 309.789062 268.832031 C 308.503906 273.742188 306.550781 278.457031 303.980469 282.839844 C 301.023438 287.878906 297.308594 292.410156 292.933594 296.304688 C 285.070312 303.308594 275.449219 307.9375 265.105469 309.6875 C 263.652344 309.933594 262.160156 310.128906 260.683594 310.257812 L 255.992188 310.683594 L 255.527344 305.527344 L 260.222656 305.101562 C 270.679688 304.164062 280.402344 300.152344 288.347656 293.507812 C 296.265625 286.886719 301.890625 278.097656 304.613281 268.085938 C 304.675781 267.851562 304.636719 267.601562 304.507812 267.398438 C 304.378906 267.191406 304.167969 267.050781 303.925781 267.011719 L 299.96875 266.324219 L 308.785156 258.984375 L 314.574219 268.855469 Z M 252.339844 296.9375 L 252.652344 299.390625 C 252.679688 299.613281 252.621094 299.824219 252.480469 300.007812 C 252.339844 300.1875 252.148438 300.296875 251.921875 300.324219 C 251.921875 300.324219 251.917969 300.324219 251.917969 300.324219 C 251.695312 300.351562 251.480469 300.292969 251.304688 300.152344 C 251.125 300.015625 251.011719 299.824219 250.984375 299.601562 L 250.074219 292.378906 C 250.046875 292.15625 250.105469 291.945312 250.246094 291.765625 C 250.386719 291.582031 250.578125 291.472656 250.800781 291.445312 C 251.023438 291.417969 251.242188 291.476562 251.421875 291.617188 C 251.601562 291.753906 251.710938 291.945312 251.738281 292.171875 L 252.050781 294.628906 L 254.703125 291.230469 C 254.785156 291.121094 254.871094 291.042969 254.964844 290.988281 C 255.0625 290.933594 255.171875 290.898438 255.292969 290.882812 C 255.292969 290.882812 255.296875 290.882812 255.296875 290.882812 C 255.617188 290.84375 255.820312 290.964844 255.9375 291.074219 C 256.085938 291.214844 256.171875 291.398438 256.191406 291.609375 C 256.210938 291.816406 256.15625 292.015625 256.03125 292.207031 L 256.011719 292.234375 L 253.769531 295.109375 L 256.863281 298.367188 C 257.011719 298.53125 257.089844 298.722656 257.09375 298.925781 C 257.097656 299.125 257.035156 299.3125 256.914062 299.464844 C 256.785156 299.632812 256.605469 299.738281 256.390625 299.765625 C 256.101562 299.808594 255.839844 299.703125 255.65625 299.492188 L 252.726562 296.441406 Z M 256.398438 291.539062 C 256.335938 291.316406 256.359375 291.097656 256.46875 290.902344 C 256.578125 290.707031 256.757812 290.574219 256.980469 290.511719 L 261.683594 289.214844 C 261.894531 289.15625 262.105469 289.175781 262.300781 289.273438 C 262.503906 289.378906 262.648438 289.554688 262.710938 289.785156 C 262.773438 289.996094 262.742188 290.214844 262.625 290.410156 C 262.511719 290.601562 262.335938 290.734375 262.121094 290.792969 L 258.230469 291.867188 L 258.761719 293.789062 L 261.480469 293.039062 C 261.707031 292.976562 261.925781 293.003906 262.121094 293.113281 C 262.316406 293.222656 262.453125 293.394531 262.511719 293.613281 C 262.570312 293.828125 262.542969 294.046875 262.433594 294.238281 C 262.324219 294.433594 262.144531 294.566406 261.921875 294.628906 L 259.199219 295.378906 L 259.742188 297.332031 L 263.636719 296.257812 C 263.847656 296.195312 264.066406 296.222656 264.261719 296.324219 C 264.464844 296.433594 264.601562 296.605469 264.664062 296.816406 C 264.726562 297.046875 264.695312 297.273438 264.570312 297.46875 C 264.457031 297.648438 264.285156 297.777344 264.074219 297.835938 L 259.375 299.132812 C 259.328125 299.144531 259.28125 299.152344 259.234375 299.160156 C 259.058594 299.179688 258.886719 299.148438 258.734375 299.058594 C 258.539062 298.953125 258.40625 298.773438 258.339844 298.550781 Z M 262.890625 289.6875 C 262.796875 289.476562 262.789062 289.253906 262.867188 289.042969 C 262.949219 288.835938 263.105469 288.679688 263.320312 288.582031 L 267.773438 286.605469 C 267.976562 286.515625 268.1875 286.503906 268.394531 286.574219 C 268.613281 286.644531 268.78125 286.796875 268.878906 287.019531 C 268.96875 287.222656 268.96875 287.441406 268.882812 287.652344 C 268.800781 287.855469 268.648438 288.011719 268.445312 288.101562 L 264.753906 289.738281 L 265.566406 291.558594 L 268.144531 290.417969 C 268.359375 290.320312 268.582031 290.316406 268.789062 290.394531 C 269 290.472656 269.15625 290.625 269.25 290.832031 C 269.34375 291.039062 269.347656 291.257812 269.265625 291.464844 C 269.1875 291.671875 269.035156 291.832031 268.820312 291.925781 L 266.242188 293.070312 L 267.066406 294.921875 L 270.757812 293.285156 C 270.960938 293.191406 271.179688 293.183594 271.386719 293.257812 C 271.605469 293.335938 271.765625 293.484375 271.855469 293.6875 C 271.953125 293.90625 271.957031 294.132812 271.863281 294.34375 C 271.777344 294.539062 271.625 294.691406 271.425781 294.78125 L 266.96875 296.757812 C 266.886719 296.792969 266.800781 296.816406 266.710938 296.828125 C 266.582031 296.84375 266.449219 296.828125 266.324219 296.777344 C 266.117188 296.699219 265.957031 296.546875 265.863281 296.332031 Z M 272.917969 293.035156 C 273.039062 293.230469 273.222656 293.359375 273.4375 293.410156 C 273.53125 293.433594 273.625 293.4375 273.71875 293.425781 C 273.839844 293.410156 273.960938 293.367188 274.074219 293.296875 C 274.269531 293.175781 274.402344 292.996094 274.449219 292.777344 C 274.5 292.5625 274.460938 292.34375 274.339844 292.148438 L 273.261719 290.433594 L 274.316406 289.777344 C 274.8125 289.46875 275.195312 289.078125 275.445312 288.613281 C 275.699219 288.148438 275.8125 287.644531 275.792969 287.117188 C 275.769531 286.597656 275.601562 286.085938 275.296875 285.597656 C 274.980469 285.097656 274.589844 284.714844 274.128906 284.464844 C 273.664062 284.210938 273.15625 284.09375 272.625 284.113281 C 272.09375 284.132812 271.574219 284.300781 271.078125 284.613281 L 269.3125 285.710938 C 269.113281 285.832031 268.980469 286.015625 268.929688 286.230469 C 268.878906 286.445312 268.917969 286.664062 269.042969 286.863281 Z M 274.128906 287.1875 C 274.140625 287.425781 274.089844 287.640625 273.972656 287.851562 C 273.855469 288.066406 273.683594 288.242188 273.445312 288.390625 L 272.394531 289.042969 L 270.898438 286.660156 L 271.949219 286.003906 C 272.1875 285.855469 272.421875 285.78125 272.667969 285.769531 C 272.910156 285.761719 273.128906 285.8125 273.339844 285.929688 C 273.554688 286.046875 273.734375 286.222656 273.894531 286.472656 C 274.042969 286.707031 274.117188 286.941406 274.128906 287.1875 Z M 276.378906 281.792969 C 276.226562 281.617188 276.15625 281.40625 276.171875 281.183594 C 276.1875 280.964844 276.289062 280.765625 276.464844 280.613281 C 276.640625 280.460938 276.847656 280.390625 277.074219 280.402344 C 277.296875 280.417969 277.496094 280.519531 277.648438 280.695312 L 282.441406 286.1875 C 282.59375 286.363281 282.664062 286.570312 282.648438 286.792969 C 282.632812 287.015625 282.535156 287.210938 282.355469 287.367188 C 282.222656 287.480469 282.066406 287.550781 281.902344 287.570312 C 281.851562 287.578125 281.800781 287.578125 281.75 287.578125 C 281.527344 287.5625 281.328125 287.460938 281.175781 287.285156 Z M 277.742188 280.757812 C 277.574219 280.601562 277.488281 280.40625 277.480469 280.195312 C 277.472656 279.980469 277.554688 279.78125 277.710938 279.617188 L 279.105469 278.144531 L 281.65625 275.449219 C 281.8125 275.285156 282.003906 275.195312 282.21875 275.191406 C 282.433594 275.183594 282.636719 275.261719 282.796875 275.417969 C 282.957031 275.566406 283.046875 275.757812 283.050781 275.972656 C 283.058594 276.183594 282.980469 276.382812 282.824219 276.546875 L 281.421875 278.027344 L 286.183594 282.496094 C 286.34375 282.644531 286.433594 282.84375 286.449219 283.0625 C 286.460938 283.292969 286.378906 283.503906 286.214844 283.675781 C 286.082031 283.820312 285.90625 283.90625 285.710938 283.929688 C 285.683594 283.933594 285.65625 283.933594 285.632812 283.9375 C 285.40625 283.945312 285.195312 283.863281 285.03125 283.710938 L 280.273438 279.242188 L 278.878906 280.714844 C 278.722656 280.878906 278.527344 280.96875 278.3125 280.976562 C 278.097656 280.984375 277.902344 280.90625 277.742188 280.757812 Z M 284.070312 272.753906 C 284.015625 272.542969 284.050781 272.320312 284.167969 272.125 C 284.289062 271.921875 284.464844 271.789062 284.679688 271.734375 C 284.898438 271.679688 285.121094 271.714844 285.320312 271.832031 L 289.644531 274.386719 C 289.925781 274.550781 290.203125 274.625 290.492188 274.613281 C 290.789062 274.597656 291.066406 274.503906 291.339844 274.324219 C 291.625 274.132812 291.871094 273.863281 292.078125 273.519531 C 292.28125 273.179688 292.394531 272.839844 292.421875 272.511719 C 292.449219 272.1875 292.398438 271.902344 292.269531 271.636719 C 292.140625 271.375 291.941406 271.171875 291.664062 271.003906 L 287.335938 268.449219 C 287.136719 268.332031 287 268.15625 286.945312 267.9375 C 286.890625 267.726562 286.921875 267.503906 287.042969 267.304688 C 287.199219 267.042969 287.414062 266.945312 287.566406 266.910156 C 287.777344 266.859375 287.996094 266.898438 288.191406 267.011719 L 292.519531 269.566406 C 293.066406 269.890625 293.476562 270.320312 293.742188 270.84375 C 294.007812 271.367188 294.121094 271.941406 294.078125 272.550781 C 294.035156 273.152344 293.835938 273.757812 293.484375 274.347656 C 293.128906 274.945312 292.6875 275.414062 292.175781 275.742188 C 291.734375 276.027344 291.261719 276.203125 290.773438 276.257812 C 290.683594 276.269531 290.59375 276.277344 290.503906 276.28125 C 289.914062 276.300781 289.335938 276.144531 288.789062 275.820312 L 284.460938 273.265625 C 284.261719 273.148438 284.125 272.972656 284.070312 272.753906 Z M 288.457031 266.296875 L 295.238281 269.003906 C 295.378906 269.058594 295.519531 269.078125 295.65625 269.0625 C 295.734375 269.050781 295.808594 269.03125 295.882812 269 C 296.085938 268.914062 296.242188 268.753906 296.328125 268.539062 C 296.414062 268.324219 296.414062 268.101562 296.328125 267.898438 C 296.242188 267.695312 296.078125 267.539062 295.863281 267.453125 L 293.976562 266.699219 L 294.441406 265.554688 C 294.660156 265.011719 294.734375 264.472656 294.664062 263.949219 C 294.589844 263.425781 294.386719 262.953125 294.058594 262.539062 C 293.734375 262.132812 293.292969 261.816406 292.753906 261.605469 C 292.21875 261.390625 291.6875 261.3125 291.175781 261.371094 C 291.164062 261.371094 291.152344 261.375 291.140625 261.375 C 290.613281 261.445312 290.136719 261.644531 289.71875 261.976562 C 289.300781 262.304688 288.980469 262.746094 288.761719 263.289062 L 287.988281 265.210938 C 287.902344 265.425781 287.902344 265.648438 287.988281 265.851562 C 288.078125 266.054688 288.238281 266.210938 288.457031 266.296875 Z M 290.734375 263.292969 C 290.925781 263.140625 291.136719 263.054688 291.375 263.023438 C 291.617188 262.988281 291.867188 263.027344 292.140625 263.136719 C 292.402344 263.242188 292.601562 263.382812 292.753906 263.574219 C 292.90625 263.757812 292.992188 263.964844 293.023438 264.203125 C 293.054688 264.441406 293.019531 264.6875 292.914062 264.945312 L 292.453125 266.09375 L 289.828125 265.046875 L 290.292969 263.898438 C 290.398438 263.640625 290.542969 263.441406 290.734375 263.292969 Z M 290.734375 263.292969 " fill-opacity="1" fill-rule="nonzero"/></g></g></g></g><g clip-path="url(#1e498296bb)"><path fill="#ffb3f7" d="M 368.039062 309.703125 C 368.578125 310.613281 368.394531 311.78125 367.597656 312.480469 L 365.589844 314.246094 C 364.984375 314.777344 364.71875 315.597656 364.898438 316.382812 L 365.484375 318.988281 C 365.71875 320.023438 365.179688 321.074219 364.207031 321.492188 L 361.753906 322.550781 C 361.011719 322.867188 360.507812 323.566406 360.433594 324.367188 L 360.1875 327.027344 C 360.089844 328.082031 359.253906 328.917969 358.199219 329.015625 L 355.539062 329.261719 C 354.734375 329.335938 354.039062 329.84375 353.71875 330.582031 L 352.664062 333.035156 C 352.246094 334.011719 351.195312 334.546875 350.160156 334.3125 L 347.550781 333.726562 C 346.765625 333.546875 345.945312 333.816406 345.414062 334.417969 L 343.652344 336.425781 C 342.953125 337.222656 341.785156 337.40625 340.875 336.867188 L 338.578125 335.5 C 337.886719 335.089844 337.023438 335.089844 336.332031 335.5 L 334.035156 336.867188 C 333.125 337.40625 331.957031 337.222656 331.257812 336.425781 L 329.492188 334.417969 C 328.960938 333.8125 328.140625 333.546875 327.355469 333.726562 L 324.75 334.3125 C 323.714844 334.546875 322.664062 334.011719 322.246094 333.035156 L 321.1875 330.582031 C 320.871094 329.84375 320.171875 329.335938 319.371094 329.261719 L 316.710938 329.015625 C 315.65625 328.917969 314.820312 328.082031 314.722656 327.027344 L 314.476562 324.367188 C 314.402344 323.566406 313.894531 322.867188 313.15625 322.550781 L 310.703125 321.492188 C 309.726562 321.074219 309.191406 320.023438 309.425781 318.988281 L 310.011719 316.382812 C 310.191406 315.597656 309.921875 314.777344 309.320312 314.246094 L 307.308594 312.480469 C 306.515625 311.78125 306.328125 310.613281 306.871094 309.703125 L 308.234375 307.40625 C 308.648438 306.714844 308.648438 305.851562 308.234375 305.160156 L 306.871094 302.863281 C 306.328125 301.949219 306.515625 300.785156 307.308594 300.085938 L 309.316406 298.320312 C 309.921875 297.789062 310.191406 296.96875 310.011719 296.183594 L 309.421875 293.578125 C 309.191406 292.542969 309.726562 291.492188 310.699219 291.070312 L 313.15625 290.015625 C 313.894531 289.699219 314.402344 289 314.476562 288.199219 L 314.722656 285.539062 C 314.816406 284.484375 315.652344 283.648438 316.710938 283.550781 L 319.371094 283.304688 C 320.171875 283.230469 320.871094 282.722656 321.1875 281.984375 L 322.242188 279.527344 C 322.660156 278.554688 323.714844 278.019531 324.75 278.253906 L 327.355469 278.839844 C 328.140625 279.015625 328.960938 278.75 329.492188 278.148438 L 331.257812 276.140625 C 331.957031 275.34375 333.121094 275.15625 334.03125 275.699219 L 336.328125 277.066406 C 337.023438 277.476562 337.882812 277.476562 338.578125 277.066406 L 340.875 275.699219 C 341.785156 275.15625 342.953125 275.34375 343.652344 276.140625 L 345.414062 278.148438 C 345.945312 278.753906 346.765625 279.019531 347.550781 278.839844 L 350.160156 278.253906 C 351.191406 278.019531 352.246094 278.554688 352.664062 279.527344 L 353.71875 281.984375 C 354.039062 282.722656 354.734375 283.230469 355.539062 283.304688 L 358.199219 283.550781 C 359.25 283.648438 360.085938 284.484375 360.1875 285.539062 L 360.429688 288.199219 C 360.503906 289 361.011719 289.699219 361.75 290.015625 L 364.207031 291.070312 C 365.179688 291.492188 365.714844 292.542969 365.484375 293.578125 L 364.894531 296.183594 C 364.71875 296.96875 364.984375 297.789062 365.589844 298.320312 L 367.597656 300.085938 C 368.394531 300.785156 368.578125 301.949219 368.035156 302.863281 L 366.671875 305.160156 C 366.261719 305.851562 366.261719 306.714844 366.671875 307.40625 Z M 368.039062 309.703125 " fill-opacity="1" fill-rule="nonzero"/></g><path fill="#000000" d="M 324.851562 303.664062 C 324.796875 303.953125 324.914062 304.25 325.148438 304.425781 L 331.3125 309.023438 L 331.019531 316.707031 C 331.007812 317.003906 331.167969 317.28125 331.425781 317.417969 C 331.542969 317.480469 331.667969 317.511719 331.796875 317.511719 C 331.953125 317.511719 332.109375 317.464844 332.246094 317.371094 L 338.523438 312.929688 L 345.742188 315.582031 C 346.019531 315.683594 346.328125 315.621094 346.542969 315.417969 C 346.757812 315.214844 346.835938 314.90625 346.75 314.625 L 344.464844 307.28125 L 349.21875 301.234375 C 349.402344 301.003906 349.4375 300.6875 349.308594 300.421875 C 349.183594 300.15625 348.914062 299.984375 348.621094 299.980469 L 340.929688 299.886719 L 336.648438 293.496094 C 336.484375 293.25 336.199219 293.117188 335.90625 293.15625 C 335.613281 293.195312 335.367188 293.398438 335.273438 293.675781 L 332.804688 300.960938 L 325.40625 303.058594 C 325.117188 303.136719 324.90625 303.371094 324.851562 303.664062 Z M 333.617188 302.34375 C 333.863281 302.273438 334.058594 302.085938 334.140625 301.84375 L 336.238281 295.664062 L 339.871094 301.085938 C 340.011719 301.296875 340.25 301.425781 340.503906 301.429688 L 347.03125 301.511719 L 342.996094 306.644531 C 342.839844 306.84375 342.789062 307.109375 342.867188 307.351562 L 344.804688 313.585938 L 338.679688 311.332031 C 338.441406 311.246094 338.171875 311.28125 337.964844 311.429688 L 332.632812 315.199219 L 332.882812 308.675781 C 332.894531 308.421875 332.777344 308.175781 332.570312 308.023438 L 327.339844 304.121094 Z M 333.769531 304.652344 C 333.695312 304.109375 334.078125 303.613281 334.617188 303.542969 C 335.15625 303.472656 335.652344 303.851562 335.722656 304.390625 C 335.792969 304.929688 335.414062 305.425781 334.875 305.5 C 334.335938 305.570312 333.839844 305.191406 333.769531 304.652344 Z M 339.003906 303.957031 C 338.933594 303.417969 339.3125 302.921875 339.851562 302.851562 C 340.390625 302.777344 340.886719 303.160156 340.957031 303.699219 C 341.027344 304.238281 340.648438 304.734375 340.109375 304.804688 C 339.570312 304.878906 339.074219 304.496094 339.003906 303.957031 Z M 337.453125 280.886719 C 323.449219 280.886719 312.054688 292.277344 312.054688 306.28125 C 312.054688 320.289062 323.449219 331.679688 337.453125 331.679688 C 351.457031 331.679688 362.851562 320.289062 362.851562 306.28125 C 362.851562 292.277344 351.457031 280.886719 337.453125 280.886719 Z M 337.453125 330.132812 C 324.304688 330.132812 313.605469 319.433594 313.605469 306.285156 C 313.605469 293.136719 324.304688 282.4375 337.453125 282.4375 C 350.601562 282.4375 361.300781 293.136719 361.300781 306.285156 C 361.300781 319.433594 350.605469 330.132812 337.453125 330.132812 Z M 336.394531 305.683594 C 336.820312 305.628906 337.207031 305.929688 337.265625 306.351562 C 337.285156 306.488281 337.363281 306.570312 337.414062 306.605469 C 337.460938 306.640625 337.558594 306.699219 337.695312 306.679688 C 337.90625 306.652344 338.054688 306.460938 338.023438 306.25 C 337.96875 305.824219 338.269531 305.4375 338.691406 305.378906 C 339.117188 305.324219 339.503906 305.621094 339.5625 306.046875 C 339.628906 306.558594 339.496094 307.066406 339.179688 307.476562 C 338.867188 307.886719 338.410156 308.148438 337.898438 308.21875 C 337.8125 308.230469 337.726562 308.234375 337.640625 308.234375 C 337.21875 308.234375 336.808594 308.097656 336.46875 307.835938 C 336.058594 307.523438 335.796875 307.066406 335.726562 306.554688 C 335.671875 306.128906 335.972656 305.742188 336.394531 305.683594 Z M 325.328125 289.011719 C 325.238281 288.835938 325.21875 288.644531 325.273438 288.464844 C 325.328125 288.285156 325.453125 288.140625 325.628906 288.046875 L 329.171875 286.1875 C 329.347656 286.097656 329.535156 286.078125 329.714844 286.136719 C 329.898438 286.191406 330.042969 286.316406 330.132812 286.492188 C 330.222656 286.660156 330.242188 286.847656 330.183594 287.027344 C 330.128906 287.210938 330.003906 287.351562 329.828125 287.445312 L 328.703125 288.035156 L 330.75 291.933594 C 330.839844 292.105469 330.859375 292.296875 330.804688 292.484375 C 330.75 292.675781 330.625 292.832031 330.441406 292.925781 C 330.332031 292.980469 330.21875 293.011719 330.101562 293.011719 C 330.027344 293.011719 329.953125 293 329.878906 292.976562 C 329.691406 292.914062 329.539062 292.792969 329.449219 292.617188 L 327.402344 288.71875 L 326.285156 289.304688 C 326.109375 289.398438 325.921875 289.414062 325.742188 289.359375 C 325.5625 289.300781 325.417969 289.183594 325.328125 289.011719 Z M 322.683594 300.265625 L 318.257812 297.761719 C 318.085938 297.664062 317.964844 297.511719 317.914062 297.316406 C 317.859375 297.125 317.882812 296.933594 317.980469 296.757812 C 318.078125 296.585938 318.230469 296.46875 318.421875 296.414062 C 318.617188 296.363281 318.808594 296.386719 318.980469 296.480469 L 322.792969 298.636719 L 323.960938 296.570312 C 324.054688 296.402344 324.199219 296.285156 324.378906 296.226562 C 324.425781 296.210938 324.472656 296.203125 324.519531 296.195312 L 321.269531 292.867188 C 321.128906 292.71875 321.054688 292.539062 321.058594 292.34375 C 321.058594 292.148438 321.136719 291.96875 321.28125 291.828125 L 323.710938 289.457031 C 323.847656 289.324219 324.019531 289.25 324.210938 289.242188 C 324.40625 289.234375 324.597656 289.3125 324.746094 289.464844 C 324.882812 289.605469 324.953125 289.785156 324.945312 289.988281 C 324.9375 290.183594 324.863281 290.355469 324.722656 290.492188 L 322.820312 292.347656 L 323.582031 293.128906 L 324.878906 291.867188 C 325.023438 291.726562 325.199219 291.652344 325.394531 291.652344 C 325.398438 291.652344 325.398438 291.652344 325.398438 291.652344 C 325.597656 291.65625 325.773438 291.730469 325.910156 291.871094 C 326.050781 292.015625 326.121094 292.195312 326.117188 292.386719 C 326.117188 292.585938 326.039062 292.761719 325.894531 292.90625 L 324.597656 294.171875 L 325.375 294.96875 L 327.277344 293.113281 C 327.414062 292.976562 327.589844 292.902344 327.785156 292.902344 C 327.996094 292.902344 328.171875 292.976562 328.304688 293.113281 C 328.453125 293.265625 328.523438 293.453125 328.511719 293.65625 C 328.5 293.84375 328.425781 294.015625 328.289062 294.148438 L 325.859375 296.515625 C 325.714844 296.65625 325.539062 296.730469 325.347656 296.730469 C 325.328125 296.730469 325.308594 296.726562 325.292969 296.726562 C 325.292969 296.730469 325.292969 296.734375 325.296875 296.742188 C 325.339844 296.925781 325.3125 297.109375 325.21875 297.277344 L 323.6875 299.984375 C 323.589844 300.152344 323.441406 300.273438 323.257812 300.328125 C 323.1875 300.351562 323.117188 300.359375 323.046875 300.359375 C 322.921875 300.363281 322.800781 300.328125 322.683594 300.265625 Z M 357.941406 313.257812 C 357.875 313.445312 357.746094 313.589844 357.566406 313.679688 C 357.390625 313.765625 357.195312 313.777344 357.007812 313.714844 L 352.84375 312.292969 L 352.433594 313.488281 C 352.398438 313.59375 352.34375 313.683594 352.277344 313.757812 C 352.367188 313.800781 352.433594 313.859375 352.480469 313.910156 C 352.617188 314.058594 352.679688 314.246094 352.664062 314.453125 L 352.660156 314.484375 C 352.625 314.679688 352.527344 314.84375 352.375 314.964844 C 352.226562 315.078125 352.050781 315.128906 351.863281 315.117188 C 351.78125 315.117188 351.683594 315.128906 351.578125 315.152344 C 351.492188 315.171875 351.402344 315.210938 351.316406 315.273438 C 351.222656 315.335938 351.128906 315.4375 351.03125 315.574219 C 350.875 315.800781 350.796875 316.011719 350.796875 316.199219 C 350.796875 316.332031 350.851562 316.425781 350.984375 316.515625 C 351.050781 316.558594 351.117188 316.582031 351.195312 316.585938 C 351.265625 316.589844 351.367188 316.558594 351.492188 316.488281 C 351.644531 316.402344 351.820312 316.25 352.019531 316.039062 C 352.496094 315.519531 352.988281 315.207031 353.476562 315.109375 C 354 315.003906 354.503906 315.117188 354.980469 315.445312 C 355.25 315.628906 355.460938 315.847656 355.605469 316.097656 C 355.753906 316.347656 355.839844 316.625 355.863281 316.910156 C 355.882812 317.183594 355.847656 317.46875 355.761719 317.75 C 355.679688 318.023438 355.550781 318.289062 355.375 318.539062 C 355.175781 318.832031 354.9375 319.082031 354.679688 319.277344 C 354.410156 319.476562 354.125 319.621094 353.824219 319.699219 C 353.632812 319.75 353.441406 319.777344 353.253906 319.777344 C 353.136719 319.777344 353.023438 319.769531 352.910156 319.75 C 352.6875 319.71875 352.5 319.585938 352.402344 319.386719 C 352.34375 319.261719 352.289062 319.0625 352.375 318.8125 C 352.433594 318.636719 352.550781 318.496094 352.71875 318.40625 C 352.867188 318.328125 353.035156 318.296875 353.203125 318.320312 C 353.292969 318.332031 353.390625 318.320312 353.5 318.289062 C 353.617188 318.25 353.734375 318.1875 353.847656 318.097656 C 353.96875 318.003906 354.085938 317.875 354.191406 317.726562 C 354.300781 317.566406 354.371094 317.410156 354.398438 317.261719 C 354.425781 317.132812 354.417969 317.019531 354.378906 316.914062 C 354.34375 316.816406 354.269531 316.734375 354.15625 316.652344 C 354.015625 316.554688 353.871094 316.527344 353.691406 316.5625 C 353.492188 316.601562 353.269531 316.757812 353.03125 317.03125 C 352.59375 317.523438 352.121094 317.835938 351.617188 317.960938 C 351.074219 318.097656 350.574219 318.007812 350.125 317.699219 C 349.804688 317.480469 349.582031 317.195312 349.457031 316.851562 C 349.339844 316.523438 349.320312 316.164062 349.394531 315.792969 C 349.464844 315.441406 349.621094 315.085938 349.855469 314.742188 C 350.035156 314.480469 350.25 314.265625 350.488281 314.101562 C 350.722656 313.941406 350.96875 313.828125 351.21875 313.757812 C 351.226562 313.757812 351.234375 313.753906 351.242188 313.753906 C 351.195312 313.703125 351.15625 313.640625 351.121094 313.578125 C 351.039062 313.40625 351.027344 313.21875 351.09375 313.03125 L 352.382812 309.246094 C 352.449219 309.058594 352.570312 308.914062 352.738281 308.832031 C 352.910156 308.746094 353.101562 308.738281 353.289062 308.800781 C 353.46875 308.863281 353.609375 308.984375 353.695312 309.15625 C 353.777344 309.328125 353.789062 309.515625 353.722656 309.703125 L 353.316406 310.90625 L 357.480469 312.324219 C 357.664062 312.386719 357.808594 312.511719 357.898438 312.683594 C 357.992188 312.863281 358.007812 313.058594 357.941406 313.257812 Z M 345.679688 292.386719 C 345.71875 292.8125 345.847656 293.222656 346.058594 293.609375 C 346.265625 293.992188 346.558594 294.339844 346.929688 294.640625 C 347.296875 294.9375 347.695312 295.15625 348.117188 295.28125 C 348.425781 295.375 348.746094 295.421875 349.0625 295.421875 C 349.171875 295.421875 349.28125 295.417969 349.386719 295.40625 C 349.8125 295.363281 350.222656 295.234375 350.609375 295.023438 C 350.992188 294.8125 351.335938 294.515625 351.636719 294.148438 C 351.933594 293.78125 352.148438 293.382812 352.277344 292.96875 C 352.40625 292.546875 352.449219 292.121094 352.40625 291.695312 C 352.363281 291.269531 352.234375 290.859375 352.023438 290.472656 C 351.816406 290.089844 351.523438 289.742188 351.15625 289.445312 C 350.785156 289.144531 350.386719 288.925781 349.96875 288.800781 C 349.546875 288.675781 349.117188 288.632812 348.695312 288.679688 C 348.273438 288.722656 347.863281 288.855469 347.480469 289.066406 C 347.097656 289.277344 346.753906 289.570312 346.457031 289.933594 C 346.15625 290.304688 345.9375 290.703125 345.808594 291.121094 C 345.679688 291.535156 345.636719 291.964844 345.679688 292.386719 Z M 347.207031 291.535156 C 347.28125 291.296875 347.40625 291.066406 347.582031 290.851562 C 347.753906 290.640625 347.953125 290.472656 348.171875 290.351562 C 348.390625 290.230469 348.621094 290.15625 348.859375 290.128906 C 348.925781 290.121094 348.988281 290.117188 349.054688 290.117188 C 349.226562 290.117188 349.398438 290.140625 349.566406 290.191406 C 349.804688 290.261719 350.035156 290.386719 350.246094 290.558594 C 350.457031 290.730469 350.625 290.929688 350.742188 291.144531 C 350.859375 291.363281 350.925781 291.589844 350.949219 291.828125 C 350.972656 292.066406 350.945312 292.308594 350.871094 292.542969 C 350.796875 292.785156 350.675781 293.011719 350.5 293.222656 C 350.328125 293.4375 350.125 293.609375 349.90625 293.730469 C 349.691406 293.851562 349.460938 293.925781 349.222656 293.953125 C 348.984375 293.980469 348.746094 293.957031 348.511719 293.886719 C 348.277344 293.816406 348.050781 293.695312 347.839844 293.523438 C 347.625 293.347656 347.457031 293.148438 347.339844 292.933594 C 347.222656 292.714844 347.152344 292.488281 347.128906 292.25 C 347.109375 292.015625 347.136719 291.773438 347.207031 291.535156 Z M 330.402344 286.613281 C 330.332031 286.386719 330.355469 286.164062 330.460938 285.964844 C 330.570312 285.773438 330.738281 285.640625 330.953125 285.574219 C 331.210938 285.496094 331.46875 285.542969 331.6875 285.714844 C 331.859375 285.847656 331.988281 286.050781 332.066406 286.3125 C 332.113281 286.464844 332.136719 286.632812 332.132812 286.835938 C 332.132812 287.007812 332.117188 287.183594 332.089844 287.355469 C 332.0625 287.550781 332.015625 287.714844 331.953125 287.859375 C 331.851562 288.097656 331.699219 288.25 331.503906 288.308594 L 331.492188 288.3125 C 331.4375 288.328125 331.378906 288.335938 331.320312 288.335938 C 331.1875 288.335938 331.054688 288.292969 330.941406 288.210938 C 330.753906 288.078125 330.660156 287.863281 330.683594 287.628906 C 330.703125 287.445312 330.695312 287.347656 330.6875 287.308594 C 330.671875 287.207031 330.652344 287.152344 330.636719 287.121094 C 330.613281 287.0625 330.585938 287.007812 330.554688 286.957031 C 330.492188 286.855469 330.441406 286.742188 330.402344 286.613281 Z M 333.0625 286.839844 C 333.019531 286.453125 333.089844 286.09375 333.269531 285.777344 C 333.441406 285.476562 333.695312 285.226562 334.023438 285.035156 C 334.335938 284.859375 334.707031 284.746094 335.121094 284.699219 C 335.4375 284.664062 335.742188 284.683594 336.019531 284.757812 C 336.292969 284.832031 336.542969 284.941406 336.757812 285.085938 C 336.972656 285.230469 337.15625 285.398438 337.304688 285.589844 C 337.46875 285.796875 337.484375 286.003906 337.46875 286.136719 C 337.445312 286.339844 337.34375 286.507812 337.175781 286.628906 L 337.152344 286.648438 C 336.980469 286.753906 336.792969 286.785156 336.605469 286.746094 C 336.421875 286.707031 336.265625 286.609375 336.152344 286.464844 C 336.097656 286.398438 336.023438 286.332031 335.941406 286.269531 C 335.867188 286.21875 335.78125 286.179688 335.675781 286.152344 C 335.566406 286.125 335.425781 286.117188 335.261719 286.132812 C 334.988281 286.164062 334.773438 286.242188 334.636719 286.363281 C 334.535156 286.453125 334.5 286.554688 334.519531 286.714844 C 334.527344 286.792969 334.554688 286.855469 334.601562 286.917969 C 334.636719 286.960938 334.710938 287.019531 334.871094 287.078125 C 335.035156 287.140625 335.265625 287.175781 335.558594 287.183594 C 336.261719 287.203125 336.816406 287.371094 337.214844 287.675781 C 337.636719 288 337.882812 288.457031 337.945312 289.03125 C 337.980469 289.355469 337.953125 289.660156 337.859375 289.933594 C 337.769531 290.210938 337.617188 290.453125 337.414062 290.660156 C 337.21875 290.855469 336.984375 291.011719 336.714844 291.132812 C 336.453125 291.25 336.167969 291.324219 335.863281 291.359375 C 335.738281 291.371094 335.609375 291.378906 335.484375 291.378906 C 335.265625 291.378906 335.054688 291.359375 334.851562 291.3125 C 334.523438 291.242188 334.230469 291.117188 333.972656 290.945312 C 333.710938 290.765625 333.496094 290.542969 333.335938 290.285156 C 333.214844 290.097656 333.191406 289.867188 333.28125 289.664062 C 333.332031 289.535156 333.449219 289.363281 333.695312 289.265625 C 333.867188 289.195312 334.050781 289.195312 334.226562 289.261719 C 334.382812 289.324219 334.515625 289.429688 334.609375 289.574219 C 334.65625 289.648438 334.730469 289.714844 334.828125 289.773438 C 334.929688 289.839844 335.054688 289.882812 335.199219 289.914062 C 335.351562 289.941406 335.519531 289.945312 335.703125 289.925781 C 335.898438 289.90625 336.0625 289.859375 336.195312 289.78125 C 336.308594 289.714844 336.390625 289.636719 336.445312 289.539062 C 336.492188 289.449219 336.507812 289.339844 336.492188 289.203125 C 336.476562 289.027344 336.402344 288.902344 336.257812 288.789062 C 336.097656 288.667969 335.835938 288.601562 335.472656 288.597656 C 334.8125 288.589844 334.265625 288.4375 333.84375 288.140625 C 333.386719 287.816406 333.125 287.378906 333.0625 286.839844 Z M 346.019531 322.625 C 345.898438 322.558594 345.769531 322.503906 345.640625 322.464844 C 345.65625 322.417969 345.667969 322.367188 345.679688 322.320312 C 345.761719 321.992188 345.738281 321.65625 345.613281 321.328125 C 345.484375 320.984375 345.277344 320.710938 345.003906 320.507812 C 344.734375 320.3125 344.429688 320.191406 344.089844 320.152344 C 343.753906 320.113281 343.414062 320.15625 343.074219 320.285156 L 341.433594 320.910156 C 341.242188 320.984375 341.101562 321.117188 341.019531 321.296875 C 340.9375 321.472656 340.933594 321.667969 341.007812 321.859375 L 342.816406 326.613281 C 342.894531 326.816406 343.046875 326.96875 343.246094 327.039062 C 343.328125 327.066406 343.410156 327.082031 343.5 327.082031 C 343.597656 327.082031 343.699219 327.0625 343.796875 327.023438 L 345.519531 326.367188 C 345.90625 326.21875 346.226562 326.003906 346.46875 325.71875 C 346.714844 325.433594 346.875 325.101562 346.941406 324.730469 C 347.003906 324.363281 346.964844 323.984375 346.820312 323.601562 C 346.648438 323.160156 346.378906 322.832031 346.019531 322.625 Z M 342.957031 322.851562 L 342.632812 322 L 343.589844 321.636719 C 343.761719 321.570312 343.910156 321.558594 344.039062 321.601562 C 344.082031 321.613281 344.175781 321.644531 344.253906 321.84375 C 344.328125 322.039062 344.292969 322.144531 344.257812 322.214844 C 344.191406 322.335938 344.078125 322.425781 343.914062 322.488281 Z M 345.5 324.496094 C 345.480469 324.605469 345.433594 324.703125 345.355469 324.789062 C 345.269531 324.882812 345.15625 324.957031 345.007812 325.015625 L 343.933594 325.421875 L 343.472656 324.207031 L 344.542969 323.796875 C 344.691406 323.742188 344.832031 323.71875 344.957031 323.730469 C 345.074219 323.742188 345.171875 323.78125 345.257812 323.84375 C 345.339844 323.910156 345.402344 324 345.449219 324.121094 C 345.507812 324.261719 345.519531 324.382812 345.5 324.496094 Z M 340.714844 291.445312 L 341.945312 291.871094 C 342.339844 292.011719 342.738281 292.078125 343.121094 292.078125 C 343.167969 292.078125 343.210938 292.078125 343.257812 292.078125 C 343.691406 292.058594 344.097656 291.957031 344.476562 291.769531 C 344.847656 291.585938 345.179688 291.332031 345.460938 291.003906 C 345.742188 290.683594 345.960938 290.292969 346.117188 289.847656 C 346.273438 289.402344 346.339844 288.964844 346.320312 288.539062 C 346.300781 288.109375 346.199219 287.703125 346.019531 287.328125 C 345.839844 286.953125 345.582031 286.617188 345.257812 286.335938 C 344.933594 286.054688 344.542969 285.835938 344.101562 285.679688 L 342.871094 285.253906 C 342.679688 285.183594 342.484375 285.195312 342.308594 285.28125 C 342.132812 285.367188 342.003906 285.511719 341.9375 285.703125 L 340.265625 290.507812 C 340.199219 290.699219 340.207031 290.894531 340.292969 291.070312 C 340.378906 291.25 340.523438 291.375 340.714844 291.445312 Z M 343.101562 286.828125 L 343.636719 287.015625 C 343.980469 287.132812 344.253906 287.3125 344.457031 287.546875 C 344.660156 287.785156 344.785156 288.050781 344.839844 288.367188 C 344.890625 288.683594 344.855469 289.019531 344.734375 289.367188 C 344.613281 289.714844 344.433594 290.003906 344.195312 290.214844 C 343.957031 290.429688 343.691406 290.5625 343.382812 290.625 C 343.078125 290.6875 342.75 290.65625 342.410156 290.539062 L 341.875 290.351562 Z M 338.382812 322.535156 C 338.207031 322.1875 337.949219 321.90625 337.617188 321.695312 C 337.289062 321.492188 336.910156 321.371094 336.484375 321.339844 L 335.136719 321.242188 C 334.9375 321.226562 334.75 321.289062 334.601562 321.417969 C 334.453125 321.546875 334.367188 321.722656 334.351562 321.925781 L 333.984375 326.996094 C 333.972656 327.199219 334.03125 327.382812 334.160156 327.53125 C 334.289062 327.683594 334.464844 327.769531 334.664062 327.78125 C 334.867188 327.796875 335.054688 327.734375 335.203125 327.609375 C 335.351562 327.480469 335.4375 327.304688 335.453125 327.101562 L 335.558594 325.625 L 336.050781 325.664062 L 337.078125 327.589844 C 337.132812 327.703125 337.207031 327.792969 337.292969 327.859375 C 337.398438 327.941406 337.53125 327.988281 337.683594 328 C 337.707031 328 337.730469 328.003906 337.753906 328.003906 C 338.113281 328.003906 338.296875 327.796875 338.371094 327.675781 C 338.453125 327.546875 338.558594 327.277344 338.371094 326.921875 L 337.554688 325.378906 C 337.820312 325.230469 338.039062 325.027344 338.21875 324.78125 C 338.441406 324.472656 338.570312 324.105469 338.597656 323.695312 C 338.628906 323.273438 338.554688 322.882812 338.382812 322.535156 Z M 337.148438 323.589844 C 337.140625 323.722656 337.097656 323.835938 337.027344 323.933594 C 336.953125 324.035156 336.855469 324.109375 336.730469 324.164062 C 336.601562 324.21875 336.453125 324.238281 336.28125 324.226562 L 335.664062 324.183594 L 335.765625 322.742188 L 336.382812 322.785156 C 336.554688 322.796875 336.699219 322.839844 336.816406 322.914062 C 336.933594 322.988281 337.015625 323.078125 337.078125 323.195312 C 337.136719 323.308594 337.160156 323.4375 337.148438 323.589844 Z M 333.980469 321.953125 L 332.660156 325.195312 C 332.480469 325.632812 332.207031 325.980469 331.847656 326.234375 C 331.492188 326.488281 331.082031 326.632812 330.628906 326.667969 C 330.558594 326.675781 330.492188 326.675781 330.421875 326.675781 C 330.042969 326.675781 329.652344 326.59375 329.257812 326.433594 C 328.789062 326.242188 328.398438 325.976562 328.105469 325.640625 C 327.796875 325.292969 327.605469 324.898438 327.527344 324.46875 C 327.445312 324.035156 327.496094 323.59375 327.675781 323.160156 L 329 319.917969 C 329.078125 319.726562 329.210938 319.589844 329.394531 319.511719 C 329.574219 319.4375 329.769531 319.4375 329.957031 319.515625 C 330.144531 319.589844 330.285156 319.726562 330.359375 319.90625 C 330.4375 320.089844 330.4375 320.285156 330.359375 320.472656 L 329.035156 323.714844 C 328.960938 323.894531 328.941406 324.066406 328.972656 324.234375 C 329.007812 324.40625 329.089844 324.566406 329.226562 324.714844 C 329.367188 324.871094 329.5625 325.003906 329.800781 325.101562 C 330.035156 325.195312 330.257812 325.238281 330.464844 325.222656 C 330.664062 325.207031 330.832031 325.152344 330.980469 325.050781 C 331.121094 324.953125 331.226562 324.820312 331.296875 324.636719 L 332.621094 321.394531 C 332.699219 321.207031 332.835938 321.066406 333.015625 320.992188 C 333.195312 320.914062 333.390625 320.917969 333.578125 320.992188 C 333.828125 321.09375 333.941406 321.269531 333.988281 321.398438 C 334.058594 321.578125 334.058594 321.769531 333.980469 321.953125 Z M 352.5 321.046875 C 352.628906 321.210938 352.679688 321.40625 352.648438 321.609375 C 352.617188 321.792969 352.523438 321.957031 352.375 322.074219 L 349.714844 324.179688 C 349.582031 324.289062 349.421875 324.34375 349.257812 324.34375 C 349.230469 324.34375 349.203125 324.339844 349.175781 324.335938 C 348.980469 324.316406 348.808594 324.21875 348.683594 324.058594 L 345.523438 320.074219 C 345.394531 319.914062 345.34375 319.730469 345.363281 319.53125 C 345.386719 319.335938 345.480469 319.167969 345.640625 319.042969 L 348.300781 316.933594 C 348.449219 316.816406 348.628906 316.761719 348.816406 316.773438 C 349.019531 316.789062 349.199219 316.882812 349.328125 317.046875 C 349.449219 317.199219 349.5 317.386719 349.472656 317.589844 C 349.445312 317.78125 349.351562 317.949219 349.199219 318.066406 L 347.117188 319.71875 L 347.796875 320.574219 L 349.214844 319.449219 C 349.375 319.320312 349.5625 319.269531 349.757812 319.289062 C 349.953125 319.3125 350.121094 319.40625 350.242188 319.5625 C 350.367188 319.714844 350.417969 319.902344 350.394531 320.097656 C 350.375 320.292969 350.277344 320.460938 350.117188 320.585938 L 348.699219 321.710938 L 349.390625 322.585938 L 351.472656 320.933594 C 351.625 320.8125 351.808594 320.757812 352.003906 320.777344 C 352.207031 320.800781 352.375 320.890625 352.5 321.046875 Z M 328.171875 319.492188 C 328.160156 319.066406 328.066406 318.648438 327.886719 318.246094 C 327.707031 317.847656 327.441406 317.480469 327.101562 317.152344 C 326.753906 316.824219 326.371094 316.578125 325.960938 316.421875 C 325.554688 316.261719 325.128906 316.1875 324.703125 316.199219 C 324.277344 316.210938 323.859375 316.308594 323.460938 316.492188 C 323.066406 316.671875 322.699219 316.9375 322.375 317.277344 C 322.046875 317.625 321.796875 318.003906 321.640625 318.410156 C 321.476562 318.816406 321.402344 319.238281 321.410156 319.664062 C 321.417969 320.089844 321.515625 320.507812 321.695312 320.910156 C 321.871094 321.3125 322.136719 321.679688 322.484375 322.007812 C 322.828125 322.335938 323.207031 322.582031 323.613281 322.738281 C 324 322.886719 324.394531 322.960938 324.792969 322.960938 C 324.820312 322.960938 324.847656 322.960938 324.875 322.960938 C 325.300781 322.949219 325.722656 322.851562 326.121094 322.667969 C 326.519531 322.488281 326.886719 322.222656 327.214844 321.878906 C 327.539062 321.535156 327.785156 321.15625 327.945312 320.75 C 328.109375 320.34375 328.183594 319.921875 328.171875 319.492188 Z M 326.578125 320.226562 C 326.484375 320.457031 326.34375 320.675781 326.15625 320.875 C 325.964844 321.074219 325.753906 321.230469 325.527344 321.332031 C 325.300781 321.4375 325.0625 321.492188 324.824219 321.5 C 324.585938 321.507812 324.347656 321.46875 324.121094 321.382812 C 323.890625 321.296875 323.675781 321.15625 323.476562 320.96875 C 323.277344 320.777344 323.125 320.566406 323.027344 320.339844 C 322.925781 320.117188 322.875 319.882812 322.871094 319.644531 C 322.867188 319.40625 322.914062 319.167969 323.003906 318.9375 C 323.09375 318.703125 323.238281 318.484375 323.429688 318.28125 C 323.617188 318.085938 323.828125 317.933594 324.058594 317.828125 C 324.285156 317.726562 324.519531 317.667969 324.757812 317.660156 C 324.777344 317.660156 324.800781 317.660156 324.820312 317.660156 C 325.039062 317.660156 325.253906 317.699219 325.460938 317.78125 C 325.691406 317.867188 325.910156 318.007812 326.109375 318.199219 C 326.304688 318.386719 326.457031 318.597656 326.558594 318.820312 C 326.65625 319.046875 326.707031 319.28125 326.710938 319.515625 C 326.714844 319.753906 326.667969 319.992188 326.578125 320.226562 Z M 326.578125 320.226562 " fill-opacity="1" fill-rule="nonzero"/><g clip-path="url(#716dbf52ed)"><path fill="#fb3b00" d="M 318.492188 345.761719 C 318.492188 348.210938 318.210938 350.632812 317.652344 352.988281 C 317.238281 354.71875 315.425781 355.703125 313.761719 355.105469 L 308.542969 353.234375 C 305.488281 361.832031 297.324219 367.996094 287.753906 367.996094 C 275.585938 367.996094 265.6875 358.023438 265.6875 345.761719 C 265.6875 344.078125 265.875 342.4375 266.226562 340.859375 L 264.421875 341.742188 C 264.042969 341.929688 263.597656 341.910156 263.230469 341.695312 L 257.859375 338.503906 L 251.085938 334.476562 C 250.242188 333.972656 250.265625 332.738281 251.125 332.269531 L 253.625 330.90625 C 253.328125 330.441406 253.097656 329.921875 252.957031 329.363281 C 252.609375 328.003906 252.808594 326.585938 253.515625 325.371094 C 254.226562 324.160156 255.363281 323.300781 256.714844 322.949219 C 257.265625 322.804688 257.824219 322.753906 258.378906 322.792969 L 258.351562 319.929688 C 258.339844 318.945312 259.40625 318.324219 260.25 318.828125 L 267.050781 322.871094 C 272.71875 317.652344 280.015625 314.796875 287.753906 314.796875 C 295.96875 314.796875 303.691406 318.015625 309.492188 323.859375 C 315.296875 329.707031 318.492188 337.484375 318.492188 345.761719 Z M 318.492188 345.761719 " fill-opacity="1" fill-rule="nonzero"/></g><path fill="#000000" d="M 287.753906 327.113281 C 281.273438 327.113281 275.5625 330.488281 272.257812 335.582031 L 269.8125 334.128906 L 269.542969 328.933594 C 269.527344 328.667969 269.378906 328.421875 269.152344 328.289062 L 263.164062 324.726562 C 262.917969 324.578125 262.609375 324.578125 262.363281 324.722656 C 262.113281 324.867188 261.960938 325.136719 261.964844 325.425781 L 262 329.484375 L 258.421875 327.359375 C 258.042969 327.132812 257.558594 327.261719 257.332031 327.640625 C 257.109375 328.023438 257.234375 328.515625 257.613281 328.742188 L 261.191406 330.867188 L 257.648438 332.796875 C 257.394531 332.933594 257.234375 333.199219 257.230469 333.488281 C 257.226562 333.777344 257.375 334.046875 257.621094 334.191406 L 263.609375 337.75 C 263.734375 337.824219 263.875 337.863281 264.015625 337.863281 C 264.132812 337.863281 264.25 337.835938 264.359375 337.78125 L 269.003906 335.507812 L 271.441406 336.957031 C 270.042969 339.582031 269.246094 342.578125 269.246094 345.761719 C 269.246094 356.042969 277.546875 364.40625 287.753906 364.40625 C 297.960938 364.40625 306.261719 356.042969 306.261719 345.761719 C 306.261719 335.480469 297.960938 327.113281 287.753906 327.113281 Z M 263.570312 326.832031 L 267.976562 329.449219 L 268.167969 333.152344 L 263.601562 330.4375 Z M 264.050781 336.152344 L 259.644531 333.53125 L 262.792969 331.816406 L 267.359375 334.53125 Z M 287.753906 362.804688 C 278.425781 362.804688 270.835938 355.160156 270.835938 345.761719 C 270.835938 342.875 271.554688 340.15625 272.816406 337.773438 L 276.535156 339.984375 C 275.652344 341.71875 275.148438 343.683594 275.148438 345.761719 C 275.148438 352.765625 280.804688 358.460938 287.753906 358.460938 C 294.703125 358.460938 300.359375 352.761719 300.359375 345.761719 C 300.359375 338.757812 294.703125 333.0625 287.753906 333.0625 C 283.4375 333.0625 279.621094 335.261719 277.347656 338.605469 L 273.628906 336.394531 C 276.65625 331.777344 281.855469 328.71875 287.753906 328.71875 C 297.082031 328.71875 304.671875 336.367188 304.671875 345.761719 C 304.671875 355.160156 297.082031 362.804688 287.753906 362.804688 Z M 288.339844 345.140625 L 283.835938 342.460938 C 284.777344 341.332031 286.183594 340.613281 287.753906 340.613281 C 290.570312 340.613281 292.863281 342.921875 292.863281 345.761719 C 292.863281 348.601562 290.574219 350.910156 287.753906 350.910156 C 284.941406 350.910156 282.648438 348.601562 282.648438 345.761719 C 282.648438 345.082031 282.777344 344.433594 283.019531 343.839844 L 287.53125 346.519531 C 287.660156 346.59375 287.796875 346.628906 287.9375 346.628906 C 288.207031 346.628906 288.472656 346.488281 288.621094 346.234375 C 288.84375 345.855469 288.71875 345.367188 288.339844 345.140625 Z M 287.753906 352.511719 C 291.449219 352.511719 294.453125 349.484375 294.453125 345.761719 C 294.453125 342.039062 291.449219 339.011719 287.753906 339.011719 C 285.597656 339.011719 283.679688 340.042969 282.453125 341.640625 L 278.722656 339.421875 C 280.714844 336.550781 284.019531 334.664062 287.753906 334.664062 C 293.828125 334.664062 298.765625 339.644531 298.765625 345.761719 C 298.765625 351.878906 293.828125 356.855469 287.753906 356.855469 C 281.683594 356.855469 276.742188 351.878906 276.742188 345.761719 C 276.742188 343.976562 277.164062 342.292969 277.910156 340.800781 L 281.636719 343.015625 C 281.261719 343.851562 281.054688 344.78125 281.054688 345.757812 C 281.054688 349.484375 284.058594 352.511719 287.753906 352.511719 Z M 273.183594 326.621094 C 272.699219 325.785156 272.585938 324.914062 272.847656 324.011719 C 273.105469 323.109375 273.632812 322.421875 274.425781 321.957031 C 275.042969 321.59375 275.742188 321.453125 276.527344 321.542969 C 276.730469 321.566406 276.867188 321.640625 276.941406 321.769531 C 277.015625 321.898438 277.042969 322.082031 277.019531 322.320312 C 276.976562 322.71875 276.871094 322.96875 276.707031 323.066406 C 276.605469 323.121094 276.40625 323.144531 276.101562 323.128906 C 275.800781 323.113281 275.496094 323.195312 275.191406 323.371094 C 274.796875 323.605469 274.527344 323.953125 274.382812 324.417969 C 274.238281 324.878906 274.296875 325.335938 274.558594 325.792969 C 274.824219 326.246094 275.203125 326.542969 275.699219 326.675781 C 276.199219 326.808594 276.644531 326.757812 277.042969 326.527344 C 277.328125 326.359375 277.558594 326.15625 277.734375 325.929688 L 277.234375 325.066406 L 276.617188 325.433594 C 276.457031 325.527344 276.328125 325.574219 276.238281 325.570312 C 276.144531 325.570312 276.066406 325.535156 275.996094 325.464844 C 275.929688 325.394531 275.855469 325.292969 275.773438 325.152344 C 275.691406 325.011719 275.640625 324.894531 275.613281 324.796875 C 275.589844 324.699219 275.597656 324.613281 275.644531 324.546875 C 275.710938 324.441406 275.820312 324.34375 275.976562 324.253906 L 277.355469 323.445312 C 277.644531 323.289062 277.859375 323.261719 278 323.359375 C 278.109375 323.429688 278.222656 323.5625 278.335938 323.757812 L 279.339844 325.488281 C 279.4375 325.660156 279.457031 325.863281 279.402344 326.097656 C 279.226562 326.816406 278.703125 327.429688 277.828125 327.945312 C 277.050781 328.402344 276.203125 328.503906 275.285156 328.253906 C 274.371094 328 273.667969 327.457031 273.183594 326.621094 Z M 280.972656 325.332031 C 281.742188 325.851562 282.578125 326.011719 283.476562 325.816406 C 284.371094 325.621094 285.058594 325.125 285.53125 324.328125 C 286.003906 323.53125 286.136719 322.664062 285.9375 321.71875 C 285.734375 320.777344 285.242188 320.054688 284.464844 319.558594 C 283.683594 319.0625 282.855469 318.910156 281.980469 319.097656 C 281.574219 319.1875 281.195312 319.355469 280.847656 319.605469 C 280.5 319.855469 280.210938 320.160156 279.976562 320.515625 C 279.742188 320.871094 279.582031 321.285156 279.5 321.753906 C 279.414062 322.222656 279.425781 322.707031 279.53125 323.199219 C 279.722656 324.105469 280.203125 324.816406 280.972656 325.332031 Z M 281.316406 321.414062 C 281.582031 321.011719 281.925781 320.761719 282.34375 320.671875 C 282.761719 320.582031 283.179688 320.664062 283.589844 320.917969 C 283.996094 321.171875 284.257812 321.570312 284.375 322.109375 C 284.492188 322.652344 284.414062 323.117188 284.148438 323.511719 C 283.878906 323.90625 283.535156 324.148438 283.117188 324.242188 C 282.699219 324.332031 282.28125 324.25 281.871094 323.992188 C 281.460938 323.734375 281.199219 323.34375 281.085938 322.8125 C 280.972656 322.285156 281.050781 321.820312 281.316406 321.414062 Z M 286.824219 325.011719 C 287.023438 325.132812 287.179688 325.199219 287.296875 325.210938 C 287.414062 325.21875 287.511719 325.199219 287.59375 325.148438 C 287.671875 325.097656 287.730469 325.046875 287.769531 324.996094 C 287.808594 324.941406 287.863281 324.859375 287.933594 324.742188 L 288.492188 323.804688 L 290.992188 324.027344 L 291.375 325.054688 C 291.425781 325.179688 291.460938 325.273438 291.492188 325.339844 C 291.519531 325.402344 291.566406 325.464844 291.636719 325.527344 C 291.707031 325.589844 291.800781 325.625 291.917969 325.632812 C 292.035156 325.644531 292.203125 325.609375 292.414062 325.523438 C 292.78125 325.378906 292.972656 325.199219 292.992188 324.980469 C 293 324.878906 292.964844 324.71875 292.878906 324.503906 L 290.898438 319.207031 C 290.769531 318.878906 290.542969 318.699219 290.21875 318.667969 C 290.066406 318.65625 289.917969 318.683594 289.777344 318.753906 C 289.632812 318.828125 289.523438 318.933594 289.445312 319.066406 L 286.554688 323.929688 C 286.433594 324.125 286.367188 324.273438 286.359375 324.378906 C 286.335938 324.601562 286.492188 324.808594 286.824219 325.011719 Z M 289.96875 321.328125 L 290.460938 322.628906 L 289.261719 322.519531 Z M 293.34375 325.542969 C 293.34375 325.441406 293.386719 325.289062 293.464844 325.09375 L 295.332031 320.375 C 295.382812 320.246094 295.425781 320.152344 295.460938 320.089844 C 295.492188 320.027344 295.550781 319.964844 295.628906 319.898438 C 295.765625 319.777344 296.015625 319.789062 296.375 319.933594 C 296.769531 320.089844 296.960938 320.289062 296.949219 320.527344 C 296.941406 320.636719 296.894531 320.789062 296.816406 320.988281 L 295.152344 325.191406 L 297.441406 326.109375 C 297.625 326.183594 297.753906 326.257812 297.820312 326.335938 C 297.886719 326.414062 297.917969 326.5 297.910156 326.601562 C 297.902344 326.703125 297.867188 326.828125 297.808594 326.976562 C 297.75 327.128906 297.6875 327.242188 297.625 327.320312 C 297.5625 327.398438 297.488281 327.445312 297.410156 327.453125 C 297.28125 327.464844 297.121094 327.4375 296.9375 327.359375 L 293.90625 326.144531 C 293.515625 325.984375 293.328125 325.785156 293.34375 325.542969 Z M 300.660156 329.632812 C 300.40625 329.363281 300.308594 329.140625 300.363281 328.960938 C 300.394531 328.867188 300.429688 328.789062 300.476562 328.734375 C 300.527344 328.679688 300.601562 328.601562 300.707031 328.5 L 304.363281 325.023438 C 304.464844 324.925781 304.542969 324.855469 304.601562 324.816406 C 304.660156 324.773438 304.738281 324.738281 304.835938 324.710938 C 305.011719 324.671875 305.230469 324.789062 305.492188 325.066406 C 305.601562 325.1875 305.683594 325.300781 305.738281 325.417969 C 305.789062 325.53125 305.8125 325.613281 305.808594 325.667969 L 305.804688 325.746094 L 305.253906 329.121094 C 306.949219 328.933594 308.070312 328.816406 308.625 328.769531 C 308.8125 328.730469 309.039062 328.851562 309.300781 329.132812 C 309.566406 329.414062 309.667969 329.640625 309.605469 329.816406 C 309.574219 329.914062 309.535156 329.992188 309.488281 330.050781 C 309.441406 330.105469 309.367188 330.183594 309.265625 330.277344 L 305.605469 333.757812 C 305.304688 334.046875 305.046875 334.128906 304.835938 334.011719 C 304.730469 333.953125 304.617188 333.859375 304.5 333.730469 C 304.378906 333.601562 304.292969 333.488281 304.246094 333.394531 C 304.199219 333.296875 304.167969 333.214844 304.164062 333.144531 C 304.15625 333.078125 304.171875 333.003906 304.207031 332.925781 C 304.261719 332.835938 304.367188 332.714844 304.519531 332.566406 L 306.726562 330.46875 C 306.488281 330.488281 306.121094 330.53125 305.625 330.601562 C 305.128906 330.671875 304.816406 330.710938 304.6875 330.726562 C 304.558594 330.738281 304.46875 330.75 304.421875 330.753906 C 304.371094 330.757812 304.28125 330.742188 304.152344 330.703125 C 304.019531 330.664062 303.90625 330.597656 303.8125 330.496094 C 303.71875 330.398438 303.65625 330.285156 303.625 330.160156 C 303.597656 330.035156 303.585938 329.929688 303.597656 329.855469 L 303.617188 329.730469 C 303.644531 329.539062 303.714844 329.140625 303.828125 328.539062 C 303.941406 327.9375 304.003906 327.613281 304.007812 327.566406 L 301.785156 329.679688 C 301.6875 329.777344 301.605469 329.847656 301.550781 329.886719 C 301.492188 329.929688 301.417969 329.960938 301.320312 329.984375 C 301.140625 330.027344 300.921875 329.914062 300.660156 329.632812 Z M 308.050781 339.144531 C 307.664062 339.328125 307.394531 339.328125 307.234375 339.15625 C 307.15625 339.078125 307.074219 338.945312 306.984375 338.75 L 305.460938 335.476562 C 305.28125 335.089844 305.277344 334.816406 305.457031 334.648438 C 305.527344 334.574219 305.660156 334.492188 305.851562 334.402344 L 310.414062 332.246094 C 310.695312 332.117188 310.910156 332.078125 311.058594 332.136719 C 311.207031 332.191406 311.351562 332.367188 311.488281 332.65625 L 313.003906 335.914062 C 313.0625 336.042969 313.101562 336.140625 313.125 336.207031 C 313.144531 336.273438 313.152344 336.359375 313.148438 336.460938 C 313.140625 336.648438 312.960938 336.824219 312.609375 336.988281 C 312.226562 337.167969 311.957031 337.171875 311.796875 337 C 311.71875 336.921875 311.636719 336.785156 311.546875 336.59375 L 310.363281 334.054688 L 309.535156 334.445312 L 310.296875 336.082031 C 310.355469 336.210938 310.394531 336.308594 310.417969 336.375 C 310.4375 336.441406 310.445312 336.527344 310.441406 336.628906 C 310.433594 336.816406 310.257812 336.992188 309.90625 337.15625 C 309.523438 337.339844 309.25 337.339844 309.085938 337.160156 C 309.011719 337.082031 308.929688 336.945312 308.835938 336.753906 L 308.082031 335.132812 L 307.253906 335.523438 L 308.4375 338.070312 C 308.496094 338.199219 308.535156 338.296875 308.558594 338.359375 C 308.578125 338.429688 308.585938 338.511719 308.582031 338.617188 C 308.578125 338.804688 308.398438 338.980469 308.050781 339.144531 Z M 314.835938 344.738281 C 314.804688 344.835938 314.742188 344.90625 314.652344 344.953125 C 314.5625 344.996094 314.4375 345.03125 314.285156 345.050781 C 314.128906 345.074219 314 345.078125 313.90625 345.0625 C 313.808594 345.046875 313.734375 345.003906 313.691406 344.9375 C 313.621094 344.835938 313.570312 344.6875 313.542969 344.488281 L 313.292969 342.761719 L 308.78125 343.425781 C 308.644531 343.445312 308.542969 343.457031 308.472656 343.457031 C 308.40625 343.457031 308.328125 343.445312 308.234375 343.410156 C 308.140625 343.378906 308.070312 343.308594 308.015625 343.199219 C 307.964844 343.089844 307.921875 342.941406 307.898438 342.753906 C 307.871094 342.566406 307.867188 342.414062 307.886719 342.296875 C 307.90625 342.183594 307.957031 342.09375 308.035156 342.039062 C 308.113281 341.980469 308.1875 341.941406 308.257812 341.921875 C 308.324219 341.902344 308.425781 341.882812 308.5625 341.863281 L 313.066406 341.199219 L 312.8125 339.464844 C 312.785156 339.273438 312.789062 339.128906 312.820312 339.03125 C 312.851562 338.933594 312.914062 338.863281 313.003906 338.816406 C 313.097656 338.773438 313.21875 338.742188 313.375 338.71875 C 313.527344 338.691406 313.65625 338.691406 313.753906 338.707031 C 313.851562 338.722656 313.921875 338.765625 313.96875 338.832031 C 314.039062 338.933594 314.085938 339.082031 314.117188 339.28125 L 314.84375 344.304688 C 314.871094 344.496094 314.871094 344.644531 314.835938 344.738281 Z M 309.710938 346.917969 C 309.742188 347.046875 309.75 347.242188 309.730469 347.507812 C 309.710938 347.769531 309.640625 347.957031 309.515625 348.066406 C 309.394531 348.179688 309.207031 348.222656 308.960938 348.207031 L 308.816406 348.195312 C 308.671875 348.183594 308.566406 348.171875 308.496094 348.15625 C 308.429688 348.144531 308.347656 348.109375 308.253906 348.054688 C 308.085938 347.941406 308.015625 347.707031 308.042969 347.339844 C 308.070312 346.972656 308.144531 346.730469 308.273438 346.621094 C 308.398438 346.515625 308.628906 346.46875 308.96875 346.496094 C 309.203125 346.515625 309.378906 346.558594 309.488281 346.625 C 309.601562 346.691406 309.675781 346.792969 309.710938 346.917969 Z M 314.703125 347.308594 C 314.726562 347.425781 314.734375 347.582031 314.71875 347.777344 C 314.703125 347.972656 314.675781 348.125 314.636719 348.238281 C 314.59375 348.351562 314.53125 348.425781 314.445312 348.46875 C 314.363281 348.507812 314.285156 348.527344 314.222656 348.53125 C 314.160156 348.539062 314.0625 348.535156 313.9375 348.523438 L 311.074219 348.316406 C 310.945312 348.304688 310.851562 348.292969 310.792969 348.28125 C 310.734375 348.269531 310.667969 348.234375 310.597656 348.179688 C 310.523438 348.125 310.476562 348.039062 310.457031 347.921875 C 310.433594 347.804688 310.429688 347.648438 310.445312 347.453125 C 310.460938 347.257812 310.484375 347.105469 310.523438 346.992188 C 310.5625 346.878906 310.625 346.800781 310.703125 346.761719 C 310.785156 346.722656 310.859375 346.699219 310.917969 346.695312 C 310.980469 346.691406 311.074219 346.691406 311.199219 346.703125 L 314.066406 346.910156 C 314.191406 346.921875 314.285156 346.933594 314.347656 346.945312 C 314.410156 346.960938 314.480469 346.996094 314.554688 347.050781 C 314.628906 347.105469 314.675781 347.191406 314.703125 347.308594 Z M 314.703125 347.308594 " fill-opacity="1" fill-rule="nonzero"/></svg>