<svg xmlns="http://www.w3.org/2000/svg" xmlns:xlink="http://www.w3.org/1999/xlink" width="600" zoomAndPan="magnify" viewBox="0 0 450 133.500001" height="178" preserveAspectRatio="xMidYMid meet" version="1.0"><defs><g/><clipPath id="e68f7ef08f"><path d="M 355.027344 51.714844 L 387 51.714844 L 387 83.097656 L 355.027344 83.097656 Z M 355.027344 51.714844 " clip-rule="nonzero"/></clipPath></defs><g fill="#ffffff" fill-opacity="1"><g transform="translate(50.540123, 89.664181)"><g><path d="M 0.964844 -4.382812 C 0.964844 0.335938 6.257812 0 8.28125 0 L 16.371094 0 C 19.546875 0 23.691406 -0.0976562 23.691406 -4.382812 C 23.691406 -12.039062 19.453125 -13.964844 19.308594 -33.703125 L 30.863281 -11.796875 C 31.34375 -10.832031 32.066406 -10.351562 33.03125 -10.351562 C 33.945312 -10.351562 34.910156 -10.882812 35.292969 -11.84375 L 48.199219 -34.667969 C 48.199219 -14.011719 44.875 -12.183594 44.875 -4.382812 C 44.875 -0.0976562 49.015625 0 52.195312 0 L 64.617188 0 C 66.640625 0 71.9375 0.335938 71.9375 -4.382812 C 71.9375 -12.183594 67.554688 -14.011719 67.554688 -34.667969 C 67.554688 -55.324219 71.9375 -57.152344 71.9375 -64.953125 C 71.9375 -69.671875 66.640625 -69.335938 64.617188 -69.335938 L 50.75 -69.335938 C 48.726562 -69.289062 45.839844 -68.902344 45.066406 -66.351562 C 41.503906 -59.609375 38.710938 -51.90625 35.824219 -45.839844 C 35.390625 -44.921875 34.910156 -44.492188 34.378906 -44.492188 C 33.847656 -44.492188 33.367188 -44.972656 32.933594 -45.886719 L 23.351562 -66.832031 L 23.351562 -66.785156 C 22.390625 -68.949219 19.742188 -69.289062 17.816406 -69.335938 L 8.28125 -69.335938 C 6.257812 -69.335938 0.964844 -69.671875 0.964844 -64.953125 C 0.964844 -57.152344 5.34375 -55.324219 5.34375 -34.667969 C 5.34375 -14.011719 0.964844 -12.183594 0.964844 -4.382812 Z M 0.964844 -4.382812 "/></g></g></g><g fill="#ffffff" fill-opacity="1"><g transform="translate(123.435762, 89.664181)"><g><path d="M -0.480469 10.542969 C -0.480469 17.285156 3.179688 22.390625 11.363281 22.390625 C 17.671875 22.390625 27.253906 19.066406 31.199219 3.273438 C 32.695312 -2.695312 36.980469 -12.132812 40.78125 -20.125 C 48.632812 -36.59375 52.773438 -39.289062 52.773438 -43.914062 C 52.773438 -46.464844 50.847656 -48.148438 48.292969 -48.148438 L 37.125 -48.148438 C 34.425781 -48.148438 30.910156 -47.476562 30.910156 -43.769531 C 30.910156 -41.699219 32.164062 -39.628906 32.164062 -36.929688 C 32.164062 -33.269531 30.335938 -29.226562 28.746094 -24.507812 C 27.15625 -29.226562 25.328125 -33.269531 25.328125 -36.929688 C 25.328125 -39.628906 26.578125 -41.699219 26.578125 -43.769531 C 26.578125 -47.476562 23.0625 -48.148438 20.367188 -48.148438 L 5.007812 -48.148438 C 2.457031 -48.148438 0.53125 -46.464844 0.53125 -43.914062 C 0.53125 -37.125 5.488281 -34.910156 12.519531 -20.125 C 16.324219 -12.132812 17.765625 -4.238281 21.621094 0.722656 C 20.992188 3.371094 18.632812 4.671875 15.792969 4.671875 C 11.460938 4.671875 9.824219 1.828125 5.007812 1.828125 C 1.011719 1.828125 -0.480469 7.320312 -0.480469 10.542969 Z M -0.480469 10.542969 "/></g></g></g><g fill="#ffffff" fill-opacity="1"><g transform="translate(176.687127, 89.664181)"><g/></g></g><g fill="#ffffff" fill-opacity="1"><g transform="translate(194.983256, 89.664181)"><g><path d="M 0.964844 -49.785156 C 0.964844 -48.292969 2.167969 -47.332031 3.5625 -47.332031 C 8.570312 -47.332031 11.21875 -53.15625 18.007812 -53.15625 L 18.152344 -53.15625 L 18.152344 -34.667969 C 18.152344 -14.011719 13.769531 -12.183594 13.769531 -4.382812 C 13.769531 0.335938 19.066406 0 21.089844 0 L 33.511719 0 C 35.535156 0 40.832031 0.335938 40.832031 -4.382812 C 40.832031 -12.183594 36.449219 -14.011719 36.449219 -34.667969 L 36.449219 -53.15625 L 37.171875 -53.15625 C 43.960938 -53.15625 46.609375 -47.332031 51.617188 -47.332031 C 53.011719 -47.332031 54.214844 -48.292969 54.214844 -49.785156 L 54.214844 -64.425781 C 54.214844 -67.363281 52.242188 -69.335938 49.304688 -69.335938 L 5.875 -69.335938 C 2.9375 -69.335938 0.964844 -67.363281 0.964844 -64.425781 Z M 0.964844 -49.785156 "/></g></g></g><g fill="#ffffff" fill-opacity="1"><g transform="translate(250.160531, 89.664181)"><g><path d="M 24.027344 0.722656 C 38.472656 0.722656 46.851562 -9.195312 46.851562 -24.121094 C 46.851562 -38.953125 38.472656 -48.871094 24.027344 -48.871094 C 9.582031 -48.871094 1.203125 -38.953125 1.203125 -24.121094 C 1.203125 -9.195312 9.582031 0.722656 24.027344 0.722656 Z M 19.742188 -24.027344 C 19.742188 -31.296875 21.476562 -36.113281 24.027344 -36.113281 C 26.578125 -36.113281 28.3125 -31.296875 28.3125 -24.027344 C 28.3125 -16.804688 26.578125 -11.988281 24.027344 -11.988281 C 21.476562 -11.988281 19.742188 -16.804688 19.742188 -24.027344 Z M 19.742188 -24.027344 "/></g></g></g><g fill="#ffffff" fill-opacity="1"><g transform="translate(298.211961, 89.664181)"><g><path d="M 8.28125 0 L 26.386719 0 C 44.25 0 53.6875 -14.15625 53.6875 -34.714844 C 53.6875 -55.277344 44.25 -69.335938 26.386719 -69.335938 L 8.28125 -69.335938 C 6.257812 -69.335938 0.964844 -69.671875 0.964844 -64.953125 C 0.964844 -57.152344 5.34375 -55.324219 5.34375 -34.667969 C 5.34375 -14.011719 0.964844 -12.183594 0.964844 -4.382812 C 0.964844 0.335938 6.257812 0 8.28125 0 Z M 23.640625 -52.097656 C 23.640625 -54.988281 25.183594 -55.46875 26.386719 -55.46875 C 31.34375 -55.46875 35.101562 -45.644531 35.101562 -34.714844 C 35.101562 -23.785156 31.34375 -13.964844 26.386719 -13.964844 C 25.183594 -13.964844 23.640625 -14.445312 23.640625 -17.332031 Z M 23.640625 -52.097656 "/></g></g></g><g fill="#ffffff" fill-opacity="1"><g transform="translate(351.415177, 89.664181)"><g><path d="M 24.027344 0.722656 C 38.472656 0.722656 46.851562 -9.195312 46.851562 -24.121094 C 46.851562 -38.953125 38.472656 -48.871094 24.027344 -48.871094 C 9.582031 -48.871094 1.203125 -38.953125 1.203125 -24.121094 C 1.203125 -9.195312 9.582031 0.722656 24.027344 0.722656 Z M 19.742188 -24.027344 C 19.742188 -31.296875 21.476562 -36.113281 24.027344 -36.113281 C 26.578125 -36.113281 28.3125 -31.296875 28.3125 -24.027344 C 28.3125 -16.804688 26.578125 -11.988281 24.027344 -11.988281 C 21.476562 -11.988281 19.742188 -16.804688 19.742188 -24.027344 Z M 19.742188 -24.027344 "/></g></g></g><g fill="#e8b7cb" fill-opacity="1"><g transform="translate(45.800064, 89.664181)"><g><path d="M 0.964844 -4.382812 C 0.964844 0.335938 6.257812 0 8.28125 0 L 16.371094 0 C 19.546875 0 23.691406 -0.0976562 23.691406 -4.382812 C 23.691406 -12.039062 19.453125 -13.964844 19.308594 -33.703125 L 30.863281 -11.796875 C 31.34375 -10.832031 32.066406 -10.351562 33.03125 -10.351562 C 33.945312 -10.351562 34.910156 -10.882812 35.292969 -11.84375 L 48.199219 -34.667969 C 48.199219 -14.011719 44.875 -12.183594 44.875 -4.382812 C 44.875 -0.0976562 49.015625 0 52.195312 0 L 64.617188 0 C 66.640625 0 71.9375 0.335938 71.9375 -4.382812 C 71.9375 -12.183594 67.554688 -14.011719 67.554688 -34.667969 C 67.554688 -55.324219 71.9375 -57.152344 71.9375 -64.953125 C 71.9375 -69.671875 66.640625 -69.335938 64.617188 -69.335938 L 50.75 -69.335938 C 48.726562 -69.289062 45.839844 -68.902344 45.066406 -66.351562 C 41.503906 -59.609375 38.710938 -51.90625 35.824219 -45.839844 C 35.390625 -44.921875 34.910156 -44.492188 34.378906 -44.492188 C 33.847656 -44.492188 33.367188 -44.972656 32.933594 -45.886719 L 23.351562 -66.832031 L 23.351562 -66.785156 C 22.390625 -68.949219 19.742188 -69.289062 17.816406 -69.335938 L 8.28125 -69.335938 C 6.257812 -69.335938 0.964844 -69.671875 0.964844 -64.953125 C 0.964844 -57.152344 5.34375 -55.324219 5.34375 -34.667969 C 5.34375 -14.011719 0.964844 -12.183594 0.964844 -4.382812 Z M 0.964844 -4.382812 "/></g></g></g><g fill="#e8b7cb" fill-opacity="1"><g transform="translate(118.695703, 89.664181)"><g><path d="M -0.480469 10.542969 C -0.480469 17.285156 3.179688 22.390625 11.363281 22.390625 C 17.671875 22.390625 27.253906 19.066406 31.199219 3.273438 C 32.695312 -2.695312 36.980469 -12.132812 40.78125 -20.125 C 48.632812 -36.59375 52.773438 -39.289062 52.773438 -43.914062 C 52.773438 -46.464844 50.847656 -48.148438 48.292969 -48.148438 L 37.125 -48.148438 C 34.425781 -48.148438 30.910156 -47.476562 30.910156 -43.769531 C 30.910156 -41.699219 32.164062 -39.628906 32.164062 -36.929688 C 32.164062 -33.269531 30.335938 -29.226562 28.746094 -24.507812 C 27.15625 -29.226562 25.328125 -33.269531 25.328125 -36.929688 C 25.328125 -39.628906 26.578125 -41.699219 26.578125 -43.769531 C 26.578125 -47.476562 23.0625 -48.148438 20.367188 -48.148438 L 5.007812 -48.148438 C 2.457031 -48.148438 0.53125 -46.464844 0.53125 -43.914062 C 0.53125 -37.125 5.488281 -34.910156 12.519531 -20.125 C 16.324219 -12.132812 17.765625 -4.238281 21.621094 0.722656 C 20.992188 3.371094 18.632812 4.671875 15.792969 4.671875 C 11.460938 4.671875 9.824219 1.828125 5.007812 1.828125 C 1.011719 1.828125 -0.480469 7.320312 -0.480469 10.542969 Z M -0.480469 10.542969 "/></g></g></g><g fill="#e8b7cb" fill-opacity="1"><g transform="translate(171.947067, 89.664181)"><g/></g></g><g fill="#e8b7cb" fill-opacity="1"><g transform="translate(190.243196, 89.664181)"><g><path d="M 0.964844 -49.785156 C 0.964844 -48.292969 2.167969 -47.332031 3.5625 -47.332031 C 8.570312 -47.332031 11.21875 -53.15625 18.007812 -53.15625 L 18.152344 -53.15625 L 18.152344 -34.667969 C 18.152344 -14.011719 13.769531 -12.183594 13.769531 -4.382812 C 13.769531 0.335938 19.066406 0 21.089844 0 L 33.511719 0 C 35.535156 0 40.832031 0.335938 40.832031 -4.382812 C 40.832031 -12.183594 36.449219 -14.011719 36.449219 -34.667969 L 36.449219 -53.15625 L 37.171875 -53.15625 C 43.960938 -53.15625 46.609375 -47.332031 51.617188 -47.332031 C 53.011719 -47.332031 54.214844 -48.292969 54.214844 -49.785156 L 54.214844 -64.425781 C 54.214844 -67.363281 52.242188 -69.335938 49.304688 -69.335938 L 5.875 -69.335938 C 2.9375 -69.335938 0.964844 -67.363281 0.964844 -64.425781 Z M 0.964844 -49.785156 "/></g></g></g><g fill="#e8b7cb" fill-opacity="1"><g transform="translate(245.420472, 89.664181)"><g><path d="M 24.027344 0.722656 C 38.472656 0.722656 46.851562 -9.195312 46.851562 -24.121094 C 46.851562 -38.953125 38.472656 -48.871094 24.027344 -48.871094 C 9.582031 -48.871094 1.203125 -38.953125 1.203125 -24.121094 C 1.203125 -9.195312 9.582031 0.722656 24.027344 0.722656 Z M 19.742188 -24.027344 C 19.742188 -31.296875 21.476562 -36.113281 24.027344 -36.113281 C 26.578125 -36.113281 28.3125 -31.296875 28.3125 -24.027344 C 28.3125 -16.804688 26.578125 -11.988281 24.027344 -11.988281 C 21.476562 -11.988281 19.742188 -16.804688 19.742188 -24.027344 Z M 19.742188 -24.027344 "/></g></g></g><g fill="#e8b7cb" fill-opacity="1"><g transform="translate(293.471902, 89.664181)"><g><path d="M 8.28125 0 L 26.386719 0 C 44.25 0 53.6875 -14.15625 53.6875 -34.714844 C 53.6875 -55.277344 44.25 -69.335938 26.386719 -69.335938 L 8.28125 -69.335938 C 6.257812 -69.335938 0.964844 -69.671875 0.964844 -64.953125 C 0.964844 -57.152344 5.34375 -55.324219 5.34375 -34.667969 C 5.34375 -14.011719 0.964844 -12.183594 0.964844 -4.382812 C 0.964844 0.335938 6.257812 0 8.28125 0 Z M 23.640625 -52.097656 C 23.640625 -54.988281 25.183594 -55.46875 26.386719 -55.46875 C 31.34375 -55.46875 35.101562 -45.644531 35.101562 -34.714844 C 35.101562 -23.785156 31.34375 -13.964844 26.386719 -13.964844 C 25.183594 -13.964844 23.640625 -14.445312 23.640625 -17.332031 Z M 23.640625 -52.097656 "/></g></g></g><g fill="#e8b7cb" fill-opacity="1"><g transform="translate(346.675118, 89.664181)"><g><path d="M 24.027344 0.722656 C 38.472656 0.722656 46.851562 -9.195312 46.851562 -24.121094 C 46.851562 -38.953125 38.472656 -48.871094 24.027344 -48.871094 C 9.582031 -48.871094 1.203125 -38.953125 1.203125 -24.121094 C 1.203125 -9.195312 9.582031 0.722656 24.027344 0.722656 Z M 19.742188 -24.027344 C 19.742188 -31.296875 21.476562 -36.113281 24.027344 -36.113281 C 26.578125 -36.113281 28.3125 -31.296875 28.3125 -24.027344 C 28.3125 -16.804688 26.578125 -11.988281 24.027344 -11.988281 C 21.476562 -11.988281 19.742188 -16.804688 19.742188 -24.027344 Z M 19.742188 -24.027344 "/></g></g></g><g clip-path="url(#e68f7ef08f)"><path fill="#e8b7cb" d="M 370.742188 83.089844 C 367.851562 83.082031 365.054688 82.273438 362.5 80.386719 C 361.453125 79.613281 360.402344 78.828125 359.476562 77.925781 C 358.089844 76.582031 357.15625 74.914062 356.441406 73.117188 C 355.824219 71.566406 355.46875 69.957031 355.285156 68.304688 C 355.03125 66.007812 355.253906 63.757812 356.164062 61.617188 C 358.074219 57.128906 361.464844 54.058594 366.113281 52.40625 C 367.625 51.871094 369.191406 51.710938 370.785156 51.796875 C 376.382812 52.105469 381.257812 55.664062 384.289062 60.253906 C 385.472656 62.046875 386.277344 64.011719 386.496094 66.15625 C 387.15625 72.59375 382.882812 80.144531 376.574219 82.132812 C 374.617188 82.746094 372.660156 83.09375 370.742188 83.089844 Z M 370.742188 83.089844 " fill-opacity="1" fill-rule="nonzero"/></g><path fill="#190837" d="M 370.949219 71.988281 C 367.863281 71.894531 365.289062 70.726562 363.253906 68.390625 C 362.253906 67.242188 361.492188 65.957031 361.023438 64.503906 C 360.980469 64.371094 360.945312 64.234375 360.90625 64.101562 C 360.792969 63.714844 360.894531 63.394531 361.242188 63.195312 C 361.542969 63.023438 361.90625 63.140625 362.148438 63.507812 C 362.445312 63.964844 362.6875 64.460938 362.980469 64.925781 C 364.425781 67.222656 366.351562 68.925781 369.03125 69.578125 C 371.863281 70.265625 374.390625 69.5625 376.578125 67.660156 C 377.640625 66.738281 378.472656 65.628906 379.035156 64.324219 C 379.28125 63.75 379.898438 63.484375 380.375 63.714844 C 380.9375 63.988281 381.152344 64.597656 380.84375 65.183594 C 379.382812 67.960938 377.359375 70.144531 374.386719 71.308594 C 373.28125 71.746094 372.125 71.949219 370.949219 71.988281 Z M 370.949219 71.988281 " fill-opacity="1" fill-rule="nonzero"/><path fill="#190837" d="M 374.628906 61.964844 C 374.613281 62.644531 373.996094 63.214844 373.296875 63.195312 C 372.65625 63.175781 372.066406 62.566406 372.074219 61.929688 C 372.082031 61.203125 372.660156 60.667969 373.421875 60.683594 C 374.125 60.695312 374.640625 61.246094 374.628906 61.964844 Z M 374.628906 61.964844 " fill-opacity="1" fill-rule="nonzero"/><path fill="#190837" d="M 367.996094 61.378906 C 367.996094 62.105469 367.503906 62.609375 366.796875 62.605469 C 366.117188 62.601562 365.570312 62.023438 365.574219 61.324219 C 365.578125 60.640625 366.125 60.089844 366.796875 60.089844 C 367.5 60.09375 367.996094 60.628906 367.996094 61.378906 Z M 367.996094 61.378906 " fill-opacity="1" fill-rule="nonzero"/></svg>