<svg xmlns="http://www.w3.org/2000/svg" xmlns:xlink="http://www.w3.org/1999/xlink" width="600" zoomAndPan="magnify" viewBox="0 0 450 133.500001" height="178" preserveAspectRatio="xMidYMid meet" version="1.0"><defs><g/><clipPath id="0a30b41f8f"><path d="M 356.152344 51.765625 L 386.785156 51.765625 L 386.785156 80.90625 L 356.152344 80.90625 Z M 356.152344 51.765625 " clip-rule="nonzero"/></clipPath></defs><g fill="#ffffff" fill-opacity="1"><g transform="translate(50.540123, 89.664181)"><g><path d="M 0.964844 -4.382812 C 0.964844 0.335938 6.257812 0 8.28125 0 L 16.371094 0 C 19.546875 0 23.691406 -0.0976562 23.691406 -4.382812 C 23.691406 -12.039062 19.453125 -13.964844 19.308594 -33.703125 L 30.863281 -11.796875 C 31.34375 -10.832031 32.066406 -10.351562 33.03125 -10.351562 C 33.945312 -10.351562 34.910156 -10.882812 35.292969 -11.84375 L 48.199219 -34.667969 C 48.199219 -14.011719 44.875 -12.183594 44.875 -4.382812 C 44.875 -0.0976562 49.015625 0 52.195312 0 L 64.617188 0 C 66.640625 0 71.9375 0.335938 71.9375 -4.382812 C 71.9375 -12.183594 67.554688 -14.011719 67.554688 -34.667969 C 67.554688 -55.324219 71.9375 -57.152344 71.9375 -64.953125 C 71.9375 -69.671875 66.640625 -69.335938 64.617188 -69.335938 L 50.75 -69.335938 C 48.726562 -69.289062 45.839844 -68.902344 45.066406 -66.351562 C 41.503906 -59.609375 38.710938 -51.90625 35.824219 -45.839844 C 35.390625 -44.921875 34.910156 -44.492188 34.378906 -44.492188 C 33.847656 -44.492188 33.367188 -44.972656 32.933594 -45.886719 L 23.351562 -66.832031 L 23.351562 -66.785156 C 22.390625 -68.949219 19.742188 -69.289062 17.816406 -69.335938 L 8.28125 -69.335938 C 6.257812 -69.335938 0.964844 -69.671875 0.964844 -64.953125 C 0.964844 -57.152344 5.34375 -55.324219 5.34375 -34.667969 C 5.34375 -14.011719 0.964844 -12.183594 0.964844 -4.382812 Z M 0.964844 -4.382812 "/></g></g></g><g fill="#ffffff" fill-opacity="1"><g transform="translate(123.435762, 89.664181)"><g><path d="M -0.480469 10.542969 C -0.480469 17.285156 3.179688 22.390625 11.363281 22.390625 C 17.671875 22.390625 27.253906 19.066406 31.199219 3.273438 C 32.695312 -2.695312 36.980469 -12.132812 40.78125 -20.125 C 48.632812 -36.59375 52.773438 -39.289062 52.773438 -43.914062 C 52.773438 -46.464844 50.847656 -48.148438 48.292969 -48.148438 L 37.125 -48.148438 C 34.425781 -48.148438 30.910156 -47.476562 30.910156 -43.769531 C 30.910156 -41.699219 32.164062 -39.628906 32.164062 -36.929688 C 32.164062 -33.269531 30.335938 -29.226562 28.746094 -24.507812 C 27.15625 -29.226562 25.328125 -33.269531 25.328125 -36.929688 C 25.328125 -39.628906 26.578125 -41.699219 26.578125 -43.769531 C 26.578125 -47.476562 23.0625 -48.148438 20.367188 -48.148438 L 5.007812 -48.148438 C 2.457031 -48.148438 0.53125 -46.464844 0.53125 -43.914062 C 0.53125 -37.125 5.488281 -34.910156 12.519531 -20.125 C 16.324219 -12.132812 17.765625 -4.238281 21.621094 0.722656 C 20.992188 3.371094 18.632812 4.671875 15.792969 4.671875 C 11.460938 4.671875 9.824219 1.828125 5.007812 1.828125 C 1.011719 1.828125 -0.480469 7.320312 -0.480469 10.542969 Z M -0.480469 10.542969 "/></g></g></g><g fill="#ffffff" fill-opacity="1"><g transform="translate(176.687127, 89.664181)"><g/></g></g><g fill="#ffffff" fill-opacity="1"><g transform="translate(194.983256, 89.664181)"><g><path d="M 0.964844 -49.785156 C 0.964844 -48.292969 2.167969 -47.332031 3.5625 -47.332031 C 8.570312 -47.332031 11.21875 -53.15625 18.007812 -53.15625 L 18.152344 -53.15625 L 18.152344 -34.667969 C 18.152344 -14.011719 13.769531 -12.183594 13.769531 -4.382812 C 13.769531 0.335938 19.066406 0 21.089844 0 L 33.511719 0 C 35.535156 0 40.832031 0.335938 40.832031 -4.382812 C 40.832031 -12.183594 36.449219 -14.011719 36.449219 -34.667969 L 36.449219 -53.15625 L 37.171875 -53.15625 C 43.960938 -53.15625 46.609375 -47.332031 51.617188 -47.332031 C 53.011719 -47.332031 54.214844 -48.292969 54.214844 -49.785156 L 54.214844 -64.425781 C 54.214844 -67.363281 52.242188 -69.335938 49.304688 -69.335938 L 5.875 -69.335938 C 2.9375 -69.335938 0.964844 -67.363281 0.964844 -64.425781 Z M 0.964844 -49.785156 "/></g></g></g><g fill="#ffffff" fill-opacity="1"><g transform="translate(250.160531, 89.664181)"><g><path d="M 24.027344 0.722656 C 38.472656 0.722656 46.851562 -9.195312 46.851562 -24.121094 C 46.851562 -38.953125 38.472656 -48.871094 24.027344 -48.871094 C 9.582031 -48.871094 1.203125 -38.953125 1.203125 -24.121094 C 1.203125 -9.195312 9.582031 0.722656 24.027344 0.722656 Z M 19.742188 -24.027344 C 19.742188 -31.296875 21.476562 -36.113281 24.027344 -36.113281 C 26.578125 -36.113281 28.3125 -31.296875 28.3125 -24.027344 C 28.3125 -16.804688 26.578125 -11.988281 24.027344 -11.988281 C 21.476562 -11.988281 19.742188 -16.804688 19.742188 -24.027344 Z M 19.742188 -24.027344 "/></g></g></g><g fill="#ffffff" fill-opacity="1"><g transform="translate(298.211961, 89.664181)"><g><path d="M 8.28125 0 L 26.386719 0 C 44.25 0 53.6875 -14.15625 53.6875 -34.714844 C 53.6875 -55.277344 44.25 -69.335938 26.386719 -69.335938 L 8.28125 -69.335938 C 6.257812 -69.335938 0.964844 -69.671875 0.964844 -64.953125 C 0.964844 -57.152344 5.34375 -55.324219 5.34375 -34.667969 C 5.34375 -14.011719 0.964844 -12.183594 0.964844 -4.382812 C 0.964844 0.335938 6.257812 0 8.28125 0 Z M 23.640625 -52.097656 C 23.640625 -54.988281 25.183594 -55.46875 26.386719 -55.46875 C 31.34375 -55.46875 35.101562 -45.644531 35.101562 -34.714844 C 35.101562 -23.785156 31.34375 -13.964844 26.386719 -13.964844 C 25.183594 -13.964844 23.640625 -14.445312 23.640625 -17.332031 Z M 23.640625 -52.097656 "/></g></g></g><g fill="#ffffff" fill-opacity="1"><g transform="translate(351.415177, 89.664181)"><g><path d="M 24.027344 0.722656 C 38.472656 0.722656 46.851562 -9.195312 46.851562 -24.121094 C 46.851562 -38.953125 38.472656 -48.871094 24.027344 -48.871094 C 9.582031 -48.871094 1.203125 -38.953125 1.203125 -24.121094 C 1.203125 -9.195312 9.582031 0.722656 24.027344 0.722656 Z M 19.742188 -24.027344 C 19.742188 -31.296875 21.476562 -36.113281 24.027344 -36.113281 C 26.578125 -36.113281 28.3125 -31.296875 28.3125 -24.027344 C 28.3125 -16.804688 26.578125 -11.988281 24.027344 -11.988281 C 21.476562 -11.988281 19.742188 -16.804688 19.742188 -24.027344 Z M 19.742188 -24.027344 "/></g></g></g><g fill="#f3dae4" fill-opacity="1"><g transform="translate(47.928289, 91.792406)"><g><path d="M 0.964844 -4.382812 C 0.964844 0.335938 6.257812 0 8.28125 0 L 16.371094 0 C 19.546875 0 23.691406 -0.0976562 23.691406 -4.382812 C 23.691406 -12.039062 19.453125 -13.964844 19.308594 -33.703125 L 30.863281 -11.796875 C 31.34375 -10.832031 32.066406 -10.351562 33.03125 -10.351562 C 33.945312 -10.351562 34.910156 -10.882812 35.292969 -11.84375 L 48.199219 -34.667969 C 48.199219 -14.011719 44.875 -12.183594 44.875 -4.382812 C 44.875 -0.0976562 49.015625 0 52.195312 0 L 64.617188 0 C 66.640625 0 71.9375 0.335938 71.9375 -4.382812 C 71.9375 -12.183594 67.554688 -14.011719 67.554688 -34.667969 C 67.554688 -55.324219 71.9375 -57.152344 71.9375 -64.953125 C 71.9375 -69.671875 66.640625 -69.335938 64.617188 -69.335938 L 50.75 -69.335938 C 48.726562 -69.289062 45.839844 -68.902344 45.066406 -66.351562 C 41.503906 -59.609375 38.710938 -51.90625 35.824219 -45.839844 C 35.390625 -44.921875 34.910156 -44.492188 34.378906 -44.492188 C 33.847656 -44.492188 33.367188 -44.972656 32.933594 -45.886719 L 23.351562 -66.832031 L 23.351562 -66.785156 C 22.390625 -68.949219 19.742188 -69.289062 17.816406 -69.335938 L 8.28125 -69.335938 C 6.257812 -69.335938 0.964844 -69.671875 0.964844 -64.953125 C 0.964844 -57.152344 5.34375 -55.324219 5.34375 -34.667969 C 5.34375 -14.011719 0.964844 -12.183594 0.964844 -4.382812 Z M 0.964844 -4.382812 "/></g></g></g><g fill="#f3dae4" fill-opacity="1"><g transform="translate(120.823928, 91.792406)"><g><path d="M -0.480469 10.542969 C -0.480469 17.285156 3.179688 22.390625 11.363281 22.390625 C 17.671875 22.390625 27.253906 19.066406 31.199219 3.273438 C 32.695312 -2.695312 36.980469 -12.132812 40.78125 -20.125 C 48.632812 -36.59375 52.773438 -39.289062 52.773438 -43.914062 C 52.773438 -46.464844 50.847656 -48.148438 48.292969 -48.148438 L 37.125 -48.148438 C 34.425781 -48.148438 30.910156 -47.476562 30.910156 -43.769531 C 30.910156 -41.699219 32.164062 -39.628906 32.164062 -36.929688 C 32.164062 -33.269531 30.335938 -29.226562 28.746094 -24.507812 C 27.15625 -29.226562 25.328125 -33.269531 25.328125 -36.929688 C 25.328125 -39.628906 26.578125 -41.699219 26.578125 -43.769531 C 26.578125 -47.476562 23.0625 -48.148438 20.367188 -48.148438 L 5.007812 -48.148438 C 2.457031 -48.148438 0.53125 -46.464844 0.53125 -43.914062 C 0.53125 -37.125 5.488281 -34.910156 12.519531 -20.125 C 16.324219 -12.132812 17.765625 -4.238281 21.621094 0.722656 C 20.992188 3.371094 18.632812 4.671875 15.792969 4.671875 C 11.460938 4.671875 9.824219 1.828125 5.007812 1.828125 C 1.011719 1.828125 -0.480469 7.320312 -0.480469 10.542969 Z M -0.480469 10.542969 "/></g></g></g><g fill="#f3dae4" fill-opacity="1"><g transform="translate(174.075293, 91.792406)"><g/></g></g><g fill="#f3dae4" fill-opacity="1"><g transform="translate(192.371422, 91.792406)"><g><path d="M 0.964844 -49.785156 C 0.964844 -48.292969 2.167969 -47.332031 3.5625 -47.332031 C 8.570312 -47.332031 11.21875 -53.15625 18.007812 -53.15625 L 18.152344 -53.15625 L 18.152344 -34.667969 C 18.152344 -14.011719 13.769531 -12.183594 13.769531 -4.382812 C 13.769531 0.335938 19.066406 0 21.089844 0 L 33.511719 0 C 35.535156 0 40.832031 0.335938 40.832031 -4.382812 C 40.832031 -12.183594 36.449219 -14.011719 36.449219 -34.667969 L 36.449219 -53.15625 L 37.171875 -53.15625 C 43.960938 -53.15625 46.609375 -47.332031 51.617188 -47.332031 C 53.011719 -47.332031 54.214844 -48.292969 54.214844 -49.785156 L 54.214844 -64.425781 C 54.214844 -67.363281 52.242188 -69.335938 49.304688 -69.335938 L 5.875 -69.335938 C 2.9375 -69.335938 0.964844 -67.363281 0.964844 -64.425781 Z M 0.964844 -49.785156 "/></g></g></g><g fill="#f3dae4" fill-opacity="1"><g transform="translate(247.548697, 91.792406)"><g><path d="M 24.027344 0.722656 C 38.472656 0.722656 46.851562 -9.195312 46.851562 -24.121094 C 46.851562 -38.953125 38.472656 -48.871094 24.027344 -48.871094 C 9.582031 -48.871094 1.203125 -38.953125 1.203125 -24.121094 C 1.203125 -9.195312 9.582031 0.722656 24.027344 0.722656 Z M 19.742188 -24.027344 C 19.742188 -31.296875 21.476562 -36.113281 24.027344 -36.113281 C 26.578125 -36.113281 28.3125 -31.296875 28.3125 -24.027344 C 28.3125 -16.804688 26.578125 -11.988281 24.027344 -11.988281 C 21.476562 -11.988281 19.742188 -16.804688 19.742188 -24.027344 Z M 19.742188 -24.027344 "/></g></g></g><g fill="#f3dae4" fill-opacity="1"><g transform="translate(295.600127, 91.792406)"><g><path d="M 8.28125 0 L 26.386719 0 C 44.25 0 53.6875 -14.15625 53.6875 -34.714844 C 53.6875 -55.277344 44.25 -69.335938 26.386719 -69.335938 L 8.28125 -69.335938 C 6.257812 -69.335938 0.964844 -69.671875 0.964844 -64.953125 C 0.964844 -57.152344 5.34375 -55.324219 5.34375 -34.667969 C 5.34375 -14.011719 0.964844 -12.183594 0.964844 -4.382812 C 0.964844 0.335938 6.257812 0 8.28125 0 Z M 23.640625 -52.097656 C 23.640625 -54.988281 25.183594 -55.46875 26.386719 -55.46875 C 31.34375 -55.46875 35.101562 -45.644531 35.101562 -34.714844 C 35.101562 -23.785156 31.34375 -13.964844 26.386719 -13.964844 C 25.183594 -13.964844 23.640625 -14.445312 23.640625 -17.332031 Z M 23.640625 -52.097656 "/></g></g></g><g fill="#f3dae4" fill-opacity="1"><g transform="translate(348.803344, 91.792406)"><g><path d="M 24.027344 0.722656 C 38.472656 0.722656 46.851562 -9.195312 46.851562 -24.121094 C 46.851562 -38.953125 38.472656 -48.871094 24.027344 -48.871094 C 9.582031 -48.871094 1.203125 -38.953125 1.203125 -24.121094 C 1.203125 -9.195312 9.582031 0.722656 24.027344 0.722656 Z M 19.742188 -24.027344 C 19.742188 -31.296875 21.476562 -36.113281 24.027344 -36.113281 C 26.578125 -36.113281 28.3125 -31.296875 28.3125 -24.027344 C 28.3125 -16.804688 26.578125 -11.988281 24.027344 -11.988281 C 21.476562 -11.988281 19.742188 -16.804688 19.742188 -24.027344 Z M 19.742188 -24.027344 "/></g></g></g><path stroke-linecap="butt" transform="matrix(0.747201, 0, 0, 0.747201, 38.199624, 32.87687)" fill="none" stroke-linejoin="miter" d="M 11.464112 70.134204 C 11.464112 76.454663 18.542608 75.999841 21.261085 75.999841 L 32.087942 75.999841 C 36.332948 75.999841 41.874459 75.874373 41.874459 70.134204 C 41.874459 59.887637 36.20748 57.310312 36.003594 30.894035 L 51.48323 60.206536 C 52.115798 61.492584 53.088177 62.140837 54.379453 62.140837 C 55.607996 62.140837 56.899272 61.42985 57.401145 60.143802 L 74.67393 29.602758 C 74.67393 57.247578 70.225038 59.699435 70.225038 70.134204 C 70.225038 75.874373 75.777004 75.999841 80.02201 75.999841 L 96.651771 75.999841 C 99.359792 75.999841 106.438288 76.454663 106.438288 70.134204 C 106.438288 59.699435 100.588334 57.247578 100.588334 29.602758 C 100.588334 1.963166 106.438288 -0.488691 106.438288 -10.923461 C 106.438288 -17.24392 99.359792 -16.789097 96.651771 -16.789097 L 78.087709 -16.789097 C 75.384916 -16.726363 71.511086 -16.208807 70.491657 -12.795027 C 65.723867 -3.777003 61.980733 6.542754 58.106904 14.66159 C 57.542297 15.869221 56.899272 16.454739 56.188286 16.454739 C 55.466844 16.454739 54.834275 15.806487 54.253985 14.598856 L 41.430093 -13.438052 L 41.430093 -13.375318 C 40.144044 -16.271541 36.589113 -16.726363 34.022243 -16.789097 L 21.261085 -16.789097 C 18.542608 -16.789097 11.464112 -17.24392 11.464112 -10.923461 C 11.464112 -0.488691 17.329749 1.963166 17.329749 29.602758 C 17.329749 57.247578 11.464112 59.699435 11.464112 70.134204 Z M 107.08654 90.109783 C 107.08654 99.127807 111.979799 105.97105 122.94258 105.97105 C 131.375086 105.97105 144.198979 101.51693 149.484326 80.391227 C 151.481361 72.397859 157.226757 59.762169 162.308218 49.066008 C 172.816177 27.025433 178.35246 23.423451 178.35246 17.223232 C 178.35246 13.809452 175.775135 11.561481 172.361355 11.561481 L 157.414959 11.561481 C 153.80775 11.561481 149.107921 12.455442 149.107921 17.427118 C 149.107921 20.197873 150.775602 22.963401 150.775602 26.570611 C 150.775602 31.479553 148.318517 36.890368 146.196014 43.200371 C 144.073511 36.890368 141.616426 31.479553 141.616426 26.570611 C 141.616426 22.963401 143.29979 20.197873 143.29979 17.427118 C 143.29979 12.455442 138.594734 11.561481 134.992752 11.561481 L 114.431656 11.561481 C 111.017876 11.561481 108.440551 13.809452 108.440551 17.223232 C 108.440551 26.314446 115.07468 29.273404 124.484793 49.066008 C 129.581937 59.762169 131.500555 70.33809 136.660433 76.961764 C 135.829206 80.516695 132.666363 82.247111 128.860495 82.247111 C 123.068048 82.247111 120.882811 78.451699 114.431656 78.451699 C 109.083575 78.451699 107.08654 85.802042 107.08654 90.109783 Z M 204.773965 9.371016 C 204.773965 11.373279 206.378912 12.659327 208.250479 12.659327 C 214.952571 12.659327 218.491819 4.85939 227.588261 4.85939 L 227.776463 4.85939 L 227.776463 29.602758 C 227.776463 57.247578 221.905598 59.699435 221.905598 70.134204 C 221.905598 76.454663 228.999778 75.999841 231.707799 75.999841 L 248.337559 75.999841 C 251.045581 75.999841 258.124076 76.454663 258.124076 70.134204 C 258.124076 59.699435 252.268895 57.247578 252.268895 29.602758 L 252.268895 4.85939 L 253.230818 4.85939 C 262.322032 4.85939 265.86128 12.659327 272.563372 12.659327 C 274.434938 12.659327 276.039885 11.373279 276.039885 9.371016 L 276.039885 -10.212474 C 276.039885 -14.149038 273.399826 -16.789097 269.463262 -16.789097 L 211.350589 -16.789097 C 207.419253 -16.789097 204.773965 -14.149038 204.773965 -10.212474 Z M 309.487608 76.961764 C 328.820162 76.961764 340.023424 63.698733 340.023424 43.717927 C 340.023424 23.862589 328.820162 10.599558 309.487608 10.599558 C 290.149827 10.599558 278.936109 23.862589 278.936109 43.717927 C 278.936109 63.698733 290.149827 76.961764 309.487608 76.961764 Z M 303.742212 43.843395 C 303.742212 34.119612 306.073828 27.668457 309.487608 27.668457 C 312.901388 27.668457 315.212093 34.119612 315.212093 43.843395 C 315.212093 53.504444 312.901388 59.950371 309.487608 59.950371 C 306.073828 59.950371 303.742212 53.504444 303.742212 43.843395 Z M 352.727076 75.999841 L 376.958116 75.999841 C 400.854574 75.999841 413.490265 57.059376 413.490265 29.540024 C 413.490265 2.0259 400.854574 -16.789097 376.958116 -16.789097 L 352.727076 -16.789097 C 350.008599 -16.789097 342.930103 -17.24392 342.930103 -10.923461 C 342.930103 -0.488691 348.79574 1.963166 348.79574 29.602758 C 348.79574 57.247578 342.930103 59.699435 342.930103 70.134204 C 342.930103 76.454663 350.008599 75.999841 352.727076 75.999841 Z M 373.277716 6.276134 C 373.277716 2.402305 375.337486 1.75928 376.958116 1.75928 C 383.58179 1.75928 388.6162 14.912527 388.6162 29.540024 C 388.6162 44.172749 383.58179 57.310312 376.958116 57.310312 C 375.337486 57.310312 373.277716 56.667288 373.277716 52.793458 Z M 444.998459 76.961764 C 464.331012 76.961764 475.534274 63.698733 475.534274 43.717927 C 475.534274 23.862589 464.331012 10.599558 444.998459 10.599558 C 425.660677 10.599558 414.446959 23.862589 414.446959 43.717927 C 414.446959 63.698733 425.660677 76.961764 444.998459 76.961764 Z M 439.25829 43.843395 C 439.25829 34.119612 441.584679 27.668457 444.998459 27.668457 C 448.412238 27.668457 450.722944 34.119612 450.722944 43.843395 C 450.722944 53.504444 448.412238 59.950371 444.998459 59.950371 C 441.584679 59.950371 439.25829 53.504444 439.25829 43.843395 Z M 439.25829 43.843395 " stroke="#e8b7cb" stroke-width="2.41683" stroke-opacity="1" stroke-miterlimit="4"/><g clip-path="url(#0a30b41f8f)"><path fill="#f3dae4" d="M 371.136719 80.902344 C 368.382812 80.894531 365.714844 80.144531 363.277344 78.390625 C 362.28125 77.675781 361.28125 76.945312 360.394531 76.109375 C 359.074219 74.859375 358.183594 73.308594 357.5 71.644531 C 356.914062 70.203125 356.574219 68.707031 356.398438 67.175781 C 356.15625 65.039062 356.367188 62.949219 357.234375 60.964844 C 359.054688 56.796875 362.289062 53.945312 366.722656 52.410156 C 368.164062 51.914062 369.660156 51.765625 371.175781 51.847656 C 376.515625 52.132812 381.164062 55.433594 384.054688 59.699219 C 385.183594 61.363281 385.949219 63.1875 386.160156 65.179688 C 386.785156 71.15625 382.714844 78.167969 376.695312 80.011719 C 374.832031 80.585938 372.964844 80.90625 371.136719 80.902344 Z M 371.136719 80.902344 " fill-opacity="1" fill-rule="nonzero"/></g><path fill="#190837" d="M 371.335938 70.59375 C 368.390625 70.507812 365.9375 69.421875 363.996094 67.253906 C 363.046875 66.1875 362.320312 64.992188 361.871094 63.644531 C 361.828125 63.519531 361.796875 63.394531 361.757812 63.269531 C 361.652344 62.910156 361.75 62.613281 362.082031 62.429688 C 362.363281 62.269531 362.710938 62.375 362.941406 62.71875 C 363.226562 63.144531 363.457031 63.605469 363.734375 64.035156 C 365.113281 66.167969 366.949219 67.75 369.503906 68.355469 C 372.207031 68.996094 374.613281 68.339844 376.703125 66.574219 C 377.714844 65.71875 378.507812 64.6875 379.042969 63.476562 C 379.28125 62.945312 379.867188 62.695312 380.320312 62.910156 C 380.859375 63.167969 381.0625 63.730469 380.769531 64.277344 C 379.375 66.851562 377.445312 68.882812 374.613281 69.964844 C 373.558594 70.367188 372.453125 70.554688 371.335938 70.59375 Z M 371.335938 70.59375 " fill-opacity="1" fill-rule="nonzero"/><path fill="#190837" d="M 374.839844 61.289062 C 374.828125 61.917969 374.238281 62.445312 373.574219 62.429688 C 372.964844 62.410156 372.398438 61.84375 372.40625 61.253906 C 372.414062 60.578125 372.96875 60.082031 373.691406 60.09375 C 374.363281 60.109375 374.855469 60.617188 374.839844 61.289062 Z M 374.839844 61.289062 " fill-opacity="1" fill-rule="nonzero"/><path fill="#190837" d="M 368.519531 60.742188 C 368.519531 61.417969 368.046875 61.886719 367.375 61.882812 C 366.730469 61.875 366.203125 61.339844 366.207031 60.691406 C 366.210938 60.054688 366.734375 59.542969 367.375 59.546875 C 368.042969 59.546875 368.519531 60.046875 368.519531 60.742188 Z M 368.519531 60.742188 " fill-opacity="1" fill-rule="nonzero"/></svg>