<svg xmlns="http://www.w3.org/2000/svg" xmlns:xlink="http://www.w3.org/1999/xlink" width="500" zoomAndPan="magnify" viewBox="0 0 375 374.999991" height="500" preserveAspectRatio="xMidYMid meet" version="1.0"><defs><clipPath id="98e238af70"><path d="M 15 19 L 355 19 L 355 356.332031 L 15 356.332031 Z M 15 19 " clip-rule="nonzero"/></clipPath></defs><g clip-path="url(#98e238af70)"><path fill="#e8b7cb" d="M 183.601562 356.257812 C 152.417969 356.175781 122.242188 347.5 94.683594 327.199219 C 83.421875 318.898438 72.09375 310.453125 62.074219 300.75 C 47.132812 286.289062 37.054688 268.339844 29.347656 249.03125 C 22.691406 232.359375 18.878906 215.023438 16.894531 197.273438 C 14.132812 172.554688 16.542969 148.34375 26.351562 125.355469 C 46.945312 77.078125 83.519531 44.066406 133.664062 26.296875 C 149.964844 20.519531 166.871094 18.808594 184.054688 19.75 C 244.425781 23.066406 297.019531 61.308594 329.726562 110.699219 C 342.488281 129.96875 351.15625 151.082031 353.523438 174.160156 C 360.617188 243.375 314.546875 324.589844 246.484375 345.964844 C 225.394531 352.585938 204.277344 356.3125 183.601562 356.257812 Z M 183.601562 356.257812 " fill-opacity="1" fill-rule="nonzero"/></g><path fill="#190837" d="M 185.835938 236.890625 C 152.53125 235.863281 124.769531 223.3125 102.835938 198.179688 C 92.0625 185.828125 83.847656 172.023438 78.765625 156.394531 C 78.300781 154.960938 77.9375 153.492188 77.511719 152.042969 C 76.296875 147.882812 77.394531 144.460938 81.148438 142.304688 C 84.355469 140.460938 88.28125 141.707031 90.894531 145.6875 C 94.128906 150.609375 96.730469 155.941406 99.878906 160.925781 C 115.476562 185.628906 136.226562 203.941406 165.136719 210.953125 C 195.679688 218.363281 222.9375 210.789062 246.558594 190.320312 C 258.003906 180.40625 266.964844 168.472656 273.039062 154.460938 C 275.710938 148.296875 282.359375 145.421875 287.496094 147.90625 C 293.578125 150.851562 295.886719 157.382812 292.546875 163.707031 C 276.792969 193.546875 254.949219 217.046875 222.894531 229.585938 C 210.972656 234.253906 198.496094 236.445312 185.835938 236.890625 Z M 185.835938 236.890625 " fill-opacity="1" fill-rule="nonzero"/><path fill="#190837" d="M 225.5 129.09375 C 225.351562 136.382812 218.679688 142.527344 211.144531 142.3125 C 204.25 142.121094 197.867188 135.542969 197.945312 128.710938 C 198.027344 120.898438 204.296875 115.113281 212.484375 115.285156 C 220.097656 115.445312 225.660156 121.347656 225.5 129.09375 Z M 225.5 129.09375 " fill-opacity="1" fill-rule="nonzero"/><path fill="#190837" d="M 153.976562 122.769531 C 153.964844 130.605469 148.65625 136.027344 141.058594 135.96875 C 133.734375 135.914062 127.800781 129.71875 127.84375 122.171875 C 127.886719 114.828125 133.796875 108.898438 141.046875 108.925781 C 148.613281 108.957031 153.984375 114.710938 153.976562 122.769531 Z M 153.976562 122.769531 " fill-opacity="1" fill-rule="nonzero"/></svg>