<svg xmlns="http://www.w3.org/2000/svg" xmlns:xlink="http://www.w3.org/1999/xlink" width="500" zoomAndPan="magnify" viewBox="0 0 375 374.999991" height="500" preserveAspectRatio="xMidYMid meet" version="1.0"><defs><clipPath id="6a69a2a006"><path d="M 263.160156 235 L 358.410156 235 L 358.410156 330 L 263.160156 330 Z M 263.160156 235 " clip-rule="nonzero"/></clipPath></defs><g clip-path="url(#6a69a2a006)"><path fill="#ffb3f7" d="M 357.582031 287.609375 C 358.410156 289.003906 358.128906 290.789062 356.910156 291.859375 L 353.835938 294.558594 C 352.910156 295.371094 352.503906 296.625 352.777344 297.828125 L 353.675781 301.816406 C 354.03125 303.398438 353.210938 305.007812 351.722656 305.648438 L 347.964844 307.265625 C 346.832031 307.75 346.058594 308.820312 345.945312 310.046875 L 345.570312 314.117188 C 345.421875 315.730469 344.140625 317.007812 342.527344 317.160156 L 338.457031 317.535156 C 337.230469 317.648438 336.160156 318.425781 335.675781 319.554688 L 334.058594 323.3125 C 333.417969 324.800781 331.808594 325.621094 330.226562 325.265625 L 326.238281 324.367188 C 325.035156 324.09375 323.78125 324.503906 322.96875 325.425781 L 320.269531 328.5 C 319.199219 329.71875 317.414062 330 316.019531 329.171875 L 312.503906 327.082031 C 311.445312 326.453125 310.125 326.453125 309.066406 327.082031 L 305.550781 329.171875 C 304.15625 330 302.371094 329.71875 301.304688 328.5 L 298.605469 325.425781 C 297.792969 324.5 296.535156 324.09375 295.335938 324.367188 L 291.34375 325.265625 C 289.765625 325.621094 288.152344 324.800781 287.511719 323.3125 L 285.898438 319.554688 C 285.410156 318.421875 284.34375 317.648438 283.117188 317.535156 L 279.042969 317.160156 C 277.429688 317.011719 276.152344 315.730469 276.003906 314.117188 L 275.625 310.046875 C 275.515625 308.820312 274.738281 307.75 273.605469 307.265625 L 269.851562 305.648438 C 268.359375 305.007812 267.539062 303.398438 267.898438 301.816406 L 268.796875 297.828125 C 269.066406 296.625 268.660156 295.371094 267.734375 294.558594 L 264.660156 291.859375 C 263.441406 290.789062 263.160156 289.003906 263.988281 287.609375 L 266.078125 284.09375 C 266.707031 283.035156 266.707031 281.714844 266.078125 280.65625 L 263.988281 277.140625 C 263.160156 275.746094 263.441406 273.960938 264.660156 272.890625 L 267.734375 270.191406 C 268.660156 269.378906 269.066406 268.125 268.792969 266.921875 L 267.894531 262.933594 C 267.539062 261.351562 268.359375 259.742188 269.847656 259.101562 L 273.605469 257.484375 C 274.738281 257 275.511719 255.929688 275.625 254.703125 L 276 250.632812 C 276.148438 249.019531 277.425781 247.742188 279.042969 247.589844 L 283.113281 247.214844 C 284.339844 247.101562 285.410156 246.324219 285.894531 245.195312 L 287.511719 241.4375 C 288.152344 239.949219 289.761719 239.128906 291.34375 239.484375 L 295.332031 240.382812 C 296.535156 240.65625 297.789062 240.246094 298.601562 239.324219 L 301.300781 236.25 C 302.371094 235.03125 304.15625 234.75 305.550781 235.578125 L 309.066406 237.667969 C 310.125 238.296875 311.441406 238.296875 312.503906 237.667969 L 316.019531 235.578125 C 317.410156 234.75 319.195312 235.03125 320.265625 236.25 L 322.964844 239.324219 C 323.777344 240.25 325.03125 240.65625 326.234375 240.382812 L 330.222656 239.484375 C 331.804688 239.128906 333.417969 239.949219 334.058594 241.4375 L 335.671875 245.195312 C 336.160156 246.328125 337.226562 247.101562 338.453125 247.214844 L 342.523438 247.589844 C 344.136719 247.738281 345.417969 249.019531 345.566406 250.632812 L 345.941406 254.703125 C 346.054688 255.929688 346.832031 257 347.964844 257.484375 L 351.71875 259.101562 C 353.207031 259.742188 354.027344 261.351562 353.671875 262.933594 L 352.773438 266.921875 C 352.503906 268.125 352.910156 269.378906 353.835938 270.191406 L 356.90625 272.890625 C 358.125 273.960938 358.40625 275.746094 357.578125 277.140625 L 355.488281 280.65625 C 354.859375 281.714844 354.859375 283.035156 355.488281 284.09375 Z M 357.582031 287.609375 " fill-opacity="1" fill-rule="nonzero"/></g><path fill="#000000" d="M 291.5 278.367188 C 291.421875 278.808594 291.597656 279.261719 291.957031 279.53125 L 301.390625 286.566406 L 300.941406 298.328125 C 300.921875 298.777344 301.164062 299.199219 301.5625 299.414062 C 301.738281 299.511719 301.933594 299.558594 302.128906 299.558594 C 302.367188 299.558594 302.609375 299.484375 302.8125 299.339844 L 312.417969 292.542969 L 323.464844 296.601562 C 323.886719 296.757812 324.363281 296.660156 324.691406 296.351562 C 325.019531 296.039062 325.140625 295.570312 325.007812 295.136719 L 321.511719 283.902344 L 328.785156 274.652344 C 329.066406 274.296875 329.117188 273.8125 328.925781 273.40625 C 328.730469 273 328.324219 272.738281 327.871094 272.730469 L 316.101562 272.585938 L 309.554688 262.808594 C 309.304688 262.429688 308.863281 262.230469 308.414062 262.292969 C 307.96875 262.351562 307.59375 262.660156 307.449219 263.085938 L 303.667969 274.230469 L 292.347656 277.4375 C 291.910156 277.5625 291.585938 277.921875 291.5 278.367188 Z M 304.914062 276.34375 C 305.289062 276.238281 305.589844 275.953125 305.714844 275.585938 L 308.921875 266.125 L 314.480469 274.421875 C 314.699219 274.746094 315.0625 274.945312 315.453125 274.949219 L 325.441406 275.074219 L 319.265625 282.925781 C 319.023438 283.234375 318.949219 283.640625 319.066406 284.011719 L 322.035156 293.546875 L 312.660156 290.101562 C 312.292969 289.96875 311.882812 290.023438 311.5625 290.246094 L 303.410156 296.015625 L 303.789062 286.035156 C 303.804688 285.644531 303.625 285.269531 303.3125 285.039062 L 295.308594 279.066406 Z M 305.144531 279.878906 C 305.035156 279.050781 305.617188 278.292969 306.441406 278.183594 C 307.269531 278.074219 308.027344 278.65625 308.136719 279.480469 C 308.246094 280.308594 307.664062 281.066406 306.839844 281.175781 C 306.011719 281.285156 305.253906 280.703125 305.144531 279.878906 Z M 313.15625 278.816406 C 313.046875 277.988281 313.628906 277.230469 314.453125 277.121094 C 315.277344 277.011719 316.039062 277.59375 316.144531 278.417969 C 316.253906 279.246094 315.671875 280.003906 314.847656 280.113281 C 314.023438 280.222656 313.265625 279.644531 313.15625 278.816406 Z M 310.785156 243.515625 C 289.355469 243.515625 271.921875 260.945312 271.921875 282.375 C 271.921875 303.804688 289.355469 321.234375 310.785156 321.234375 C 332.214844 321.234375 349.644531 303.804688 349.644531 282.375 C 349.644531 260.945312 332.214844 243.515625 310.785156 243.515625 Z M 310.785156 318.867188 C 290.664062 318.867188 274.296875 302.496094 274.296875 282.378906 C 274.296875 262.257812 290.664062 245.886719 310.785156 245.886719 C 330.90625 245.886719 347.273438 262.257812 347.273438 282.378906 C 347.277344 302.496094 330.90625 318.867188 310.785156 318.867188 Z M 309.164062 281.460938 C 309.8125 281.375 310.410156 281.832031 310.496094 282.480469 C 310.523438 282.6875 310.648438 282.8125 310.722656 282.871094 C 310.792969 282.925781 310.945312 283.011719 311.15625 282.984375 C 311.476562 282.941406 311.703125 282.644531 311.660156 282.324219 C 311.574219 281.675781 312.03125 281.082031 312.679688 280.992188 C 313.328125 280.90625 313.925781 281.363281 314.011719 282.011719 C 314.113281 282.796875 313.910156 283.574219 313.425781 284.203125 C 312.945312 284.828125 312.25 285.230469 311.464844 285.335938 C 311.332031 285.355469 311.203125 285.363281 311.070312 285.363281 C 310.421875 285.363281 309.796875 285.152344 309.277344 284.75 C 308.648438 284.269531 308.246094 283.574219 308.144531 282.789062 C 308.058594 282.140625 308.515625 281.542969 309.164062 281.460938 Z M 292.230469 255.945312 C 292.089844 255.675781 292.0625 255.386719 292.148438 255.109375 C 292.234375 254.835938 292.421875 254.613281 292.691406 254.472656 L 298.109375 251.628906 C 298.378906 251.488281 298.667969 251.460938 298.945312 251.546875 C 299.222656 251.632812 299.441406 251.820312 299.582031 252.089844 C 299.722656 252.351562 299.746094 252.636719 299.660156 252.914062 C 299.574219 253.191406 299.386719 253.410156 299.117188 253.554688 L 297.398438 254.453125 L 300.527344 260.417969 C 300.664062 260.683594 300.695312 260.972656 300.613281 261.257812 C 300.527344 261.554688 300.332031 261.789062 300.050781 261.9375 C 299.886719 262.023438 299.714844 262.066406 299.535156 262.066406 C 299.421875 262.066406 299.304688 262.046875 299.195312 262.011719 C 298.90625 261.921875 298.675781 261.730469 298.535156 261.460938 L 295.40625 255.5 L 293.695312 256.394531 C 293.425781 256.539062 293.136719 256.566406 292.863281 256.480469 C 292.585938 256.390625 292.367188 256.207031 292.230469 255.945312 Z M 288.1875 273.167969 L 281.414062 269.335938 C 281.148438 269.1875 280.964844 268.953125 280.886719 268.65625 C 280.804688 268.363281 280.839844 268.066406 280.988281 267.804688 C 281.136719 267.539062 281.371094 267.355469 281.667969 267.273438 C 281.960938 267.195312 282.253906 267.230469 282.519531 267.378906 L 288.351562 270.675781 L 290.140625 267.511719 C 290.285156 267.257812 290.503906 267.078125 290.777344 266.988281 C 290.847656 266.964844 290.921875 266.949219 290.992188 266.941406 L 286.019531 261.84375 C 285.804688 261.621094 285.691406 261.347656 285.695312 261.046875 C 285.699219 260.746094 285.816406 260.472656 286.042969 260.253906 L 289.757812 256.628906 C 289.96875 256.425781 290.230469 256.3125 290.519531 256.304688 C 290.820312 256.289062 291.117188 256.410156 291.339844 256.640625 C 291.550781 256.855469 291.65625 257.132812 291.644531 257.441406 C 291.636719 257.738281 291.515625 258.003906 291.304688 258.210938 L 288.390625 261.054688 L 289.558594 262.25 L 291.542969 260.3125 C 291.761719 260.101562 292.035156 259.988281 292.332031 259.988281 C 292.335938 259.988281 292.335938 259.988281 292.335938 259.988281 C 292.640625 259.992188 292.910156 260.109375 293.121094 260.324219 C 293.335938 260.542969 293.445312 260.816406 293.441406 261.113281 C 293.4375 261.414062 293.316406 261.6875 293.097656 261.90625 L 291.109375 263.84375 L 292.300781 265.0625 L 295.210938 262.222656 C 295.421875 262.015625 295.691406 261.902344 295.992188 261.898438 C 296.316406 261.902344 296.582031 262.015625 296.789062 262.226562 C 297.011719 262.457031 297.121094 262.742188 297.105469 263.054688 C 297.085938 263.34375 296.96875 263.601562 296.761719 263.804688 L 293.042969 267.429688 C 292.824219 267.644531 292.554688 267.757812 292.261719 267.757812 C 292.230469 267.757812 292.203125 267.753906 292.175781 267.753906 C 292.175781 267.761719 292.179688 267.765625 292.179688 267.773438 C 292.246094 268.058594 292.207031 268.339844 292.0625 268.59375 L 289.71875 272.738281 C 289.570312 272.996094 289.34375 273.179688 289.058594 273.265625 C 288.957031 273.296875 288.847656 273.3125 288.742188 273.3125 C 288.550781 273.316406 288.363281 273.265625 288.1875 273.167969 Z M 342.132812 293.042969 C 342.03125 293.332031 341.835938 293.558594 341.5625 293.691406 C 341.289062 293.824219 340.992188 293.84375 340.707031 293.746094 L 334.332031 291.570312 L 333.707031 293.402344 C 333.652344 293.558594 333.570312 293.695312 333.464844 293.808594 C 333.601562 293.878906 333.703125 293.96875 333.777344 294.046875 C 333.984375 294.273438 334.082031 294.5625 334.054688 294.875 L 334.050781 294.921875 C 334 295.226562 333.847656 295.476562 333.613281 295.65625 C 333.386719 295.832031 333.117188 295.910156 332.832031 295.894531 C 332.707031 295.890625 332.558594 295.90625 332.398438 295.945312 C 332.265625 295.976562 332.128906 296.039062 331.996094 296.128906 C 331.855469 296.230469 331.707031 296.382812 331.5625 296.589844 C 331.320312 296.9375 331.199219 297.261719 331.199219 297.546875 C 331.203125 297.75 331.285156 297.890625 331.488281 298.03125 C 331.589844 298.101562 331.6875 298.136719 331.808594 298.140625 C 331.921875 298.144531 332.074219 298.097656 332.261719 297.992188 C 332.496094 297.859375 332.765625 297.628906 333.070312 297.300781 C 333.800781 296.511719 334.550781 296.03125 335.304688 295.878906 C 336.101562 295.71875 336.875 295.890625 337.601562 296.394531 C 338.011719 296.675781 338.335938 297.011719 338.558594 297.390625 C 338.785156 297.777344 338.917969 298.195312 338.949219 298.636719 C 338.980469 299.054688 338.929688 299.488281 338.796875 299.921875 C 338.671875 300.335938 338.472656 300.746094 338.207031 301.128906 C 337.898438 301.578125 337.539062 301.957031 337.140625 302.257812 C 336.730469 302.5625 336.292969 302.78125 335.832031 302.902344 C 335.542969 302.984375 335.246094 303.023438 334.960938 303.023438 C 334.78125 303.023438 334.605469 303.007812 334.433594 302.980469 C 334.09375 302.929688 333.808594 302.730469 333.660156 302.421875 C 333.566406 302.234375 333.480469 301.929688 333.613281 301.542969 C 333.707031 301.277344 333.886719 301.0625 334.144531 300.925781 C 334.371094 300.804688 334.628906 300.757812 334.882812 300.792969 C 335.019531 300.8125 335.167969 300.792969 335.335938 300.742188 C 335.515625 300.6875 335.695312 300.589844 335.867188 300.453125 C 336.054688 300.308594 336.230469 300.113281 336.390625 299.882812 C 336.558594 299.640625 336.667969 299.402344 336.714844 299.171875 C 336.753906 298.976562 336.746094 298.804688 336.683594 298.640625 C 336.628906 298.492188 336.515625 298.363281 336.34375 298.242188 C 336.125 298.09375 335.902344 298.050781 335.628906 298.105469 C 335.328125 298.164062 334.988281 298.402344 334.617188 298.820312 C 333.949219 299.574219 333.226562 300.054688 332.457031 300.246094 C 331.625 300.449219 330.859375 300.316406 330.175781 299.84375 C 329.683594 299.507812 329.339844 299.070312 329.152344 298.546875 C 328.972656 298.042969 328.9375 297.496094 329.054688 296.925781 C 329.164062 296.386719 329.398438 295.847656 329.761719 295.320312 C 330.039062 294.917969 330.363281 294.585938 330.726562 294.335938 C 331.085938 294.09375 331.464844 293.917969 331.847656 293.8125 C 331.859375 293.808594 331.875 293.808594 331.886719 293.804688 C 331.808594 293.726562 331.75 293.636719 331.699219 293.535156 C 331.570312 293.277344 331.554688 292.984375 331.652344 292.699219 L 333.628906 286.90625 C 333.726562 286.621094 333.914062 286.402344 334.175781 286.273438 C 334.433594 286.144531 334.726562 286.128906 335.011719 286.226562 C 335.292969 286.324219 335.507812 286.511719 335.636719 286.773438 C 335.765625 287.03125 335.78125 287.320312 335.679688 287.609375 L 335.054688 289.445312 L 341.429688 291.621094 C 341.710938 291.714844 341.933594 291.90625 342.066406 292.167969 C 342.210938 292.441406 342.234375 292.746094 342.132812 293.042969 Z M 323.367188 261.113281 C 323.429688 261.761719 323.628906 262.390625 323.949219 262.980469 C 324.269531 263.570312 324.71875 264.101562 325.285156 264.5625 C 325.84375 265.015625 326.457031 265.347656 327.097656 265.542969 C 327.574219 265.683594 328.0625 265.757812 328.546875 265.757812 C 328.714844 265.757812 328.882812 265.75 329.046875 265.734375 C 329.695312 265.664062 330.324219 265.46875 330.914062 265.144531 C 331.496094 264.820312 332.027344 264.371094 332.484375 263.804688 C 332.941406 263.246094 333.269531 262.640625 333.464844 262 C 333.664062 261.359375 333.730469 260.703125 333.664062 260.054688 C 333.597656 259.40625 333.402344 258.777344 333.078125 258.183594 C 332.757812 257.597656 332.3125 257.066406 331.753906 256.609375 C 331.183594 256.152344 330.574219 255.820312 329.933594 255.625 C 329.289062 255.433594 328.632812 255.371094 327.984375 255.4375 C 327.339844 255.507812 326.710938 255.707031 326.125 256.03125 C 325.539062 256.355469 325.011719 256.800781 324.558594 257.359375 C 324.097656 257.925781 323.765625 258.535156 323.570312 259.171875 C 323.371094 259.8125 323.304688 260.464844 323.367188 261.113281 Z M 325.710938 259.808594 C 325.824219 259.445312 326.015625 259.09375 326.285156 258.761719 C 326.546875 258.4375 326.851562 258.179688 327.1875 257.996094 C 327.519531 257.8125 327.871094 257.695312 328.234375 257.65625 C 328.335938 257.644531 328.433594 257.636719 328.535156 257.636719 C 328.800781 257.636719 329.0625 257.675781 329.320312 257.753906 C 329.683594 257.859375 330.03125 258.050781 330.359375 258.316406 C 330.683594 258.578125 330.9375 258.878906 331.117188 259.214844 C 331.292969 259.542969 331.402344 259.894531 331.433594 260.257812 C 331.46875 260.621094 331.429688 260.988281 331.316406 261.355469 C 331.203125 261.71875 331.011719 262.066406 330.75 262.390625 C 330.480469 262.722656 330.175781 262.984375 329.839844 263.167969 C 329.507812 263.351562 329.15625 263.464844 328.789062 263.507812 C 328.429688 263.546875 328.0625 263.515625 327.707031 263.40625 C 327.34375 263.300781 326.996094 263.113281 326.671875 262.851562 C 326.34375 262.582031 326.089844 262.277344 325.910156 261.945312 C 325.730469 261.617188 325.625 261.265625 325.589844 260.902344 C 325.558594 260.542969 325.597656 260.171875 325.710938 259.808594 Z M 299.996094 252.28125 C 299.890625 251.929688 299.921875 251.585938 300.085938 251.289062 C 300.25 250.996094 300.507812 250.785156 300.835938 250.6875 C 301.230469 250.566406 301.628906 250.644531 301.960938 250.902344 C 302.222656 251.109375 302.421875 251.417969 302.542969 251.816406 C 302.613281 252.046875 302.648438 252.308594 302.644531 252.617188 C 302.640625 252.878906 302.617188 253.148438 302.578125 253.414062 C 302.53125 253.710938 302.464844 253.960938 302.367188 254.183594 C 302.214844 254.550781 301.980469 254.78125 301.679688 254.875 L 301.664062 254.878906 C 301.578125 254.902344 301.488281 254.914062 301.398438 254.914062 C 301.195312 254.914062 300.996094 254.851562 300.820312 254.722656 C 300.53125 254.519531 300.386719 254.195312 300.425781 253.828125 C 300.457031 253.550781 300.441406 253.402344 300.433594 253.339844 C 300.40625 253.1875 300.378906 253.101562 300.355469 253.054688 C 300.316406 252.964844 300.273438 252.878906 300.226562 252.800781 C 300.132812 252.652344 300.054688 252.476562 299.996094 252.28125 Z M 304.066406 252.625 C 304 252.03125 304.105469 251.484375 304.378906 251 C 304.640625 250.535156 305.03125 250.15625 305.539062 249.867188 C 306.015625 249.59375 306.578125 249.421875 307.214844 249.351562 C 307.699219 249.296875 308.164062 249.324219 308.589844 249.4375 C 309.007812 249.550781 309.390625 249.71875 309.71875 249.941406 C 310.046875 250.164062 310.328125 250.421875 310.554688 250.710938 C 310.804688 251.027344 310.832031 251.34375 310.804688 251.550781 C 310.769531 251.859375 310.617188 252.117188 310.363281 252.304688 L 310.320312 252.332031 C 310.0625 252.492188 309.773438 252.539062 309.484375 252.480469 C 309.207031 252.425781 308.964844 252.273438 308.792969 252.046875 C 308.710938 251.949219 308.597656 251.84375 308.46875 251.75 C 308.359375 251.671875 308.222656 251.613281 308.066406 251.570312 C 307.894531 251.527344 307.683594 251.519531 307.433594 251.542969 C 307.011719 251.589844 306.683594 251.707031 306.472656 251.898438 C 306.316406 252.03125 306.265625 252.1875 306.292969 252.433594 C 306.308594 252.550781 306.347656 252.652344 306.421875 252.746094 C 306.472656 252.808594 306.585938 252.902344 306.832031 252.992188 C 307.082031 253.082031 307.4375 253.136719 307.882812 253.148438 C 308.960938 253.179688 309.8125 253.4375 310.417969 253.90625 C 311.0625 254.402344 311.4375 255.097656 311.535156 255.980469 C 311.589844 256.476562 311.546875 256.9375 311.40625 257.355469 C 311.265625 257.78125 311.035156 258.15625 310.722656 258.46875 C 310.425781 258.765625 310.066406 259.007812 309.652344 259.191406 C 309.253906 259.371094 308.816406 259.484375 308.351562 259.539062 C 308.160156 259.558594 307.964844 259.570312 307.773438 259.570312 C 307.4375 259.570312 307.113281 259.539062 306.800781 259.46875 C 306.304688 259.359375 305.851562 259.167969 305.457031 258.90625 C 305.054688 258.632812 304.730469 258.292969 304.484375 257.894531 C 304.296875 257.609375 304.265625 257.257812 304.398438 256.945312 C 304.476562 256.75 304.652344 256.488281 305.035156 256.335938 C 305.296875 256.230469 305.578125 256.226562 305.847656 256.332031 C 306.085938 256.421875 306.289062 256.585938 306.429688 256.808594 C 306.507812 256.917969 306.617188 257.023438 306.765625 257.113281 C 306.921875 257.210938 307.117188 257.285156 307.332031 257.328125 C 307.566406 257.371094 307.828125 257.378906 308.109375 257.347656 C 308.402344 257.316406 308.652344 257.242188 308.855469 257.125 C 309.03125 257.027344 309.15625 256.90625 309.238281 256.753906 C 309.3125 256.617188 309.339844 256.449219 309.316406 256.238281 C 309.285156 255.976562 309.175781 255.78125 308.953125 255.609375 C 308.710938 255.417969 308.308594 255.320312 307.753906 255.3125 C 306.746094 255.304688 305.90625 255.070312 305.257812 254.613281 C 304.558594 254.117188 304.15625 253.449219 304.066406 252.625 Z M 323.890625 307.382812 C 323.703125 307.277344 323.511719 307.195312 323.308594 307.132812 C 323.332031 307.0625 323.355469 306.988281 323.371094 306.914062 C 323.496094 306.414062 323.460938 305.902344 323.269531 305.398438 C 323.070312 304.871094 322.753906 304.449219 322.335938 304.140625 C 321.925781 303.84375 321.457031 303.660156 320.9375 303.59375 C 320.425781 303.535156 319.90625 303.605469 319.386719 303.800781 L 316.871094 304.757812 C 316.582031 304.867188 316.363281 305.070312 316.238281 305.34375 C 316.117188 305.617188 316.109375 305.917969 316.222656 306.207031 L 318.988281 313.480469 C 319.109375 313.792969 319.34375 314.027344 319.648438 314.132812 C 319.773438 314.175781 319.902344 314.199219 320.03125 314.199219 C 320.183594 314.199219 320.339844 314.167969 320.488281 314.109375 L 323.128906 313.105469 C 323.71875 312.882812 324.207031 312.550781 324.578125 312.117188 C 324.957031 311.675781 325.199219 311.167969 325.300781 310.605469 C 325.398438 310.042969 325.335938 309.460938 325.113281 308.875 C 324.855469 308.199219 324.445312 307.695312 323.890625 307.382812 Z M 319.203125 307.730469 L 318.707031 306.425781 L 320.171875 305.871094 C 320.4375 305.769531 320.664062 305.75 320.863281 305.8125 C 320.925781 305.832031 321.070312 305.878906 321.1875 306.1875 C 321.300781 306.484375 321.25 306.644531 321.195312 306.753906 C 321.09375 306.9375 320.921875 307.074219 320.667969 307.171875 Z M 323.097656 310.246094 C 323.066406 310.414062 322.996094 310.558594 322.875 310.6875 C 322.742188 310.835938 322.566406 310.949219 322.339844 311.035156 L 320.703125 311.660156 L 319.992188 309.800781 L 321.628906 309.175781 C 321.859375 309.085938 322.074219 309.050781 322.265625 309.074219 C 322.441406 309.089844 322.59375 309.148438 322.722656 309.246094 C 322.851562 309.34375 322.949219 309.484375 323.019531 309.671875 C 323.105469 309.882812 323.128906 310.070312 323.097656 310.246094 Z M 315.777344 259.667969 L 317.660156 260.324219 C 318.261719 260.535156 318.867188 260.640625 319.453125 260.640625 C 319.523438 260.640625 319.597656 260.640625 319.667969 260.636719 C 320.328125 260.609375 320.953125 260.453125 321.527344 260.167969 C 322.097656 259.890625 322.605469 259.496094 323.039062 258.996094 C 323.46875 258.503906 323.804688 257.90625 324.039062 257.226562 C 324.277344 256.546875 324.382812 255.875 324.351562 255.222656 C 324.320312 254.570312 324.164062 253.945312 323.890625 253.371094 C 323.617188 252.796875 323.222656 252.285156 322.722656 251.851562 C 322.230469 251.421875 321.632812 251.085938 320.953125 250.851562 L 319.070312 250.195312 C 318.78125 250.09375 318.480469 250.109375 318.210938 250.238281 C 317.941406 250.371094 317.742188 250.59375 317.644531 250.886719 L 315.085938 258.238281 C 314.984375 258.53125 314.996094 258.828125 315.128906 259.097656 C 315.257812 259.371094 315.484375 259.566406 315.777344 259.667969 Z M 319.425781 252.605469 L 320.246094 252.890625 C 320.769531 253.074219 321.191406 253.347656 321.496094 253.707031 C 321.808594 254.070312 322.003906 254.480469 322.082031 254.960938 C 322.167969 255.441406 322.113281 255.957031 321.925781 256.492188 C 321.742188 257.027344 321.460938 257.464844 321.097656 257.789062 C 320.734375 258.117188 320.328125 258.320312 319.855469 258.417969 C 319.386719 258.507812 318.886719 258.464844 318.367188 258.285156 L 317.546875 258 Z M 312.203125 307.242188 C 311.9375 306.714844 311.542969 306.28125 311.035156 305.960938 C 310.535156 305.644531 309.953125 305.460938 309.304688 305.414062 L 307.238281 305.265625 C 306.933594 305.242188 306.648438 305.335938 306.417969 305.53125 C 306.191406 305.730469 306.058594 305.996094 306.035156 306.308594 L 305.480469 314.070312 C 305.457031 314.378906 305.546875 314.664062 305.742188 314.890625 C 305.9375 315.117188 306.207031 315.25 306.519531 315.273438 C 306.828125 315.292969 307.113281 315.199219 307.339844 315.003906 C 307.566406 314.808594 307.695312 314.539062 307.71875 314.230469 L 307.882812 311.972656 L 308.636719 312.027344 L 310.207031 314.980469 C 310.292969 315.148438 310.40625 315.289062 310.539062 315.386719 C 310.699219 315.515625 310.902344 315.585938 311.132812 315.605469 C 311.171875 315.605469 311.207031 315.609375 311.242188 315.609375 C 311.796875 315.609375 312.074219 315.296875 312.191406 315.109375 C 312.3125 314.910156 312.476562 314.5 312.1875 313.953125 L 310.9375 311.597656 C 311.34375 311.363281 311.683594 311.058594 311.953125 310.679688 C 312.296875 310.203125 312.492188 309.644531 312.535156 309.019531 C 312.582031 308.371094 312.472656 307.773438 312.203125 307.242188 Z M 310.316406 308.855469 C 310.300781 309.0625 310.242188 309.234375 310.132812 309.378906 C 310.015625 309.535156 309.867188 309.652344 309.679688 309.730469 C 309.476562 309.820312 309.253906 309.851562 308.988281 309.832031 L 308.042969 309.765625 L 308.203125 307.558594 L 309.148438 307.625 C 309.410156 307.644531 309.628906 307.710938 309.8125 307.824219 C 309.988281 307.933594 310.117188 308.074219 310.210938 308.253906 C 310.296875 308.425781 310.335938 308.625 310.316406 308.855469 Z M 305.472656 306.351562 L 303.449219 311.3125 C 303.175781 311.980469 302.757812 312.515625 302.207031 312.90625 C 301.664062 313.289062 301.035156 313.511719 300.339844 313.566406 C 300.234375 313.574219 300.132812 313.578125 300.023438 313.578125 C 299.445312 313.578125 298.847656 313.453125 298.242188 313.210938 C 297.523438 312.917969 296.929688 312.507812 296.476562 311.992188 C 296.011719 311.460938 295.714844 310.859375 295.59375 310.203125 C 295.472656 309.539062 295.550781 308.863281 295.824219 308.195312 L 297.847656 303.234375 C 297.964844 302.945312 298.171875 302.734375 298.449219 302.617188 C 298.726562 302.503906 299.023438 302.503906 299.3125 302.621094 C 299.597656 302.738281 299.8125 302.945312 299.929688 303.222656 C 300.046875 303.5 300.046875 303.796875 299.925781 304.085938 L 297.902344 309.046875 C 297.789062 309.324219 297.757812 309.582031 297.808594 309.839844 C 297.859375 310.109375 297.984375 310.347656 298.195312 310.578125 C 298.414062 310.820312 298.710938 311.019531 299.074219 311.167969 C 299.433594 311.3125 299.773438 311.378906 300.09375 311.351562 C 300.394531 311.332031 300.652344 311.246094 300.878906 311.09375 C 301.09375 310.945312 301.253906 310.738281 301.367188 310.457031 L 303.390625 305.496094 C 303.507812 305.207031 303.71875 304.996094 303.992188 304.878906 C 304.269531 304.765625 304.566406 304.765625 304.855469 304.882812 C 305.234375 305.035156 305.40625 305.304688 305.484375 305.5 C 305.589844 305.777344 305.585938 306.070312 305.472656 306.351562 Z M 333.804688 304.964844 C 334.003906 305.21875 334.082031 305.515625 334.035156 305.824219 C 333.988281 306.109375 333.84375 306.355469 333.613281 306.535156 L 329.546875 309.761719 C 329.339844 309.925781 329.097656 310.007812 328.847656 310.007812 C 328.804688 310.007812 328.761719 310.007812 328.71875 310 C 328.417969 309.96875 328.160156 309.820312 327.964844 309.574219 L 323.132812 303.476562 C 322.9375 303.234375 322.855469 302.949219 322.886719 302.648438 C 322.921875 302.351562 323.066406 302.089844 323.3125 301.898438 L 327.382812 298.671875 C 327.609375 298.492188 327.882812 298.40625 328.171875 298.425781 C 328.484375 298.449219 328.753906 298.59375 328.953125 298.84375 C 329.140625 299.082031 329.21875 299.367188 329.175781 299.671875 C 329.136719 299.96875 328.992188 300.222656 328.757812 300.40625 L 325.570312 302.933594 L 326.609375 304.242188 L 328.78125 302.519531 C 329.027344 302.328125 329.3125 302.242188 329.609375 302.277344 C 329.90625 302.3125 330.164062 302.453125 330.351562 302.691406 C 330.539062 302.929688 330.625 303.210938 330.589844 303.511719 C 330.554688 303.808594 330.40625 304.066406 330.164062 304.261719 L 327.992188 305.984375 L 329.050781 307.320312 L 332.238281 304.792969 C 332.46875 304.609375 332.75 304.523438 333.046875 304.550781 C 333.355469 304.589844 333.617188 304.726562 333.804688 304.964844 Z M 296.582031 302.589844 C 296.566406 301.9375 296.417969 301.292969 296.144531 300.683594 C 295.867188 300.070312 295.464844 299.507812 294.941406 299.007812 C 294.414062 298.507812 293.828125 298.128906 293.203125 297.886719 C 292.574219 297.644531 291.925781 297.53125 291.277344 297.546875 C 290.625 297.566406 289.984375 297.71875 289.375 297.996094 C 288.769531 298.273438 288.207031 298.675781 287.710938 299.199219 C 287.210938 299.726562 286.828125 300.308594 286.585938 300.929688 C 286.339844 301.554688 286.222656 302.199219 286.234375 302.851562 C 286.25 303.5 286.394531 304.144531 286.667969 304.757812 C 286.941406 305.367188 287.351562 305.933594 287.878906 306.4375 C 288.402344 306.9375 288.984375 307.3125 289.609375 307.554688 C 290.195312 307.78125 290.804688 307.894531 291.414062 307.894531 C 291.457031 307.894531 291.496094 307.894531 291.535156 307.894531 C 292.191406 307.878906 292.832031 307.726562 293.445312 307.449219 C 294.050781 307.171875 294.613281 306.765625 295.117188 306.238281 C 295.613281 305.714844 295.992188 305.132812 296.238281 304.511719 C 296.484375 303.890625 296.601562 303.242188 296.582031 302.589844 Z M 294.144531 303.707031 C 294.003906 304.0625 293.785156 304.394531 293.5 304.699219 C 293.207031 305.007812 292.878906 305.246094 292.535156 305.40625 C 292.1875 305.5625 291.824219 305.648438 291.460938 305.660156 C 291.09375 305.671875 290.734375 305.613281 290.382812 305.480469 C 290.03125 305.34375 289.699219 305.132812 289.398438 304.84375 C 289.09375 304.550781 288.859375 304.230469 288.707031 303.886719 C 288.554688 303.542969 288.476562 303.183594 288.472656 302.820312 C 288.464844 302.453125 288.535156 302.089844 288.675781 301.734375 C 288.816406 301.378906 289.035156 301.042969 289.328125 300.734375 C 289.617188 300.433594 289.9375 300.199219 290.285156 300.042969 C 290.632812 299.882812 290.992188 299.796875 291.359375 299.785156 C 291.390625 299.785156 291.425781 299.78125 291.457031 299.78125 C 291.789062 299.78125 292.117188 299.84375 292.433594 299.964844 C 292.789062 300.101562 293.121094 300.316406 293.425781 300.609375 C 293.726562 300.894531 293.957031 301.214844 294.109375 301.558594 C 294.261719 301.902344 294.34375 302.261719 294.347656 302.621094 C 294.351562 302.988281 294.28125 303.355469 294.144531 303.707031 Z M 294.144531 303.707031 " fill-opacity="1" fill-rule="nonzero"/></svg>